<svg xmlns="http://www.w3.org/2000/svg" viewBox="0 0 219 224"><path d="M110.62 89.82a12.67 12.67 0 0 1-6.89 8.05l-43.58-.15a5 5 0 0 0 1.23-3.19 4.84 4.84 0 0 0-1.23-3.34l44.74-.14a6.08 6.08 0 0 0 4-1.38c2.53-1.3 1.73.15 1.73.15zm-59 4.64a4.83 4.83 0 0 0 1.23 3.26h-.5l-20-.07c-2.75.22-7.54 4.42-7.54 4.42-1.1 1.16.22 1.16.22 1.16a9.24 9.24 0 0 1 4.42-.36c3.34.65 1 5.5 1 5.5l-5.6 12.4c-.65 1.67.08 1.9.08 1.9 3.4.3 9.8-14.65 9.8-14.65a1.35 1.35 0 0 0-.66-2.25c-1.52-.72-.8-3.33-.8-3.33a2.87 2.87 0 0 1 3.12-1.24c1.74.37 2.25 2.7 2.25 2.7.73.94 5.3 1.23 5.3 1.23 2 .07 1 2 1 2l-3.7 9c-1.16 4.06 0 4.2 0 4.2 2.9.58 3.84-4.14 3.84-4.14l5.15-12.32 5.44.07L49.48 119c-.58 1.67.15 1.74.15 1.74 1 .58 2.75-2 2.75-2 .5-3.48 2.76-3.62 2.76-3.62l8.63-11.82c1-.3.8.43.8.43l-.8 1.6a30.39 30.39 0 0 1 1.88 7c1.9 5.3-1.88 9.65-1.88 9.65a4.68 4.68 0 0 0 2.83-1.38l6.67-16.6h6.1l-.14.58a8.93 8.93 0 0 1 5.44-.65c6.38 2.32-.3 13-.3 13C83.7 119.26 81 121 81 121c1.08.58 3-1.3 3-1.3 1.8-.66 3.2-3.63 3.2-3.63l5-12.18 6.23.07-6.1 14.65c-.5 1.8.44 1.45.44 1.45 1.74-.58 3.84-4.8 3.84-4.8l4.65-11.27h5.66l-7.54 18.13a4.76 4.76 0 0 1 2.53.07c2.54 1.24 1.82 2.1 1.82 2.1-.15 1.15-1 .58-1 .58-1.66-2.1-4.27-.8-4.27-.8-4.02 8.37-10.46 8.73-10.46 8.73-4.86-.14-2.47-4.42-2.47-4.42 2.4-4.28 7.9-5 7.9-5l.5-1.46a5.83 5.83 0 0 1-4 1.31c-2.76.07-3.12-3.55-3.12-3.55-5.6 4.93-11 3.7-11 3.7-2.25.43-4-1.67-4-1.67l-3.2 7.76-5.64-.08 2.54-6.52c-1.6 1.23-4.86.72-4.86.72-2 1.24-5.44.15-5.44.15a2.69 2.69 0 0 1-2-2.47c-3.18 3.7-5.24 2.83-5.24 2.83-3.63.3-3.92-2.25-3.92-2.25a5.74 5.74 0 0 1-5.14 2.32c-7-.94-.22-14.06-.22-14.06 1.1-1.67-.44-2.18-.44-2.18-1.37-.36-1.37.36-1.37.36-4.07 10.8-8 14.87-8 14.87-5 5.44-10.45 2.6-10.45 2.6-1.8-.5-.8-3.92-.8-3.92l5.65-13.4c1.23-2.47-1.3-1.82-1.3-1.82a10 10 0 0 0-5.08 3.77l-6.9 16-7-.07 12.13-31.8c.58-1.66-.65-2-.65-2L10.9 92c-.94.07-.86-1-.86-1 0-.94 1.66-.94 1.66-.94l8.92-.44c4.8 1 2.6 4.65 2.6 4.65l-3.7 8.55c-.5 1.53.5.87.5.87.07-.65 11.3-11.53 11.3-11.53a3 3 0 0 1 1.82-.87l19.65-.07a4.66 4.66 0 0 0-1.23 3.19zm40.18 31.47s-3.85.8-4.36 3c0 0-.2 1.1 1.1.8 0 0 1.38-.43 3.4-3 0 0 .8-.66-.14-.73zm-16.68-6c2 .66 3.26-1.67 3.26-1.67 1.52-1.88 2.76-7.1 2.76-7.1a1.89 1.89 0 0 0-1.24-2.69c-2.4 0-3 1.38-3 1.38l-3.12 7.7c-.22 2.4 1.3 2.4 1.3 2.4zm-16-1.67a2.77 2.77 0 0 1-2.68 2.9c.3 1.6 1.3 1.1 1.3 1.1 4.13-.43 3.9-4.78 3.9-4.78a5.86 5.86 0 0 0-1.59-4.79l-2.54 3c1.8 1.37 1.6 2.53 1.6 2.53zm-2.6-26.85a3.05 3.05 0 1 0-.07 6.1 3 3 0 0 0 3.12-2.83v-.15a3.08 3.08 0 0 0-3-3.12zm90.65 30.24a6.08 6.08 0 0 1-5 2.54c-7-.87-.2-14-.2-14 1.08-1.66-.44-2.17-.44-2.17-1.38-.36-1.38.36-1.38.36-4.06 10.73-8 14.87-8 14.87-5 5.36-10.44 2.6-10.44 2.6-1.74-.5-.8-3.92-.8-3.92l5.66-13.4c1.3-2.47-1.3-1.82-1.3-1.82a10 10 0 0 0-5.07 3.77l-6.82 16h-7l12.1-31.9c.58-1.6-.65-2-.65-2l-3.63-.5c-.94.07-.8-.95-.8-.95 0-1 1.6-.94 1.6-.94l9-.43c4.72.94 2.54 4.64 2.54 4.64l-3.7 8.48c-.5 1.52.5.94.5.94.14-.65 11.38-11.53 11.38-11.53a2.69 2.69 0 0 1 1.74-.87l71.72-.3a6.1 6.1 0 0 0 4-1.37c2.54-1.3 1.74.07 1.74.07-1.38 5.87-7.54 8.2-7.54 8.2l-70.7-.36c-2.76.3-7.55 4.5-7.55 4.5-1.08 1.08.3 1.16.3 1.16a8.91 8.91 0 0 1 4.35-.37c3.34.66 1 5.52 1 5.52l-5.58 12.4c-.66 1.66.07 1.88.07 1.88 3.48.3 9.86-14.65 9.86-14.65a1.43 1.43 0 0 0-.73-2.32c-1.52-.65-.8-3.33-.8-3.33a2.87 2.87 0 0 1 3.12-1.23c1.74.43 2.32 2.68 2.32 2.68.65 1 5.22 1.3 5.22 1.3 2 .08 1 2 1 2l-3.62 9.06c-1.16 4-.08 4.2-.08 4.2 2.9.58 3.85-4.2 3.85-4.2a12.24 12.24 0 0 1 8-12.32s6.52-2.25 7.17 4.35c0 0 .3 7.9-10.44 8.2 0 0-1 2.47 1.9 3.92 0 0 3.9 1.16 8.84-4.7l5.08-11.53h5.44l-.37 1.23s0 .2.44.07a9.1 9.1 0 0 1 5.08-1.6c2.9.08 2.17 3 2.1 3.12s0 .44.36 0c0 0 2.6-3.2 6.3-3 0 0 3.2.43 2.1 4.93l-3.4 10s-.95 2.24.65 2.32 4.06-3.48 4.06-4.5c0 0-.22-11.9 10.52-13 0 0 4.7-.22 4.78 5 0 0 0 7.68-10.44 7.83 0 0-.15 4.35 3.62 4.64 0 0 2.76.5 6.68-4.14a1.42 1.42 0 0 1 1.08-.5s.73.3-.07 1.38c0 0-3.12 7-9.57 6.45 0 0-4.86 0-5.87-4.7 0 0-2.9 4.85-7.18 4.64 0 0-4.35-.08-4-5.3l3-9s.65-2-1.38-.8c0 0-.36 0-1.8 1.38l-.87 1.38-4.5 12.18-5.52-.07 4.94-13.2s1.3-2.32 0-2c0 0-1.45 0-3.12 2.32a9 9 0 0 0-.94 1.38l-4.8 11.68h-5.58l1.3-3.7s-4.2 4.2-8.27 3.63a4.92 4.92 0 0 1-5.07-4l-1.45 1.5zm49.67-8.26s-.3 1.08.44.86c0 0 4.06.6 6.38-4.13 0 0 .58-2.75-2.32-2 0-.03-2.7.26-4.5 5.27zm-43.58 0s-.3 1.08.43.86c0 0 4.06.6 6.4-4.13 0 0 .58-2.75-2.33-2 0 0-2.68.3-4.5 5.3z" fill="#fff" fill-rule="evenodd"/></svg>