<svg xmlns="http://www.w3.org/2000/svg" viewBox="0 0 219 224"><style>.A{fill:#fff;fill-rule:evenodd}</style><path class="A" d="M159.6 126.33a2.74 2.74 0 0 0 1.43.38 2.74 2.74 0 0 0 1.43-.38 2.54 2.54 0 0 0 1.07-1.06 2.89 2.89 0 0 0 .38-1.43 3 3 0 0 0-.38-1.47 2.63 2.63 0 0 0-1.08-1.06 3 3 0 0 0-1.42-.38 3.07 3.07 0 0 0-1.42.38 2.75 2.75 0 0 0-1.08 1.06 3 3 0 0 0-.38 1.47 2.92 2.92 0 0 0 .38 1.43 2.54 2.54 0 0 0 1.07 1.06zm-.65-3.7a2.36 2.36 0 0 1 .9-.9 2.54 2.54 0 0 1 1.18-.31 2.54 2.54 0 0 1 1.18.31 2.43 2.43 0 0 1 .9 3.31 2.19 2.19 0 0 1-.88.88 2.4 2.4 0 0 1-2.4 0 2.19 2.19 0 0 1-.88-.88 2.35 2.35 0 0 1-.33-1.19 2.38 2.38 0 0 1 .33-1.22z"/><path class="A" d="M160.25 124.1h.3a.56.56 0 0 1 .4.12.18.18 0 0 1 .07 0 2.86 2.86 0 0 1 .46.66l.28.5h.6l-.36-.6a4.18 4.18 0 0 0-.47-.62.8.8 0 0 0-.26-.16 1 1 0 0 0 .64-.29.79.79 0 0 0 .25-.6.76.76 0 0 0-.15-.45.67.67 0 0 0-.39-.29 1.8 1.8 0 0 0-.6-.09h-1.27v3.12h.5v-1.3zm0-1.36h.75a2.19 2.19 0 0 1 .31.05.36.36 0 0 1 .22.16.41.41 0 0 1 .06.25.42.42 0 0 1-.15.34.74.74 0 0 1-.44.13h-.77v-.93zm-74.66.35h4.5l-4.5-7.48-3.8-6.3-16.1 9.7 2.46 4.1zm41.76 0h21.93l-13.65-22.74-15.1-25.1-6.22 3.76-9.87 5.93 9.87 16.44zm-7.66 7.5a9.75 9.75 0 0 0-5.32-1.58h-.05a9.88 9.88 0 0 0 0 19.75h.05a9.83 9.83 0 0 0 5.32-1.58v1h4.54v-25.1h-4.54zm0 9.32a5.45 5.45 0 0 1-5.32 4.41h-.05a5.43 5.43 0 0 1 0-10.86h.05a5.44 5.44 0 0 1 5.32 4.39zm21.3-9.32a9.58 9.58 0 0 0-5.32-1.58h-.05a9.88 9.88 0 0 0 0 19.75h.05a9.78 9.78 0 0 0 5.32-1.58v1h4.54V129.5H141v1.1zm0 9.32a5.45 5.45 0 0 1-5.32 4.41h-.05a5.43 5.43 0 0 1 0-10.86h.05a5.44 5.44 0 0 1 5.32 4.39zm20.68-2.26c-.16-.08-.4-.17-.66-.27a48.38 48.38 0 0 0-5-1.28c-2-.45-3-1-3-1.76a1.55 1.55 0 0 1 .53-1.23 3.87 3.87 0 0 1 2.49-.6 3.63 3.63 0 0 1 2.61.78 3.22 3.22 0 0 1 .7 1.68h4.82a5.34 5.34 0 0 0-2.86-5.08 1.87 1.87 0 0 0-.31-.17 12.58 12.58 0 0 0-5.24-.93c-2.64 0-4.64.7-6 2.1a5.82 5.82 0 0 0-1.58 4.14 4.64 4.64 0 0 0 3 4.44 32.66 32.66 0 0 0 5.58 1.51c2 .43 3 1 3 1.83a1.55 1.55 0 0 1-.63 1.23 3.77 3.77 0 0 1-2.5.7 5.21 5.21 0 0 1-3.14-.73 2.41 2.41 0 0 1-.93-2h-5.05a5.54 5.54 0 0 0 2.91 5.13 12.2 12.2 0 0 0 6.08 1.33 11.26 11.26 0 0 0 4.46-.83l.75-.36a5.59 5.59 0 0 0 3-5.24 4.65 4.65 0 0 0-3.03-4.4zm-92.23-7.06a9.72 9.72 0 0 0-5.33-1.59h-.05a9.88 9.88 0 0 0 0 19.75h.05a9.84 9.84 0 0 0 5.33-1.58v1H74V129.5h-4.55v1.1zm0 9.32a5.45 5.45 0 0 1-5.33 4.41h-.05a5.43 5.43 0 0 1 0-10.86h.05a5.44 5.44 0 0 1 5.33 4.39zm28.33-12.38h4.94v-4.34h-4.94zm0 20.68h4.94V129h-4.94zM91 130.6a9.73 9.73 0 0 0-5.36-1.59 9.88 9.88 0 0 0 0 19.75 9.81 9.81 0 0 0 5.36-1.57v1h4.54v-25.1H91v7.5zm0 9.32a5.45 5.45 0 0 1-5.34 4.41 5.43 5.43 0 0 1 0-10.86 5.44 5.44 0 0 1 5.34 4.39v2.06zm28.7-16.82l-5.35-9-13.17-21.82-16.1 9.7.53.88 12.17 20.25z"/></svg>