<svg xmlns="http://www.w3.org/2000/svg" viewBox="0 0 219 224"><path d="M8.87 117.3l-3.87.15c.46 5.54 4.14 8.84 9.74 8.84s9.54-3.53 9.54-8.18c0-4.8-2.87-7-8.74-9a18.25 18.25 0 0 1-4.91-2 4.05 4.05 0 0 1-1.53-3.39c0-2.8 2-4.76 5.22-4.76s5.2 1.88 5.67 5.65h3.83c-.27-5.53-3.83-8.83-9.54-8.83-5.44 0-8.86 3.14-8.86 7.94a7.24 7.24 0 0 0 2.49 5.88c2 1.7 4.26 2.26 6.37 3 4 1.35 6.13 2.43 6.13 5.7 0 2.65-2.1 4.57-5.6 4.57-3.68 0-5.9-2.07-5.94-5.57zm26.27 8.43h15.22v-3.46H38.93v-9.87h11.43v-3.38H38.93v-9.18h11.43V96.4H35.14v29.34zm33-29.33H61.9v29.34h3.8v-10.1h3.18c6.13 0 10.27-4 10.27-9.57 0-5.76-4.1-9.67-11-9.67zm.58 15.74h-3v-12.3h2.4c4.68 0 7.14 2.15 7.14 6.07s-2.45 6.22-6.55 6.22zm19.6 13.6h3.8v-13.4h15.37v13.4h3.8V96.4h-3.8v12.47H92.12V96.4h-3.8v29.34zM147 99.84a15.9 15.9 0 0 0-21.16 0 16 16 0 0 0 0 22.39 14.52 14.52 0 0 0 10.61 4.08 14.5 14.5 0 0 0 10.62-4.08 16.09 16.09 0 0 0 0-22.39zm-2.73 19.9a10.62 10.62 0 0 1-7.89 3.12 10.46 10.46 0 0 1-7.82-3.12 12.85 12.85 0 0 1 0-17.35 11.44 11.44 0 0 1 15.68 0 12.79 12.79 0 0 1 0 17.35zm26.53-5.42h.2c5.26 0 8.82-3.84 8.82-9 0-5.53-3.9-8.9-11.08-8.9h-6.67v29.34h3.8v-12l10.43 12h4.8zm-4.9-2.88v-11.6h2.57c5 0 7.47 2 7.47 5.57 0 3.84-2.52 6-7.28 6zm36.75-15.04h-3.18l-11.95 29.34h4.06l2.6-6.8H208l2.6 6.8h4.4zm-7.12 19.08l4.68-11.76.88-2.72.88 2.72 4.6 11.76z" fill="#fff" fill-rule="evenodd"/></svg>