<svg xmlns="http://www.w3.org/2000/svg" viewBox="0 0 219 224"><style>.A{fill:#fff}</style><path class="A" d="M32.15 126.86a14.13 14.13 0 0 1-10.62-4.54 15 15 0 0 1-4.06-10.62 14.63 14.63 0 0 1 14.76-14.56A14.55 14.55 0 0 1 46 106.89h-7.94a7.8 7.8 0 0 0-5.91-2.79 7.62 7.62 0 0 0-7.6 7.64c0 4.42 3.48 8.16 7.6 8.16a7.37 7.37 0 0 0 6.54-3.9l.07-.12H30.5v-5.58h16.23c0 .64.07 1.25.07 1.82a14.35 14.35 0 0 1-2.45 8.37 14.78 14.78 0 0 1-12.19 6.39zm29.1-.56l-5.63-9.47v9.47h-6.88V97.7h9.47c3.18 0 5.4.26 7.23 1.57a9.14 9.14 0 0 1 3.85 8c0 4.63-2.4 8.06-6.45 9.18h-.1l7 9.84zM55.6 111h1.45c3.74 0 5.26-1 5.26-3.56 0-2.38-1.45-3.44-4.7-3.44h-2v7zm29.65 15.82a14.13 14.13 0 0 1-10.66-4.5 15 15 0 0 1-4.06-10.62 14.55 14.55 0 0 1 14.76-14.52 14.75 14.75 0 0 1 14.64 14.64 14.8 14.8 0 0 1-4.14 10.54 14.45 14.45 0 0 1-10.54 4.46zm.08-22.68a7.59 7.59 0 0 0-7.72 7.64 8 8 0 0 0 7.64 8.08c4.3 0 7.56-3.47 7.56-8.08a7.56 7.56 0 0 0-7.48-7.64zm26.94 22.6c-6.58 0-10.36-4-10.36-11.12V97.7h6.92v17.64c0 3.4 1.1 5 3.48 5s3.72-1.63 3.72-5V97.7h6.88v17.92c0 6.86-4.08 11.12-10.64 11.12z"/><path class="A" d="M122.82 97.78v17.84c0 6.8-4 11-10.55 11s-10.28-4-10.28-11V97.78h6.76v17.56c0 3.44 1.13 5 3.56 5s3.8-1.65 3.8-5V97.78h6.7m.16-.16h-7v17.72c0 3.27-1.18 4.9-3.65 4.9s-3.4-1.66-3.4-4.9V97.62h-7.08v18c0 7.2 3.92 11.2 10.43 11.2s10.7-4.16 10.7-11.2v-18zm2.13 28.68V97.7h9.47c3.18 0 5.38.26 7.23 1.57a9.18 9.18 0 0 1 3.85 8 9.59 9.59 0 0 1-4.53 8.46c-1.78 1.07-4 1.3-7 1.3H132v9.26zm7-15.33h1.37c3.74 0 5.26-1 5.26-3.56 0-2.38-1.45-3.44-4.7-3.44h-1.94v7z"/><path class="A" d="M134.56 97.78c3.17 0 5.36.26 7.18 1.55a9.1 9.1 0 0 1 3.82 8 9.53 9.53 0 0 1-4.49 8.4c-1.77 1-4 1.27-7 1.27h-2.18v9.26h-6.72V97.78h9.4M132 111.05h1.45c3.74 0 5.34-1.1 5.34-3.64s-1.47-3.52-4.77-3.52h-2v7.16m2.6-13.43H125v28.76h7v-9.26h2c3 0 5.26-.2 7.08-1.3a9.65 9.65 0 0 0 4.57-8.53 9.28 9.28 0 0 0-3.88-8.09c-1.94-1.37-4.25-1.58-7.28-1.58zm-2.43 13.27v-6.84h1.8c3.1 0 4.6 1 4.6 3.36 0 2.6-1.7 3.48-5.18 3.48zm29.26 15.93a14.11 14.11 0 0 1-10.66-4.5 14.94 14.94 0 0 1-4.06-10.62 14.55 14.55 0 0 1 14.76-14.52 14.75 14.75 0 0 1 14.64 14.64 14.8 14.8 0 0 1-4.13 10.54 14.45 14.45 0 0 1-10.54 4.46zm.08-22.68a7.59 7.59 0 0 0-7.72 7.64 8 8 0 0 0 7.64 8.08c4.3 0 7.56-3.47 7.56-8.08a7.57 7.57 0 0 0-7.48-7.64z"/><path class="A" d="M161.5 97.26a14.68 14.68 0 0 1 14.56 14.56 14.68 14.68 0 0 1-4.12 10.48 14.35 14.35 0 0 1-10.48 4.44 14 14 0 0 1-10.6-4.48 14.86 14.86 0 0 1-4-10.56 14.48 14.48 0 0 1 14.68-14.44m0 22.68c4.36 0 7.64-3.5 7.64-8.16a7.68 7.68 0 1 0-15.36 0 8.05 8.05 0 0 0 7.72 8.16m0-22.84a14.63 14.63 0 0 0-14.84 14.6 15 15 0 0 0 4.08 10.67 14.23 14.23 0 0 0 10.72 4.53 14.61 14.61 0 0 0 10.6-4.49 14.9 14.9 0 0 0 4.16-10.59A14.83 14.83 0 0 0 161.5 97.1zm0 22.7a7.87 7.87 0 0 1-7.56-8 7.52 7.52 0 1 1 15 0c0 4.7-3.36 8-7.48 8zm33.84 6.5l-10.83-16.2v16.2h-6.88V97.7h6.22l10.68 16.16V97.7h6.88v28.6z"/><path class="A" d="M201.37 97.78v28.44h-5.94l-10.96-16.43v16.38h-6.72v-28.4h6.1l10.8 16.35V97.78h6.72m.16-.16h-7v16l-10.55-16h-6.35v28.76h7v-16l10.7 16h6.2zm12.27-27.35zM196 73.82z"/></svg>