<svg xmlns="http://www.w3.org/2000/svg" xmlns:xlink="http://www.w3.org/1999/xlink" viewBox="0 0 219 224"><style>.A{fill:#fff}</style><path class="A" d="M78 120.57a1.62 1.62 0 0 1-1.63-1.63v-4.8h2.8v-6.67h-2.8v-6.62H69v6.62h-3v6.67h3v9.4a3.68 3.68 0 0 0 3.68 3.68h7.82v-6.66zm24.6-1.63v-20h-7.4v24.6a3.66 3.66 0 0 0 3.68 3.68h10.86v-6.66h-5.5a1.62 1.62 0 0 1-1.63-1.63m98.2-12.03a3.66 3.66 0 0 0-3.68 3.68v16.64h7.4v-12a1.62 1.62 0 0 1 1.63-1.63h3.92v-6.67zm-184-1.2h5.5V99H11.44a3.69 3.69 0 0 0-3.69 3.68v24.5h7.4v-10h4v-6.66h-4v-3.22a1.66 1.66 0 0 1 1.63-1.63"/><use xlink:href="#B" class="A"/><use xlink:href="#B" x="22.79" class="A"/><use xlink:href="#B" x="90.46" class="A"/><path class="A" d="M147.38 118.7a3 3 0 1 1-2.51-4.56 2.91 2.91 0 0 1 2.51 1.39l6.25-4a10.4 10.4 0 1 0 0 11.19zm59.8 6.62a1.91 1.91 0 1 1 1.91 1.91 1.89 1.89 0 0 1-1.91-1.91m3.5 0a1.63 1.63 0 1 0-1.63 1.59 1.56 1.56 0 0 0 1.63-1.59m-.7 1h-.32l-.6-1h-.37v1h-.28v-2h.9c.37 0 .74.1.74.55s-.28.56-.65.56zm-1-1.26c.23 0 .7 0 .7-.28s-.28-.23-.52-.23h-.56v.5zm-32.7 2.22l-8.72-10.63 6.95-8.4h-7.97l-3.78 4.62V99h-7.4v28.3h7.4v-6.06l.52.6 4.47 5.45h8.53zm10.5-7.46a3.38 3.38 0 0 1-3.27.47 3.57 3.57 0 0 1-1.54-1.12l13.15-2.94a11.55 11.55 0 0 0-2.15-5.5 10.75 10.75 0 0 0-7.59-4 10.49 10.49 0 0 0-11.19 10.44 10.48 10.48 0 0 0 16.82 8.29 10 10 0 0 0 2.47-2.7l-5.9-3.76a4.68 4.68 0 0 1-.79.84m-5.36-3.68a3.24 3.24 0 0 1 2.33-2.28 3.48 3.48 0 0 1 3.49 1z"/><defs><path id="B" d="M20.94 117.12a10.4 10.4 0 1 1 10.4 10.39 10.4 10.4 0 0 1-10.4-10.39m10.4 3a3 3 0 1 0-3-3 3 3 0 0 0 3 3"/></defs></svg>