<svg xmlns="http://www.w3.org/2000/svg" viewBox="0 0 219 224"><style>.A{fill:#fff;fill-rule:evenodd}</style><path class="A" d="M190.94 109.16c-4.06-2.35-7.9-4.63-7.9-8.47 0-3.5 2.84-5.27 5.7-5.27 5.48 0 9 4.63 10 9h.57L198.27 94h-.5a2 2 0 0 1-2.13 1.78 6.89 6.89 0 0 1-2.28-.57 13.46 13.46 0 0 0-5-1.21c-4.34 0-9.1 2.7-9.1 8.6 0 5 3.2 7.2 8 10 7.9 4.63 8.75 6.48 8.75 9.6s-2.28 6.2-6.7 6.2c-7.05 0-9.9-6.62-11-9.25h-.5l1.42 10.32h.5a2 2 0 0 1 2-1.71 8.38 8.38 0 0 1 2.42.64 16.27 16.27 0 0 0 5.69 1.14c7 0 10.68-4.55 10.68-9.1 0-5.63-4.84-8.47-9.6-11.25zm-136.9 2.07V111h-12.6v.22c3.34.2 4.62.42 4.62 5v8.54c0 2.28-3.9 3.5-7.54 3.5-8.55 0-14-6.26-14-15.87 0-12.53 7.05-17 13.1-17 7.33 0 10.25 5.06 11.75 9h.57L49.5 94H49a3 3 0 0 1-2.77 1.71 8.45 8.45 0 0 1-2.28-.5 21.4 21.4 0 0 0-7-1.21 17.27 17.27 0 0 0-17.58 17.3c0 6.76 1.56 9.82 4.27 12.74 3.2 3.5 8.47 5.48 14.45 5.48 5.48 0 11.9-2.77 12.4-3.42v-10.53c-.07-3.85 1.43-4.13 3.57-4.34zm102.5-2.07c-4.05-2.35-7.9-4.63-7.9-8.47 0-3.5 2.85-5.27 5.63-5.27 5.48 0 9 4.63 10 9h.72L163.9 94h-.5a2 2 0 0 1-2.14 1.78 6.84 6.84 0 0 1-2.27-.57A13.56 13.56 0 0 0 154 94c-4.4 0-9.1 2.7-9.1 8.6 0 5 3.13 7.2 8 10 7.9 4.63 8.7 6.48 8.7 9.6a6.21 6.21 0 0 1-6.62 6.19c-7.12 0-9.9-6.62-11-9.25h-.56l1.5 10.32h.5a1.94 1.94 0 0 1 1.92-1.71 7.4 7.4 0 0 1 2.42.64 17 17 0 0 0 5.69 1.14c7.05 0 10.75-4.55 10.75-9.1 0-5.63-4.9-8.47-9.6-11.25zM92 102.1c0-5.55 1-6.55 4.9-7v-.3H85.5v.3c3.63.28 4.9 1.5 4.9 7v14.17c0 4.56-.57 6.26-1.28 7.33-1.64 2.78-4.9 4.34-8.9 4.34-9.47 0-9.47-7.75-9.47-11v-16.8c0-3.84.8-4.7 4.77-5.05v-.3h-14.1v.3c3.77.28 4.7 1 4.7 5.05v16.37c0 3.2 0 13 12.6 13C92 129.52 92 119.9 92 115.85V102.1z"/><path class="A" d="M134.27 120.7h-.7c-2.35 5.27-5.12 6.84-11.74 6.84-7.76 0-8.26 0-8.26-2.56v-13.4h.44l8 .07c4.4.07 5.48.93 6.12 5.06h.5v-11.46h-.5c-.57 3.7-1.35 5-6.12 5h-8.47V98.13c0-2.14 1.06-2.14 2.13-2.14h7.12c5.9 0 7.48 1 8.33 5.55h.57l-.14-6.76h-27.1v.3c3.06.28 4.55.7 4.55 5.05v23.28c0 4.2-1.42 4.84-4.55 5v.36h27.7l2.13-8.12zm54.28-11.54c-4.05-2.35-7.9-4.63-7.9-8.47 0-3.5 2.85-5.27 5.63-5.27 5.48 0 9 4.63 10 9h.72L195.9 94h-.5a2 2 0 0 1-2.14 1.78 6.84 6.84 0 0 1-2.27-.57A13.56 13.56 0 0 0 186 94c-4.4 0-9.1 2.7-9.1 8.6 0 5 3.13 7.2 8 10 7.9 4.63 8.7 6.48 8.7 9.6a6.21 6.21 0 0 1-6.62 6.19c-7.12 0-9.9-6.62-11-9.25h-.56l1.5 10.32h.5a1.94 1.94 0 0 1 1.92-1.71 7.4 7.4 0 0 1 2.42.64 17 17 0 0 0 5.69 1.14c7.05 0 10.75-4.55 10.75-9.1 0-5.63-4.9-8.47-9.6-11.25z"/></svg>