<svg xmlns="http://www.w3.org/2000/svg" viewBox="0 0 219 224"><path d="M95.22 94.93l27.92-29.06a2.92 2.92 0 0 1 4.24 0l26.34 27.6a3.23 3.23 0 0 1 0 4.42L125.8 127 95.22 95zm25-5.16a7.28 7.28 0 0 1 10.6 0 8.08 8.08 0 0 1 0 11.07 7.28 7.28 0 0 1-10.6 0 8.08 8.08 0 0 1 .02-11.07zM99.15 123.1a7.28 7.28 0 0 1 10.6 0 8.08 8.08 0 0 1 0 11.07 7.28 7.28 0 0 1-10.6 0 8.08 8.08 0 0 1 0-11.07zm-21.93.08a7.26 7.26 0 0 1 10.59 0 8.08 8.08 0 0 1 0 11.07 7.26 7.26 0 0 1-10.59 0 8.06 8.06 0 0 1 0-11.06zm-11.93 2.9L93.2 97l30.57 32-27.92 29.13a2.92 2.92 0 0 1-4.24 0L65.28 130.5a3.23 3.23 0 0 1 0-4.42z" fill="#fff" fill-rule="evenodd"/></svg>