<svg xmlns="http://www.w3.org/2000/svg" viewBox="0 0 219 224"><style>.A{fill:#fff}</style><path class="A" d="M63.93 125.37a5.94 5.94 0 0 0 3.91-1.37c.93-.94 1.3-2.54 1.3-6.73v-15.2h6.34v16.83c0 4.22-.93 7-2.78 8.78s-4.9 2.62-8.14 2.62zm8.34-25.8a3.25 3.25 0 1 1 3.58-3.25 3.24 3.24 0 0 1-3.58 3.25zm11.5.01a3.25 3.25 0 1 1 3.58-3.25 3.24 3.24 0 0 1-3.58 3.25zm-3.15 2.5H87v19.47h-6.4zm12.44 19.46V106.8H90.5v-4.73h2.56v-.72a9.42 9.42 0 0 1 2.59-6.78 8.46 8.46 0 0 1 5.63-2 12.57 12.57 0 0 1 3.25.41l-.14 4.84a7.25 7.25 0 0 0-2.07-.29c-2.08 0-3 1.58-3 3.52v1h4.08v4.73h-4v14.75z"/><path class="A" d="M105.8 121.54V106.8h-2.57v-4.73h2.57v-.72a9.42 9.42 0 0 1 2.59-6.78 8.43 8.43 0 0 1 5.63-2 12.49 12.49 0 0 1 3.24.41l-.13 4.84a7.36 7.36 0 0 0-2.07-.29c-2.1 0-3 1.58-3 3.52v1h4.07v4.73h-4v14.75z"/><path class="A" d="M121 102.07l3.24 9.38 1.1 3.73h.15l1-3.77 2.67-9.34h6.9l-4.7 12.08c-3.4 9.08-5.46 11.94-7.7 13.7a11.34 11.34 0 0 1-6.3 2.52l-1.2-5.3a8.64 8.64 0 0 0 2.65-.85 6.91 6.91 0 0 0 2.78-2.44 1.73 1.73 0 0 0 .37-.89 2.48 2.48 0 0 0-.32-1.1l-7.72-17.74zm20.38-8.77h3.47v28.25h-3.47zM165 116.27l.15 5.27H162l-.2-3.15h-.1a7.18 7.18 0 0 1-6.37 3.58c-3 0-6.63-1.68-6.63-8.43V102.3h3.5v10.63c0 3.67 1.13 6.16 4.3 6.16a5.08 5.08 0 0 0 4.62-3.21 5.21 5.21 0 0 0 .32-1.8V102.3H165zm4.2-22.97h3.5v12.1h.08a7.08 7.08 0 0 1 6.55-3.52c4.77 0 8.14 4 8.12 9.8 0 6.9-4.37 10.3-8.65 10.3a6.94 6.94 0 0 1-6.45-3.59h-.1l-.18 3.16h-3c.1-1.32.15-3.25.15-5zm3.5 20.53a5.76 5.76 0 0 0 .13 1.27 5.41 5.41 0 0 0 5.25 4.1c3.7 0 5.85-3 5.85-7.4 0-3.87-2-7.2-5.74-7.2a5.59 5.59 0 0 0-5.3 4.3 6.38 6.38 0 0 0-.19 1.46zm20.2-1.28c.08 4.73 3.08 6.68 6.6 6.68a12.72 12.72 0 0 0 5.33-1l.6 2.5A15.49 15.49 0 0 1 199 122c-5.92 0-9.47-3.94-9.47-9.72s3.44-10.37 9.05-10.37c6.28 0 7.92 5.5 7.92 9a8.37 8.37 0 0 1-.12 1.64zm10.24-2.55c0-2.2-.9-5.66-4.8-5.66-3.58 0-5.1 3.23-5.37 5.66zM34.9 95.54l-4.22 22a3.53 3.53 0 0 1-3.69 3 3.65 3.65 0 0 1-3.57-2.54h-7.87c.46 5.44 5.46 9.7 11.46 9.7s10.55-3.68 11.43-9.42l4.33-22.74zM23.4 116.3a3.67 3.67 0 0 1 3.6-2.55h2.6l1.4-7.13h-4c-6 0-11 4.26-11.44 9.68zm17.6-2.6h3.7l-.8 3.94 9.46-7.48-6.6-7.1-.76 3.53h-3.6z"/><path class="A" d="M54.73 111.4A22.36 22.36 0 1 1 32.37 89a22.38 22.38 0 0 1 22.36 22.4M32.37 87.27A24.13 24.13 0 1 0 56.5 111.4a24.16 24.16 0 0 0-24.13-24.13m176.26 16.25h.23c.27 0 .5-.1.5-.35s-.13-.35-.5-.35h-.23zm0 1.1h-.32v-2a2.86 2.86 0 0 1 .57-.05 1 1 0 0 1 .62.15.5.5 0 0 1 .19.42.51.51 0 0 1-.39.49c.17 0 .3.2.33.5a1.67 1.67 0 0 0 .13.49h-.34a1.39 1.39 0 0 1-.13-.51.38.38 0 0 0-.44-.35h-.22zm.33-2.58a1.54 1.54 0 0 0 0 3.07 1.48 1.48 0 0 0 1.45-1.53 1.49 1.49 0 0 0-1.45-1.54zm0-.28a1.82 1.82 0 1 1-1.8 1.81 1.78 1.78 0 0 1 1.8-1.81z"/></svg>