<svg xmlns="http://www.w3.org/2000/svg" viewBox="0 0 219 224"><path d="M205.45 99.27h-5.16l-10.37 10.18V90.3H186v33.07h3.9v-9.12l3.37-3 7.5 12.16h5.2l-9.77-15.1zm-33 3c3.42 0 5.2 1.93 5.7 5.16h3.92c-.32-4.2-2.72-8.8-9-8.8-8 0-11.56 5.94-11.56 13.4 0 7 4 12.07 10.78 12.07 7.05 0 9.4-5.4 9.8-9.2h-3.92c-.7 3.7-3 5.7-5.76 5.7-5.57 0-6.58-5.1-6.58-9.26s1.6-9.07 6.63-9.07m-25.84 18.3c-5.8 0-7-6-7-9.22s1.2-9.2 7-9.2 7 6 7 9.2-1.2 9.22-7 9.22m0-21.93c-7.7 0-11.2 6.5-11.2 12.7s3.5 12.72 11.2 12.72 11.2-6.5 11.2-12.72-3.5-12.7-11.2-12.7m-17.42-6h-4v6.72h-3.27v3.36h3.27v15.9c0 2.9.88 5.15 4.88 5.15.42 0 1.57-.18 3.05-.32v-3.18h-1.43c-.83 0-2.45 0-2.45-1.9v-15.74h3.88v-3.36h-3.95zm-16.4 17.18l-4-1c-3.14-.78-4.38-1.24-4.38-3.22 0-3 3.55-3.4 4.8-3.4 5.1 0 5.67 2.53 5.7 4h3.92c0-1.2-.6-7.55-9.2-7.55-4.75 0-9.13 2.4-9.13 7.7 0 3.32 2.22 5 5.58 5.85l4.7 1.15c3.45.88 4.8 1.52 4.8 3.46 0 2.67-2.63 3.82-5.53 3.82-5.7 0-6.27-3-6.4-4.93h-4c.14 2.9.83 8.43 10.37 8.43 5.43 0 9.53-3 9.53-8 0-3.27-1.75-5.1-6.77-6.35m-22.25-6.45h-.1v-4h-3.83v24.1h4.06v-14a6.12 6.12 0 0 1 6.17-6.45h1.52v-4.22a3.05 3.05 0 0 0-1.06-.14c-3 0-5.16 1.9-6.77 4.7m-26.2 6.12c0-3.73 2.94-7.18 6.68-7.18 4.92 0 6.5 3.45 6.72 7.18zm7.23-10.82c-8 0-11.56 5.94-11.56 13.4 0 7 4 12.07 10.78 12.07 3.86 0 5.43-.92 6.54-1.66a10.39 10.39 0 0 0 4.28-6.58h-4c-.14 1.8-2.4 4.74-6.22 4.74-4.66 0-7-2.9-7-7.92H82c0-8.52-3.4-14-10.36-14m-23.9 20.26h-.1l-6.27-19.62h-4.7l8.8 24.1h4.33l9.2-24.1h-4.45zM24.2 120.5c-5.8 0-7-6-7-9.22s1.2-9.2 7-9.2 7 6 7 9.2-1.2 9.22-7 9.22m0-21.93c-7.7 0-11.2 6.5-11.2 12.7S16.5 124 24.2 124s11.2-6.5 11.2-12.72-3.5-12.7-11.2-12.7" fill="#fff"/></svg>