<svg xmlns="http://www.w3.org/2000/svg" viewBox="0 0 219 224"><path d="M161.9 91.14h3.72v13.25a6 6 0 0 1 2.44-2.21c4.4-2.16 10.76.24 10.8 6.64V123h-3.76v-14.85a9.24 9.24 0 0 0-.37-2.51 4.23 4.23 0 0 0-6.6-2.3 5.34 5.34 0 0 0-2.49 4.64V123h-3.72zm-94.06 40.13l.85-.93a7.5 7.5 0 0 0 3.18 1.55 9.26 9.26 0 0 0 6.68-.69 3.49 3.49 0 0 0 2-3.68 2.24 2.24 0 0 0-1.68-2.16c-1.06-.25-2.16-.38-3.25-.53l-4.27-.55a6.15 6.15 0 0 1-1.55-.52 3.41 3.41 0 0 1-2.15-3.48 3.55 3.55 0 0 1 2.26-3.42l.26-.13-1.74-1.4a7.05 7.05 0 0 1-2-4.07 10.1 10.1 0 0 1 .36-5 6.9 6.9 0 0 1 6.08-4.78A10.44 10.44 0 0 1 78 102a1.82 1.82 0 0 0 .62.07h5.3v1.07H80l.47.5a8.7 8.7 0 0 1 2 6.8 7.72 7.72 0 0 1-1.81 4.63 7.83 7.83 0 0 1-6 2.48c-1.28 0-2.56.12-3.83.22a2.36 2.36 0 0 0-.94.33 1.42 1.42 0 0 0-.75 1.47 1.07 1.07 0 0 0 1 1l3.48.45 5.7.6a4.72 4.72 0 0 1 2.47 1.16 5 5 0 0 1 1.52 4.56 5.89 5.89 0 0 1-3.32 4.6 11.1 11.1 0 0 1-11 .13 10.06 10.06 0 0 1-1.16-.8zm10.9-21.47l-.35-4a3.47 3.47 0 0 0-3.08-3.25 6.23 6.23 0 0 0-1.22 0 3.44 3.44 0 0 0-3.76 3 20.93 20.93 0 0 0-.08 7.77 3.33 3.33 0 0 0 2.89 3.06 8.26 8.26 0 0 0 1.65.07 3.29 3.29 0 0 0 3.49-2.8 35.13 35.13 0 0 0 .46-3.85zM61.53 123H57.8v-14.53a10.72 10.72 0 0 0-.3-2.52c-1-3.88-4.86-4.08-7-2.4a5.39 5.39 0 0 0-2.18 4.45v15h-3.74v-20.87h3.72v2.15a17 17 0 0 1 1.22-1.28c3.4-2.93 10.5-1.93 11.83 4a8.2 8.2 0 0 1 .21 1.85v13.54c.01.22-.01.4-.02.6zm122.77-20.88h3.77v14.4a7.79 7.79 0 0 0 .77 3.77 4.26 4.26 0 0 0 4.3 2.28 4.12 4.12 0 0 0 3.87-2.66 8.14 8.14 0 0 0 .57-3.28v-14.5h3.75v12.93a9.42 9.42 0 0 1-1.3 5.09 7.56 7.56 0 0 1-6.08 3.5 10.24 10.24 0 0 1-4.43-.43 7.32 7.32 0 0 1-5-6.2 16.78 16.78 0 0 1-.18-2.65V102.8zm-149.52 0h3.73v13.33a8 8 0 0 1-2.89 6.55 7.77 7.77 0 0 1-4 1.61 10.52 10.52 0 0 1-5.1-.48 7.12 7.12 0 0 1-4.66-5.82 29.29 29.29 0 0 1-.24-4.4v-10.75h3.75v14.54a7.46 7.46 0 0 0 .73 3.51 4.25 4.25 0 0 0 4.26 2.35 4.12 4.12 0 0 0 3.8-2.56 7.35 7.35 0 0 0 .62-3.1v-14.13zm63.82 4.53l-1.06-.44A6.19 6.19 0 0 1 102 102c5.35-1.3 10.14 2.14 10.17 7.92v12.63a3.62 3.62 0 0 1 0 .4h-3.6V121l-.18-.13a1.52 1.52 0 0 1-.18.36c-3 3.42-8.27 2.34-10.13.1-2.2-2.66-1.4-7.06 1.7-8.52 1.7-.8 3.53-1.25 5.3-1.87a16.88 16.88 0 0 0 1.6-.58c1.58-.68 2.37-1.66 2.12-3.9A3.79 3.79 0 0 0 105 103c-1.9-.15-3.68.1-5 1.6a15.8 15.8 0 0 0-1.4 2.04zm9.86 4.36c-.84.34-1.63.7-2.44 1-1 .36-2 .6-3 1a3.54 3.54 0 0 0-2.32 2.88 10.23 10.23 0 0 0 .06 3.86 2.87 2.87 0 0 0 2.39 2.52 4.86 4.86 0 0 0 5.32-4.41c.06-2.3-.01-4.6-.01-6.86zm-16.54 12h-3.75v-31.3c0-.47.13-.6.6-.6h2.72c.37 0 .5.12.48.5s0 .6 0 .9V123zm54.35-18.7a4.85 4.85 0 0 0-.56-.44 7.4 7.4 0 0 0-7.29.06 3.18 3.18 0 0 0-1.69 3.53 2.24 2.24 0 0 0 1.38 1.66 33.18 33.18 0 0 0 3.41 1c1.54.4 3.15.58 4.64 1.1 2.9 1 4.06 2.94 3.94 6a6.44 6.44 0 0 1-4.57 5.94 8.75 8.75 0 0 1-9-1.43l-.45-.35.92-.92.46.38a7.51 7.51 0 0 0 8.42.77 3.56 3.56 0 0 0 .09-6.17 11 11 0 0 0-4.08-1.3 25.19 25.19 0 0 1-3.55-.87c-2.62-1-3.62-3-3.38-5.57a6.38 6.38 0 0 1 6.46-5.93 8.71 8.71 0 0 1 6.08 1.81 4.05 4.05 0 0 1 1.49 2.22 2.12 2.12 0 1 1-3.24-1.18l.52-.32zM4 120.36a6.94 6.94 0 0 0 3.72 2 7.34 7.34 0 0 0 5.16-.73 3.56 3.56 0 0 0 0-6.31A12.45 12.45 0 0 0 9 114.15a22.69 22.69 0 0 1-4-1.09c-2.23-.94-3-2.84-2.9-5.2.18-3.64 3.06-6 6.8-6.08a8.51 8.51 0 0 1 5.59 1.68 4.27 4.27 0 0 1 1.67 2.4 2.12 2.12 0 1 1-3.26-1.24c.14-.1.3-.2.53-.34a7.09 7.09 0 0 0-1-.62 7.62 7.62 0 0 0-6.64.09 3.39 3.39 0 0 0-2 3.39 2.57 2.57 0 0 0 1.43 2 11.83 11.83 0 0 0 4 1 16.59 16.59 0 0 1 4.78 1.39 5.3 5.3 0 0 1 3.08 4.59c.45 4.74-3.16 7-6.25 7.5a8.56 8.56 0 0 1-7.47-2.07l-.2-.2a4.48 4.48 0 0 0 .42-.46 5.28 5.28 0 0 0 .41-.55zm113.55 1.02l.94-.9.48.4a7.12 7.12 0 0 0 7.75 1 3.74 3.74 0 0 0 2.33-4.46 3.21 3.21 0 0 0-2.24-2.37c-1.34-.43-2.75-.66-4.12-1a25.35 25.35 0 0 1-3-.82c-2.5-1-3.47-2.93-3.23-5.5a6.38 6.38 0 0 1 6.5-5.93 9 9 0 0 1 5.62 1.48 4.48 4.48 0 0 1 1.9 2.49 2.13 2.13 0 0 1-1.32 2.63 2.11 2.11 0 0 1-2.64-1.1 2.13 2.13 0 0 1 .89-2.77l.32-.2a4 4 0 0 0-2-1 7.31 7.31 0 0 0-5.68.55 3.28 3.28 0 0 0-1.84 3.56 2.5 2.5 0 0 0 1.8 1.94 30.39 30.39 0 0 0 3.66.86 17.73 17.73 0 0 1 4.84 1.37 5.35 5.35 0 0 1 3.06 4.76c.35 4.33-2.94 6.8-6.3 7.33a8.58 8.58 0 0 1-7.23-1.89c-.17-.2-.3-.3-.5-.45zm87.98-18.18v-1.1h2.33v-7.88h3.74v7.84h4.93v1.1h-4.9v13.37a14.35 14.35 0 0 0 .32 3c.46 2 1.86 2.86 4.1 2.6.88-.1.9-.1.93.88a6.41 6.41 0 0 1-8.81-4.79 15.24 15.24 0 0 1-.29-2.86V103.2z" fill="#fff"/></svg>