<svg xmlns="http://www.w3.org/2000/svg" viewBox="0 0 219 224"><path d="M14.94 98.27l5.38 22.1c.86 3.6 2.42 4.93 6.9 4l2.9-11.78 1.7-8h.1a76 76 0 0 0 1.41 8l1.78 8.16c.6 2.8 2.3 4.58 6.68 3.62l6.9-26.13h-5.6l-2.35 11.3-1.65 8.86H39l-1.56-8.65L35 98.27h-5.8l-2.6 11.23-1.88 9.07h-.08l-1.7-9.5-2.1-10.8zm53.12 0v26.12h5.3V98.27zm74.7 0v19.27c0 2.66.5 4.52 1.57 5.66a5.88 5.88 0 0 0 4.32 1.64 12.57 12.57 0 0 0 3.83-.57l-.06-4.15a7.8 7.8 0 0 1-2 .24c-1.8 0-2.4-1.15-2.4-3.54v-7.37h4.62v-5H148v-6.18zm-86.57 6.06a15.17 15.17 0 0 0-7.34 1.75l1 3.57a10.75 10.75 0 0 1 5.35-1.5c3.26 0 3.8 1.84 3.8 3v.28c-7.1 0-11.6 2.44-11.6 7.45a5.92 5.92 0 0 0 6.26 5.93 7.13 7.13 0 0 0 5.71-2.54h.12s.8 3.4 5.28 2.1a29.11 29.11 0 0 1-.31-4.72v-7c0-4.45-1.9-8.36-8.32-8.36zm31.73 0a6.15 6.15 0 0 0-5.71 3.11h-.08v-2.67h-5.06v19.63h5.33v-11.5a4.6 4.6 0 0 1 .25-1.61 3.6 3.6 0 0 1 3.24-2.51c2.15 0 3.16 1.8 3.16 4.44v11.18h5.33v-11.64a5.46 5.46 0 0 1 .22-1.59 3.36 3.36 0 0 1 3.2-2.39c2.18 0 3.23 1.78 3.23 4.87v10.75h5.33v-11.55c0-6.1-3.1-8.5-6.6-8.5a7.14 7.14 0 0 0-3.87 1.06 8.27 8.27 0 0 0-2.49 2.45h-.08a5.58 5.58 0 0 0-5.41-3.51zm29.3 0a15.14 15.14 0 0 0-7.34 1.75l1 3.57a10.81 10.81 0 0 1 5.35-1.5c3.26 0 3.8 1.84 3.8 3v.28c-7.1 0-11.6 2.44-11.6 7.45a5.91 5.91 0 0 0 6.26 5.93 7.13 7.13 0 0 0 5.71-2.54h.12s.8 3.4 5.28 2.1a28 28 0 0 1-.31-4.72v-7c0-4.45-1.9-8.36-8.32-8.36zm22.14 0a5.79 5.79 0 0 0-5.34 4.14h-.15v-3.7h-4.8v19.62h5.48v-10a7.08 7.08 0 0 1 .12-1.45 4.12 4.12 0 0 1 4.32-3.45 10.08 10.08 0 0 1 1.58.14v-5.14a5.44 5.44 0 0 0-1.21-.12zm-80.14 10.6v2.44a3.47 3.47 0 0 1-3.71 3.62 2.43 2.43 0 0 1-2.64-2.6c0-2.7 3-3.44 6.35-3.42zm61 0v2.44a4.13 4.13 0 0 1-.13 1.07 3.73 3.73 0 0 1-3.58 2.51 2.43 2.43 0 0 1-2.64-2.6c0-2.7 3-3.44 6.35-3.42zm61.08-26.1c-1.7 0-3.07 1-3.07 2.13l1 11.77a1.91 1.91 0 0 0 2 1.26 1.93 1.93 0 0 0 2-1.26l1-11.77c0-1.17-1.36-2.13-3.08-2.13zm-17 9.45a3.3 3.3 0 0 0-2.54 1.81c-.86 1.48-.7 3.14.3 3.72l10.72 5a1.93 1.93 0 0 0 2.1-1.13 1.93 1.93 0 0 0-.07-2.4l-9.68-6.78a1.49 1.49 0 0 0-.83-.21zm33.9 0a1.49 1.49 0 0 0-.83.21l-9.68 6.78a1.93 1.93 0 0 0-.07 2.4 1.92 1.92 0 0 0 2.1 1.13l10.73-5c1-.58 1.15-2.24.3-3.72a3.33 3.33 0 0 0-2.55-1.81zm-25 15.54a1.05 1.05 0 0 0-.4.07l-10.72 5c-1 .58-1.16 2.24-.3 3.73s2.37 2.18 3.37 1.6l9.68-6.78a1.93 1.93 0 0 0 .07-2.4 2.2 2.2 0 0 0-1.71-1.2zm16.15 0a2.2 2.2 0 0 0-1.71 1.2 1.94 1.94 0 0 0 .07 2.4l9.68 6.78c1 .58 2.52-.12 3.38-1.6s.7-3.15-.3-3.73l-10.72-5a1.09 1.09 0 0 0-.4-.07zm-8.08 4.88a1.92 1.92 0 0 0-2 1.25l-1 11.78c0 1.17 1.36 2.12 3.07 2.12s3.08-1 3.08-2.12l-1-11.78a1.94 1.94 0 0 0-2-1.25z" fill="#fff"/></svg>