<svg xmlns="http://www.w3.org/2000/svg" viewBox="0 0 3804.45 3894.72"><style>.A{fill:none}.B{fill:#231f20}.F{stroke:#383838;stroke-miterlimit:10;stroke-width:9px;fill:#fff}.L{fill:url(#B)}.M{fill:#474747}</style><defs><clipPath id="A"><circle class="A" cx="1799.29" cy="5957.42" r="1648.36"/></clipPath><pattern id="B" width="48" height="48" patternUnits="userSpaceOnUse"><path d="M0 0h48v48H0z" class="A"/><circle class="B" cx="24" cy="48" r="3.6"/><circle class="B" cx="48" cy="48" r="3.6"/><circle class="B" cx="24" cy="24" r="3.6"/><circle class="B" cx="48" cy="24" r="3.6"/><circle class="B" cx="36" cy="36" r="3.6"/><circle class="B" cx="12" cy="36" r="3.6"/><circle class="B" cx="36" cy="12" r="3.6"/><circle class="B" cx="12" cy="12" r="3.6"/><circle class="B" cy="48" r="3.6"/><circle class="B" cy="24" r="3.6"/><circle class="B" cx="24" r="3.6"/><circle class="B" cx="48" r="3.6"/><circle class="B" r="3.6"/></pattern></defs><g clip-path="url(#A)" stroke-width="9" stroke-miterlimit="10" stroke="#383838" fill="none"><path d="M2957.13 6146.2l267.3-2259"/></g><circle cx="1720.52" cy="2007.4" r="1603.07" fill="#f4f4f4"/><path class="F" d="M660.94 2974.8c-51.77 19.5-107-12-121.75-67.18C317 2076.1 780.65 1154.47 1629.6 857.72c849.8-297 1747.8 66.26 2075.45 858.06 21.74 52.55-2.08 113.8-53.85 133.3z"/><path d="M694.38 2881.84c-47.17 17.76-73.3-20.3-85.1-71C433.52 2055.5 904.85 1203.12 1655.6 921.56c670.6-251.5 1626-1.66 1945.07 762.52 20 47.86 49.9 84.28 2.72 102z" fill="#3f3f3f" stroke="#2b2b2b" stroke-width="9" stroke-miterlimit="10"/><path d="M897 2164.33c-11.54-8.07-140.94-260.25 76.1-399.86l113.35-60.66c73.54-31.37 123.8-110.44 159.57-180l54.82-106.7c38.07-74.1 51.3-111.73 128.42-146.9l44.5-15.16c13.9-5.23 65.83-8.27 80.08-6.33 36.63 5 55.8 7.62 86.27 14.76l38.45 5c77.8.07 136.63-27.4 198.05-78l46.8-38.54c60.35-49.7 131-143.6 207.46-144.44l19.6-.2c51.72 10.86 89.32 32.5 132.54 54.54l69.14 35.26c59.25 30.2 128.7 39.85 197.46 27.43l48.47-8.75c57.74-10.43 139.67-14.18 192.26 5.86l14.25 5.46c59.5 22.68 101.23 50 127.74 107.7l78.73 170.9z" fill="#aaa" stroke-width="12" stroke="#000" stroke-miterlimit="10"/><path class="F" d="M3611.32 1788.48c-106-246.55-300-372-539.9-469.9l-44.83-115.3c-32.27-72.87-70.54-113.65-137.4-145.06l-16-7.56c-59.08-27.76-149.28-27.75-212.43-18.13l-53 8.1c-75.23 11.45-152.35-4.4-219.3-45.1L2310.28 948c-48.84-29.68-103.37-46.3-158.94-48.48l-21.6-.84c-84.37-3.3-147.5 82.34-211.48 140.38l-49.63 45c-65.1 59-128.6 89.7-214.42 85.2l-42.7-8.43c-34-10.55-55.3-14.9-96-23.12-15.83-3.2-54.2-.14-70.2 3.33l-27.64 8.63c-85.44 37-134.36 92.44-172.48 181.9l-54.88 128.8c-35.8 84.06-93 161.77-172.46 196.4L896 1725.37c-180 124.33-123.18 353.87-82.4 455.92-122.3 243.07-179 456.66-125.06 709.95"/><path d="M1814.78 1344c360.72-135.6 813.54-193.56 1180.16-57.74l-19-54.63c-32.1-61.72-67.36-94.1-128.9-119.36l-14.75-6.07c-54.38-22.3-138.54-19.7-197.7-9.52l-49.7 8.52c-70.47 12.13-142 .64-203.42-32.67l-71.66-38.85c-44.8-24.3-83.8-48.07-137.15-60.56l-20.12-.1c-78.63-.4-149.64 98.77-210.85 150.88l-47.47 40.4c-62.3 53-122.32 81.4-202.27 80l-39.62-6.07c-31.42-8.13-51.2-11.3-88.9-17.23-14.68-2.3-68 .06-82.2 5.42l-45.5 15.45c-78.7 36.28-91.66 76.27-129.56 154.83l-54.56 113.14c-35.6 73.8-86 157.47-161 189.76L975 1762.52c-205.8 135.68-133.46 302-108.52 341.8 193.36-329.88 563.1-615.53 948.3-760.33z" fill="#a1e5bd" stroke="#474747" stroke-width="9" stroke-miterlimit="10"/><path d="M754.63 2850.2c-125.52-466.64 368.92-1166.85 1080.63-1435.52 672.53-253.88 1452.06-102.4 1699.37 386.08z" stroke="#000" fill="#fff" stroke-width="9" stroke-miterlimit="10"/><path d="M2042.07 2143.62l-15.25-46.52q-41.68 8.33-75.38-6.62-29-12.83-47.94-42.49a9.53 9.53 0 0 1 4.59-14l37.13-13.54a8.68 8.68 0 0 1 9.73 2.77q30.43 37 81.84 18.27 27.33-10 39-28.31t4.35-40.7q-5.68-17.32-19.62-24.14t-39.35-3.79l-56.92 5.74q-83.6 8.6-106.51-61.28-12.65-38.57 3.29-74.11t55.4-54.32l-13.61-41.49a9.5 9.5 0 0 1 5.56-11.9l31.33-11.43a8.79 8.79 0 0 1 11.34 5.74l14.53 44.28q67.13-9 105.83 47a9.54 9.54 0 0 1-4.39 14.27l-35.14 12.82a8.71 8.71 0 0 1-9.64-2.65 60.78 60.78 0 0 0-29.22-18.85q-20.64-6.22-46.91 3.35-24.64 9-35.26 26.94t-4 38.08q10.64 32.41 54.85 28.18l58-6.13q40.44-4.74 69.31 11t40.61 51.53q13 39.69-2 73.62t-52.61 54.55l15.26 46.52a9.5 9.5 0 0 1-5.56 11.9l-31.33 11.43a8.79 8.79 0 0 1-11.31-5.72z" fill="#ff5757" stroke="#474747" stroke-width="9" stroke-miterlimit="10"/><ellipse class="L" cx="1631.97" cy="3061.23" rx="895.3" ry="30.72"/><ellipse class="M" cx="2405.78" cy="1519.12" rx="9.61" ry="9.19" transform="rotate(-85.62 2405.851 1519.1)"/><ellipse class="M" cx="3077.59" cy="1704.77" rx="12.29" ry="11.75" transform="matrix(.08 -1 1 .08 1142.86 4643.25)"/><ellipse class="M" cx="1390.2" cy="1997.07" rx="12.29" ry="11.75" transform="matrix(.08 -1 1 .08 -707.17 3230.77)"/><ellipse class="M" cx="1011.72" cy="2566.55" rx="12.29" ry="11.75" transform="rotate(-85.62 1011.786 2566.581)"/><ellipse class="M" cx="1572.17" cy="2274.42" rx="12.29" ry="11.75" transform="rotate(-85.62 1572.247 2274.436)"/><ellipse class="M" cx="2570.09" cy="1866.99" rx="12.29" ry="11.75" transform="rotate(-85.62 2570.172 1866.978)"/><path class="L" d="M1363.84 1688s-427.32 423.05-389.57 893.05l8.5 183.46-225.87 85S564.88 2276.24 1363.84 1688z"/></svg>