<svg xmlns="http://www.w3.org/2000/svg" viewBox="0 0 127 33"><path d="M32.1 32.9c-2.2-.3-4.1-1.3-5.6-2.7-1.2-1.2-2-2.5-2.6-4.4-.9-2.8-.9-6.5.1-9.3.9-2.7 2.9-5.1 5.3-6.3 3.4-1.7 8.1-1.6 11.2.3 2.8 1.7 4.5 4.6 5 8.6.1 1.2.1 3.8-.2 4.9-.9 4.4-3.6 7.5-7.6 8.6-.4.1-1.1.3-1.5.3-.8.1-3.3.1-4.1 0zm3.3-1.7c.6-.2 1.4-.9 1.9-1.7.9-1.7 1.3-4.1 1.3-8.1 0-4.9-.8-8-2.4-9.7-.7-.7-1.2-.9-2-.9-1.9 0-3.2 2-3.6 6-.2 1.8-.2 6.2 0 7.8.6 4.9 2.3 7.3 4.8 6.6zM71 32.9c-.9-.1-3.6-.5-4.6-.8l-.7-.1.1-3.5c.1-8.5.1-13.2.1-17.8-.1-4.4-.1-4.9-.3-5.6-.2-.8-.5-1.4-.9-1.7-.1-.1-.5-.3-.9-.3-1.1-.3-1.1-.2-1.1-.7 0-.3 0-.5.1-.6.1-.1 9.3-1.8 9.6-1.8.1 0 .1 1.2.1 5.3v5.3s.4-.1.8-.3c1.2-.5 2.2-.8 3.8-.8 1 0 1.5 0 2.1.1 3.5.7 6.1 3.6 7 7.7.2 1.1.3 3.8.2 5.1-.4 1-.7 2.6-1.1 3.6-1.5 3.8-4.7 6.3-8.9 6.9-1 .1-4.1.1-5.4 0zm3.6-1.8c.7-.1 1.2-.4 1.7-.9 1.4-1.2 2.4-3.8 2.8-7 .2-1.3.1-4.2 0-5.3-.5-2.9-1.6-4.8-3.1-5.6-.7-.3-.8-.3-1.5-.3-.5 0-1 .1-1.4.2l-.6.2v3.3c-.1 4.2.1 14.9.2 15.2.1.2.2.2.5.3.8 0 .9 0 1.4-.1zM97 32.9c-4.5-.8-7.7-4-8.7-8.7-.1-.6-.2-1.3-.2-2.6-.1-2.1.1-3.4.6-4.9 1-3.1 2.9-5.2 5.5-6.5 2.8-1.4 6.6-1.5 9.1-.2 2.8 1.4 4.4 4.2 4.9 8.3.1.5.1 1.2.1 1.5v.5H94.9v.8c.1 1.8.5 3.5 1.2 4.9.3.6.6 1 1.2 1.6 1.4 1.5 2.9 2 5.2 2 1.6 0 2.8-.3 4.1-1.1.3-.2.7-.4.8-.4.2 0 .6.6.6.8 0 .4-1.3 1.7-2.6 2.5-1 .7-2.7 1.3-4.1 1.6-1.1.1-3.3 0-4.3-.1zm2.8-14.8l1.6-.1-.1-1.1c-.2-4-1.2-6.1-2.7-6.1-1.7 0-3.1 2.2-3.6 5.9-.1.5-.1 1-.1 1.2v.4h1.7c.9-.2 2.3-.2 3.2-.2zM115.1 33c-1.6-.2-4.2-.7-5-1.1l-.4-.2-.1-2.1c0-1.1-.1-2.7-.1-3.4v-1.3l.2-.1c.1-.1.4-.1.6-.1h.4l.3.8c1.2 3 2.6 4.6 4.5 5.1.7.2 2 .2 2.6 0 1.5-.5 2.3-1.6 2.3-3.2 0-1.8-1-2.7-4.7-4.2-2.3-.9-3.1-1.4-4.1-2.4-1-1.1-1.5-2.3-1.6-4-.1-2.1.5-3.8 1.9-5.3s3.3-2.3 5.8-2.5c2.2-.2 5.6.3 7.4 1l.3.1.1 1.8c0 1 .1 2.4.1 3v1.2l-.4.2c-.7.3-.7.2-1.1-.8-1.1-2.9-2.3-4.2-4.3-4.6-1.2-.3-2.2 0-2.9.8-.6.6-.8 1.1-.8 2-.1 1 .1 1.5.7 2.2.7.8 1.9 1.5 4.3 2.5 2.9 1.2 4.3 2.3 5.1 3.8.5 1 .6 1.8.6 3.3 0 1.1-.1 1.4-.3 2.1-.8 2.5-2.8 4.1-5.7 4.9-1 .3-1.1.3-3.1.3-1.4.2-2.4.2-2.6.2zM1 32.4c-.1 0-.1-.3-.1-.7 0-.8 0-.7 1.4-1 1.1-.2 1.5-.4 2-1.1 1-1.3 1.2-3.7 1.2-13.6 0-9.3-.2-11.3-1.2-12.7-.4-.6-1.2-1-2.4-1.1l-1-.1V.7l.3-.1h25.3l.1.4c0 .2.1 2.2.1 4.6l.1 4.2-.8.1c-1 .3-1 .3-1.4-.9-1.1-2.8-2.3-4.5-4-5.3-1.2-.6-1.7-.6-5-.6h-2.8v.5c-.1.9-.2 6.6-.2 9.3v2.7h.8c.5 0 1.4 0 2-.1 1-.1 1.3-.1 1.7-.3 1-.5 1.7-1.5 2.1-3.2l.2-.9h1.4V22h-1.4l-.2-.9c-.4-1.6-1.1-2.8-2.1-3.2-.4-.2-1.5-.3-3.6-.4h-1v2c0 2.2.1 5.3.3 6.9.2 2.3.8 3.5 1.8 4 .2.1.8.2 1.4.3.6.1 1.1.2 1.2.2.2.1.2 1.3 0 1.4-.1.2-16 .2-16.2.1zm57.9-.7v-.5l-.7-.1c-1.6-.1-2.1-.3-2.5-.9-.6-.9-.8-2.5-.8-9.2v-5.2l.2-.2c.3-.3 1.2-.7 1.8-.9 1.3-.3 2.9 0 4.2.6.4.2.7.3.7.3S63.9 10 64 9.8c0-.1-.1-.2-.4-.3-.8-.3-1.4-.4-2.2-.4-2.2.1-4.2 1.6-5.7 4.3-.2.4-.5.8-.5.8-.1 0-.1-.5-.1-2.5l.1-2.5-.2.1c-.1 0-1.9.4-4 .8-4.5.9-5.1 1-5.2 1.1 0 0-.1.2-.1.4 0 .3 0 .3 1 .5 1.4.2 1.9.9 2.1 2.9.3 2.6.2 12.8-.2 14.2-.2.7-.6 1.4-1 1.6-.2.1-.6.2-1.1.3l-.8.2v1H59c-.1-.1-.1-.6-.1-.6z" fill="#464646"/></svg>