<svg xmlns="http://www.w3.org/2000/svg" viewBox="0 0 150 18"><path d="M19.5 17.3H25L27.9.6h-5.5l-1.1 6h-4.7l1.1-6h-5.5L9.3 17.3h5.5l1.1-6.2h4.7l-1.1 6.2zM31 .6l-1.7 9.3c-.1.7-.2 1.4-.2 2.1 0 4.9 4.3 5.7 6.9 5.7 5.4 0 7.8-1.8 8.6-6.7L46.4.6H41l-1.6 8.7c-.5 2.7-.8 4.2-2.9 4.2-1.3 0-2-.7-2-2.2 0-.6.1-1.2.2-2.1L36.3.6H31zm44.3 16.7h5.5l.8-4.3h2.6c4.8 0 7.4-2.6 7.4-7.2 0-3.3-2.3-5.2-6.3-5.2h-7l-3 16.7zm8.5-8.4h-1.6l.8-4h1.5c1.2 0 1.8.6 1.8 1.7 0 1.4-.9 2.3-2.5 2.3zM102.1.2c-5.9 0-9.5 3.8-9.5 10.3 0 4.5 2.8 7.2 7.6 7.2 5.9 0 9.5-3.8 9.5-10.3 0-4.5-2.8-7.2-7.6-7.2zm-1.6 13.1c-1.4 0-2.2-1-2.2-2.7 0-.6.1-1.2.2-1.8.4-2.2 1.1-4.2 3.3-4.2 1.4 0 2.2 1 2.2 2.7 0 .6-.1 1.2-.2 1.8-.4 2.2-1.1 4.2-3.3 4.2zm28.2 4h5.5L136.3 5h4.1l.8-4.5h-14l-.8 4.5h4.4l-2.1 12.3zm-9.1-10.6c-1.7-.5-2.4-.8-2.4-1.6 0-.5.4-1.2 1.4-1.2.8 0 1.4.4 1.7 1.1l4.8-1.3c-.6-2.4-2.6-3.6-6.1-3.6-6.6 0-7.1 4.4-7.1 5.8 0 2.7 1.5 4.4 4.6 5.3.8.2 1.8.5 1.8 1.4 0 .7-.5 1.2-1.5 1.2-.8 0-1.8-.5-2.1-1.4l-4.8 1.3c.5 2.5 2.9 3.9 6.5 3.9 2.8 0 7.5-.7 7.5-5.8.1-2.5-1.4-4.2-4.3-5.1zM6.3 17.3L9.2.6h-9v16.7h6.1zM143.5.6l-2.9 16.7h9V.6h-6.1zM53 12.4h4.6l.7-4.2h-4.6l.6-3.2h6.4l.8-4.5H49.6l-2.9 16.7h5.5l.8-4.8zm14.3 0h4.6l.7-4.2H68l.6-3.2H75l.8-4.5H63.9L61 17.3h5.5l.8-4.9z" fill="#464646"/></svg>