<svg xmlns="http://www.w3.org/2000/svg" viewBox="0 0 478.1 478.1"><path d="M239.1 0C107.1 0 0 107.1 0 239.1s107.1 239.1 239.1 239.1 239.1-107.1 239.1-239.1C478.1 107.1 371 0 239.1 0zm105.1 325.1S306 363.3 239 363.3s-105.2-38.2-105.2-38.2V306S172 344.2 239 344.2 344.2 306 344.2 306v19.1zM436 143.4c-9.6 3.8-13.4 11.5-13.4 11.5l-9.6 36.3c-7.6 28.7-24.9 32.5-24.9 32.5s-23 5.7-47.8 5.7-40.2-1.9-57.4-7.6c-17.2-7.6-23-28.7-23-28.7s-7.6-17.2-13.4-34.4c0-1.9-3.8-3.8-5.7-5.7-1.9 1.9-5.7 1.9-5.7 5.7-5.7 17.2-13.4 34.4-13.4 34.4s-7.7 21-23 28.7c-17.2 7.6-32.5 7.6-57.4 7.6s-47.8-5.7-47.8-5.7-21-3.8-28.7-32.5l-9.6-36.3s-3.8-7.6-13.4-11.5c-3.8 0-3.8-22.9 1.9-24.9 44-7.7 130.1-7.7 191.2 7.7h7.6c61.2-15.3 147.3-15.3 191.3-7.7 6.1 2 8 24.9 2.2 24.9z" fill="#3edb95"/></svg>