<svg xmlns="http://www.w3.org/2000/svg" viewBox="0 0 478.1 478.1"><path d="M153 210.4c21 0 38.2-17.2 38.2-38.2S174 133.9 153 133.9s-38.2 17.2-38.2 38.2 17.2 38.3 38.2 38.3zm0-57.4c11.5 0 19.1 7.6 19.1 19.1s-7.6 19.1-19.1 19.1-19.1-7.6-19.1-19.1S141.5 153 153 153zM239.1 0C107.1 0 0 107.1 0 239.1s107.1 239.1 239.1 239.1 239.1-107.1 239.1-239.1C478.1 107.1 371 0 239.1 0zm86 153c11.5 0 19.1 7.6 19.1 19.1s-7.6 19.1-19.1 19.1-19.1-7.6-19.1-19.1 7.6-19.1 19.1-19.1zM153 114.8c32.5 0 57.4 24.9 57.4 57.4s-24.9 57.4-57.4 57.4-57.4-24.9-57.4-57.4 24.9-57.4 57.4-57.4zm149.2 246.7c-36.3-1.9-55.5-24.9-63.1-40.2-7.6 15.3-26.8 38.2-63.1 40.2-51.6 1.9-99.4-45.9-99.4-63.1 19.1 21 53.6 23 70.8 15.3 26.8-13.4 22.9-38.2 42.1-55.5 11.5-9.6 26.8-9.6 40.2 0 1.9 1.9 5.7 3.8 7.6 7.6 1.9-1.9 3.8-5.7 7.6-7.6 13.4-9.6 30.6-9.6 40.2 0 19.1 17.2 15.3 42.1 42.1 55.5 19.1 9.6 51.6 7.6 70.8-15.3 3.6 17.2-44.2 65-95.8 63.1z" fill="#ff595e"/></svg>