<svg xmlns="http://www.w3.org/2000/svg" id="Layer_1" x="0" y="0" width="300" height="203.8" xml:space="preserve"><style>.st0{fill-rule:evenodd;clip-rule:evenodd}</style><path class="st0" d="M160.4.5c-16.2 1.2-27.6 6.5-33.9 15.8-3.8 5.6 1.3 15.2 1.9 16.2l.1.2.3.5c-.3.5-2.8 1.4-4.6 2.1-5.5 2.1-13.8 5.2-18.4 13.8-6.1 11.5-4.3 22.5 5.1 31 10.9 9.9 28.5 11.6 38 11.7 8.4.1 18.9.3 32.9-9.2 11.4-7.7 17.2-19 17.2-27.2 0-1.7-.2-3.2-.7-4.6l-.2-.4c.5-.8 1.2-1.8 1.2-1.8.2-.3.5-1.1.5-1.1 0-.1.3-2 .3-2 0-.1-1-3.3-1-3.3-.1-.1-.3-.5-.3-.5-1.1-1.4-2.6-2.3-4.3-2.9.1 0 .3-.1.3-.1l1.4-.6c.2-.1 1.9-1.2 1.9-1.2.2-.1 4.6-3.6 4.6-3.6l1.7-2.2c.1-.1.5-.8.5-.8l.9-.8 2.6-2.5 1.3-1.9c.1-.1.4-2.4.4-2.4 0-.1-.4-1.2-.4-1.2l-.1-.4-.2-.1-.6-.6s-.7-.3-.8-.3c.4-.6.6-1.3.6-1.9 0-.7-.3-1.4-.8-2-.2-.2-.6-.2-.9-.4.2-.1.5-.2.5-.2l.6-.4.2-.1.5-.7.4-1.1-.1-.9-.2-.7-.3-.4-.8-.9c-.3-.2-.7-.4-.7-.4l-.3-.2-.7-.1h-.7l-1.1.3-.6.5h-.6l-1.3.1c-.1 0-2 .7-2 .7l-.4.2-1.5.4h-1.6c-.3-1.1-.6-2.3-.6-2.3-3.5-8.3-13.1-10.8-35.2-9.1m46.3 22.7z"/><path d="M187.3 60.1c.1-.5 0-1 .3-1.4 0-.2-.1-.5-.1-.7.5-.2.7-.1 1 .4.4 1.6-.2 3.6-.9 5 0 .2 0 .2.1.3-1 1.7-3.6 3.2-5.2 1.7.1-.4-.3-.5-.3-.7.5-.6 1.4-.5 2.1-.9 1.4-.9 2.3-2.2 3-3.7m-3.6-12.2c1.4-.2 2.6-1 4-1.2 0 .3.5-.1.6.3v.3h-.4c-.6.6-1.1 1.2-2 1.3-.2 0-.1.1-.3.2-4 1.3-6.8 4.7-8.6 8.2 0 .2 0 .3.2.3 2.6-2.4 5.4-4.2 8.4-5.8 0 .2 0 .2.1.3-2.5 2.7-5.9 4.6-8.4 7.3-.9.1-2.1.8-2.6-.2-.3-2 .6-4.1 2.1-5.5 1.9-2.2 4.3-4.1 6.9-5.5m-14.8 4.9c.4-.2.5-.1.9-.3.8-.4 1.4-.9 2.2-1.3 1.3-.6 2.6-.9 4-1.2.4-.1.8-.3 1.1 0 .1.1.2.4.1.5-.1.1-.7-.1-.7.1-.1.3-.2.2-.5.4-.4.3-1.3.3-1.7.6-2.1 1.1-3.8 2.6-5.8 3.9-.5.4-1.2.7-1.3 1.4 0 .2 0 .3-.1.5-1.6 2.7-3.3 5.5-4.4 8.3-.1.2.1.4.2.3 1.3-1.3 1.9-3.2 3.6-4.2.3-.2.4.5.3.8-.5 1.6-2.1 2.8-3.4 4.1-.4.4-2.2 1.6-2.4.8-1.3-3.7.8-7.6 2.8-10.7 1.3-1.5 3.1-3 5.1-4m-7.7 4.2c.2 0 .4.2.2.3-.8.4-1.5.5-2.2 1.3-.1.2-.3.1-.5.2-.6.4-.8 1.1-1.4 1.5-.2.1-.3.1-.5.2-1.3 1.2-2.5 2.2-3.5 3.8-.6 1-.9 2.1-1.4 3-.1.2.1.7.2.5.9-1 1.7-2 2.7-2.9.1-.1.3.1.2.3-.3 1.4-1.5 2.6-2 3.8-.1.2-.1.3-.1.5 0 .4-.8.4-.8.8 0 .2 0 .3-.1.5-.4.7-1.6 1.4-2.5 1.3-.7-.1-.7-.6-.9-1.1-.5-1.8 0-3.8.5-5.5.4-1.3 1.3-2.4 2.2-3.5 2.9-2.1 5.9-4.6 9.9-5M142 61.6c.1-.1.2.1.4 0 1.2-1.1 2.2-2.6 2.3-4.2.1-1-.6-1.8-.9-2.6-.3-.7-1.1-.9-2-1.1-.7-.2-1.3-.1-2 .2-.3.2-.4.7-.8.8-1.2.3-2 1.3-2.8 2.2-.2.2-.4 0-.5.2-.9 1.1-1 2.4-1.3 3.7-.2.8-.2 1.3-.4 2.1-.3 1.2-.2 2.2.5 3.2.4.6.4 1.2.8 1.8 1.6 2 4 3.4 6.3 4.8 2.8 1.7 8.9 1.8 11.9 1.7 3.5-.1 7.2-1 10-2.9 1.6-1.1 4.2-1.4 6-2.4 7.7-4.6 12.4-9.1 18.6-15 2.1-2 6.4-4.1 5.4-7.6-.7-2.6-9.1-.6-10.4-.2-6.8 2.1-14 3.6-20.3 6.8-2.7 1.3-5 3-7.3 5-.5.5-1.1.6-1.7 1.1-.6.4-1 1.1-1.6 1.6-3.2 2.4-5.8 5.2-8.5 8-.5.5-1 1.1-1.6 1.6-.4.4-1.1-.1-.8-.6.8-1.2 1.5-2.6 2.6-3.5.2-.2.4 0 .5-.2 5.1-6.4 11.5-11.4 18.5-15.7 1.7-1.1 3.4-1.8 5.3-2.5 3.8-1.4 7.6-2.9 11.4-4.3 1.7-.6 6.7-2.3 8.3-2 1.1.1 2.4-.2 3.5-.1 1 .1 1.9.2 2.8.6 2 .9 3.4 2.7 3.1 4.7 0 0-.6 1.3-.7 1.4-2.3 3.8-4.8 5.4-8.1 8.1-3.7 3-7 6.6-10.8 9.5-1.8 1.3-3.5 2.4-5.3 3.5-4.7 3-9.4 4.7-14.8 5.9-4.7 1.1-9.8 1-14.5.3-1-.2-2.7-.7-3.6-1.1-2.3-.9-4.4-2-6.2-3.6-2.9-2.6-4.9-6.8-3.6-10.5.1-.2-.1-.3-.1-.5.5-1.3 1-2.7 2-3.6.8-.7 1.9-.9 2.7-1.5.5-.4 1.4-.1 1.9-.6.4.3 1.6-.6 2.5-.5 1.4.2 2.5-.5 3.8-.3 1 .2 2 .3 2.7 1 1 1 1.5 2.4 1.3 3.7-.3 1.6-1.4 3.2-2.8 4.2-.3.2-.4.4-.7.4-1 .3-2.3 1.1-3.4.6-.2-.1 1-.5 1-.5.4-.6.9-.8 1.4-1.1m-3.7-23.1c.8-.5 1.4.7 2.1.9 1.1.4 2.3 0 2.9.8.1.1 0 .2 0 .3.2.3.8.2 1.2.5.1.1.1.2 0 .3-.2.7-.9.8-1.7.9-.6.1-.7-.5-1.2-.7-.1-.1-.3.2-.1.4.5.5.2 1.3-.4 1.2-1-.1-2.1-.5-2.4-1.4-.3-.6.9-.3.8-.8-.1-.5-.8-.6-1.1-1 0-.3-.8-1-.1-1.4m17.9-3.2c.7-1.3 1.5-2.5 2.3-3.8h.4c.7 1.1-.3 2.9-1.1 3.9-.2 1.4-.9 2.5-1.6 3.6-1.9 2.1-3.4 4.1-5.5 5.9-1.1 1-3.3 1.9-3.5 2.1-2.1.9-4.2 1-6.3 1.8-.6.2-1.3.4-1.8.2-1-.3-1.9-.4-2.8-.8-1.2-.5-2.1-1.5-3.2-2.1-.5-.3-1.9-.7-3.3-.1-1 .4-2.1.6-3.1 1.1-.7.1-.7.3-1 .3-.5 0-3.1 1.3-3.6 1.8-1.9 1.9-3.9 4.2-4.5 6.8-.4 1.8-.7 3.6-.5 5.5.2 2.4.4 4.6 1.5 6.8 2.2 4.1 4.4 6.2 8.7 8.7.5.3 1.1.4 1.6.6 1 .6 1.7 1.3 2.8 1.7 4.5 1.8 9.3 3.2 14 4 5 .8 10-.1 14.8-1.2 3.4-.8 6.7-2.1 9.8-3.8 2.5-1.3 4.3-2.9 6.6-4.4.6-.4 3.9-3.6 4-4.1.1-.9-.2-1.8.2-2.6s2-1.1 2.3-.3c.5 1.2-1.7 3.8-2.6 4.6-1.2 1.1-2.3 2.3-3.7 3.3-.5.4-1 1.2-1.6 1.6-.3.2-.6.4-.8.6-1.1 1.1-3.9 2.5-5.4 3.2-2.4 1.2-9.6 3.3-12.4 3.6-2.3.2-4.4 1.1-6.7 1.3-2.2.2-4.3.4-6.5.1-1.7-.1-3.5-.3-5.4-.5-.8-.1-1.6-.4-2.5-.5-2.4-.5-4.4-1.3-6.7-2-3.9-1.2-7.2-3.5-10.2-6.2-1.3-1.2-2.6-2.3-3.6-3.8-.9-1.2-1.9-2.6-2.6-3.9-.1-.2.2-.4.1-.5-.7-1.4-1.5-3-1.6-4.7 0-.6-.2-1.2-.1-1.7.2-.7.1-1.5.2-2.2.2-.7.2-1.3.4-1.9.6-1.3 1.2-2.4 1.6-3.8.9-3 2.4-5.5 4.7-7.5.8-.7 1.8-1.1 2.7-1.7 1.1-.1 2.1-.8 3.3-.9 1.5-.2 2.9-.6 5.6-.2 1.2.7 2.5.7 3.8 1.4 1.4.7 2.4 1.7 3.8 2.2 3.4.9 6.8-.5 9.5-2.4 4.1-2.4 6.9-5.7 9.5-9.1m-2.5-3.4c-.8-.6-1.9-.3-2.7-.9-.2-.3.1-.7 0-1 1.5 0 3.1-.2 4.6.3 1 .5 1.5 1.5 1.1 2.6-1.3.7-3-.3-3-.3v-.7m5.8-4.4c.3-.2.1-.7.7-.5 1.3.6 2.1 1.8 3.4 2.3 4.1 1.5 8.2 2.9 12.6 3.5 2.4.3 4.1.3 6.6.2 4.3-.2 8.4-1.2 12.6-2.2 1.6-.4 3.8-1.3 5.1-2.2 1.9-1.5 3.8-3.1 5.9-4.6.3-.2.3-.9.7-1.1.4-.3.3.8.2 1-1 1.8-2.6 3-4.2 4.5-.9.8-1.2 2.1-2.2 2.9-1.4 1.2-3 2.3-4.5 3.5-2.1 1.8-4.9 2-7.5 3-.9.3-1.8.4-2.7.3-3.7-.6-7.7.5-12.1-.6-4.7-1.2-8.8-3.8-12.2-6.9-.9-1-2.4-1.8-2.4-3.1m-12-3.9c.3-1.2 1-2.2 2-3.1 2.1-1.8 7.4-3.7 10.6-3.2 1.2.2 2.3.3 3.4.4.9.1 3 1 3.9 1.4 1.3.4 2.5 1.4 3.9 2 1.5.7 3 1.1 4.7 1.6 3.1.8 7.1 1.1 10.3.8 1.1-.1 1.9-.7 3-.7.8 0 1.6.1 2.4-.1 2-.4 4.2-.5 6-1.2 2.2-.8 4.4-2 6.6-2.7.5-.1 1-.3 1.3-.7.2-.1.3 0 .2.1-.4.1.1.4-.3.6-1.2.5-1.8 1.7-3.1 2.1-.4.1-.5.1-.9.3-1.9 1.3-3.9 2.6-5.6 4.2-1.7 1.6-5.3 2-7.5 2.8-1.4.5-2.6.6-4.2.9-5 1-10.3-.3-14.4-3.1-3.8-2.7-8.1-5-12.7-5.6-1.8-.3-4-.3-5.8.5-1.4.6-2.3 1.8-2.8 3.2-.1.1-.6.1-.7.1-.4-.1-.4-.3-.3-.6m-7.3-10.5c1.7-1.2 3.5-2.1 5.3-3 1.4-.7 2.8-.8 4.1-1.4 1.1-.5 1.9-.6 3-.7 5.6-.5 11.3.8 16.8 2.2 2.4.6 4.7.7 6.9 1.5.4.1.6.4 1 .5 1.5.6 3 .6 4.5 1.3 1.2.6 2.7.9 4.1 1 3.9.3 8 .1 12 .2 1.5 0 2.7-.7 4-1.2 1-.4 2.2-.2 3.2-.4.2 0 .4-.3.6-.6.2-.3 1.1.5.3.8-1 .4-1.8.5-2.7 1-2.4 1.3-6.2 2.6-8.8 3.9-1 .5-2 .2-3.2.6-2.6.7-5.4 1.2-8.1.9-1.8-.2-3.5-.4-5.1-1-2.4-.9-4.5-1.6-6.9-2.4-2.1-.7-3.9-1.9-6-2.6-.3-.1-2.1-.7-2.5-.8-3-.5-6.1-.9-9.2-1.1-2.3-.1-8.9 2.3-10.4 3-.4.2-.9.2-1.2.4-.7.4-1.2.9-1.9 1.3-.4.2-2.5 2.2-2.7 2.3-.5.5-1.3 1.2-1.4 1.9-.1.5.1.8.1 1.3 0 .4-.5.7-.8.5-.3-.2-.1-.6-.2-.8.2-3.3 2.2-6.6 5.2-8.6m10.6 13.7s.7-.2 1.2-.3c.3.8-.2 1.4-.8 1.8-2 2.8-3.5 5.7-4.7 8.9-.5.6-.9 1.1-1.4 1.7-1.4.5-2.6-.5-3.9-.7-.3-.5-.5-1 0-1.3.6.3 1.1.2 1.7.1.6.3 1.1.2 1.7.5.4-1.1 0-2.2.9-3 .1-.2 0-.4.1-.7.9-1.1 1.1-2.5 2-3.5.7-1.4 1.7-2.6 3.2-3.5m-10.9.4v-.3c.3-.5.6-.2 1.1-.1l.2-.2c.8.2 1.6 0 2.4 0 1 .4 2.1.6 2.8 1.5.2.5.1 1 .2 1.7-.5.6-1.1 1-1.9 1.1-.5-.8-2-.9-1.8-2.1-1.1-.6-2.3-.7-3-1.6" fill-rule="evenodd" clip-rule="evenodd" fill="#fff"/><path d="M232.1 182.5c3 0 5.5 2.3 5.5 5.5s-2.6 5.5-5.5 5.5c-3 0-5.6-2.3-5.6-5.5s2.6-5.5 5.6-5.5m0 .9c-2.5 0-4.5 2-4.5 4.6 0 2.7 2 4.6 4.5 4.6s4.5-1.9 4.5-4.6c0-2.7-2-4.6-4.5-4.6m-1.2 7.7h-1v-6.3h2.4c1.5 0 2.2.6 2.2 1.8 0 1.1-.7 1.6-1.7 1.7l1.8 2.8h-1.1l-1.7-2.7h-1.1v2.7zm0-3.5h1.1c1.2 0 1.6-.3 1.6-1 0-.6-.3-.9-1.4-.9h-1.3v1.9zm-147.6-3.7H95c4.6 0 7.6 1.3 7.6 5 0 2.5-1.2 3.4-2.3 4.1 1.4.6 3 2.2 3 4.8 0 3.7-2.9 5.7-7.7 5.7H83.3v-19.6zm12 7.7c2.5 0 3.6-.6 3.6-2.3 0-1.7-1.1-2.3-3.6-2.3h-8.2v4.5h8.2zm.1 8.6c2.4 0 4.2-.5 4.2-2.8 0-2-1.7-2.7-4.2-2.7h-8.3v5.5h8.3zm18.2-16.3h11.7c4.6 0 7.9 1.1 7.9 5.8 0 3.6-2.6 5.6-5.4 5.7l6 7.9h-4.7l-5.6-7.7h-6v7.7h-3.8v-19.4zm11.1 8.7c3.1 0 4.7-.5 4.7-2.8s-1.6-2.7-4.7-2.7h-7.3v5.5h7.3zm19.1-8.7h17.5v3.3h-13.7v4.5h11.8v3.3h-11.8v5.1h14v3.3h-17.8zm34.8 0h4.3l9.5 19.5h-4l-2-4.5h-11.2l-2.1 4.5h-4l9.5-19.5zm6.2 11.7l-4.1-8.7-4.1 8.7h8.2zm16.5-11.7h9.4c6.2 0 11.1 2.6 11.1 9.6 0 6.6-4.5 9.8-10.9 9.8h-9.5v-19.4zm7.7 16.2c6.5 0 9-2 9-6.5 0-4.8-2.6-6.4-9-6.4h-3.9v12.9h3.9z"/><path class="st0" d="M284.4 128.8c-8.7.5-16.2 5.6-22 11.7-2.9 3-5.8 6.5-7.9 10.3-.9 1.5-3.3 6.5.3 6.1 2.3-.2 4.5-1.4 6.5-2.7 2-1.3 4-2.6 5.9-4 3.8-2.7 7.6-5.6 10.8-9.1 1.5-1.7 2.8-3.5 4-5.4.8-1.4 1.7-2.7 2.7-3.8 1-1.1 2.3-2.4 3.9-2.5.8 0 1.5.4 2.2.7.9.4 1.7.8 2.5 1.4 3.7 2.8 2.1 8.5 1.5 12.4-.4 2.5-.5 5-.2 7.5.2 1.9.6 5.6 2.9 7.9.6.6 1.2 1 1.8 1.5.8.7-1 1.2-1.4 1.3-4.1.7-6.1-.3-7.6-1.4-4.5-3.4-5.7-9.1-8.1-13.7-3.9 3-7.9 5.9-12.1 8.5-2.1 1.3-4.3 2.6-6.5 3.7-2 1-4 2-6.2 2.6-3.8 1-7.9.1-10.1-3.3-2.1-3.3-1.2-7.8-.3-11.3.9-3.5 2.1-6.9 4.1-9.9 2.3-3.5 5.5-6.5 8.9-8.9 5.7-4 12.6-6.4 19.6-6 1.8.1 4.1.3 5.5 1.5 1.9 1.2.5 3.5-.7 4.9m-34.3-9c1.7.4 3.6 1.8 3.9 3.7.2 1.5-.6 2.7-2.2 2.6-1.5-.1-2.9-.9-4.4-1.1-1.9-.4-3.9.6-5.5 1.4-3.7 1.8-6.7 4.9-9.2 8.1-2.6 3.2-3.8 7.2-4.3 11.3-.3 2.6-.5 5.1-1.1 7.7-.6 2.8-1.2 5.7-2.7 8.2-1.4 2.3-3.7 3.5-6.4 2.6-2.9-1-4.6-3.4-4.9-6.4-.4-3.3.4-6.7 1.2-9.8.9-3.1 2-6.2 2.9-9.3 1.2-4.2 1.8-8.8 2.1-13.2.1-1.3.1-2.6.1-3.9 0-.8-.2-1.7.1-2.5.2-.8 1-.4 1.5-.1 1.4 1 2.5 2.6 3.5 4.1.8 1.3 1.9 2.9 2 4.5 6-5.8 15.1-9.7 23.4-7.9m-105.4 8.4c-.8.3-4.4 3-5.5 4.3-2 2.5-4.3 4.6-5.9 7.5-1.4 2.5-2.7 5.5-3.9 8.1-1.4 3.1-2.5 7.8-4.3 10.7-1.6 2.7-4.2 3.5-7.3 2.9-1.8-.4-2.5-1.7-3.1-3.4-.7-2.2-.8-4.6-.6-6.9.5-4.8 2.4-9.2 4.1-13.7.9-2.5 1.7-5 2-7.6.2-1.6.2-2.9-1.2-3.9-1-.8-2.1-1.3-3.2-1.9-1-.6-2.5-1.2-3.1-2.2-.5-.8 1.1-1.3 1.6-1.4 1.3-.1 2.7.2 4 .5 2.6.7 5.3 1.8 7.6 3.2 1.4.8 2.7 2 3.4 3.6.7 1.5.8 3.2 1 4.9.1 1.2-.4 3.6 0 4.7 4.4-6.9 11.5-14 19.9-15.2 2.1-.3 4.3.1 5.1 2.2.9 2.1.6 4.5 0 6.9-.6 2.5-1.6 6.2-2.1 8.2-2.1 9.3-1.1 15 1.1 19.3.4.9 1.1 2.6.5 3.6-.4.7-1.4.3-1.9.1-2.1-.8-9.3-3-11.2-10.5-2-8 3.3-21.6 3.9-23.1.5-1.1-.1-1.2-.9-.9m-49.9-3.5c1 3.2-1.9 4.5-4.4 5.5-4 1.5-7.6 4-11.1 6.5-3.8 2.8-8 5.5-11.1 9.1-1.6 1.8-3 3.7-4.3 5.6-1.1 1.7-2.3 3.4-2.7 5.4 3.7.4 7.2-1.1 10.3-3 3.5-2.1 6.7-4.8 9.8-7.6 1.5-1.3 2.9-2.6 4.4-3.9 1.2-1.1 2.7-2 3.7-3.3 1-1.3 1.5-2.8 2.2-4.3.8-1.6 1.9-2.9 3.6-3.7 3.4-1.6 7.3.3 8.9 3.5.9 1.8.8 3.6.4 5.6-.5 2.2-1.3 4.4-1.6 6.7-.3 1.9-.3 4.1.3 5.9.5 1.3 1.2 2.4 1.8 3.6.6 1.1 3.3 5.7 1.2 6.5-3.9.6-8.1-2.6-10.8-5.1-2.7-2.5-6.3-6.6-5.8-10.7-3.9 3.1-7.9 6.1-12.1 8.7-2.1 1.3-4.3 2.5-6.6 3.5-2.1.9-4.3 1.8-6.5 2.1-3.2.4-6.5-.6-8.3-3.4-1.9-2.8-2-6.5-1.2-9.7 1-4.1 3.2-8.1 5.8-11.4 2.6-3.5 5.8-6.6 9.5-9 2.5-1.6 5.3-2.8 8.1-3.8 2.9-1 5.9-1.8 8.9-2.2 2.4-.2 6.6-.3 7.6 2.9m-29.7-15.5c1.2 1.2-1.4 5.5-4.7 8.4-4.3 3.8-14.2 10-26.8 13.9-.8-4.7-1.3-9.4-1.7-14.1-.2-2-.4-4-.5-6-.1-.7-.2-3.1.5-3.2 11.6-1.8 29.9-2.3 33.2 1m5.6-6.5c1.8 1 3 2.9 3.5 4.9.5 2.1-.2 7.6-9 13.7-6.1 4.2-17.4 9.5-28.3 13.1-.5.2-1 .4-1.6.6-.3.1-.5.2-.8.3-.5.2-.5.2-.4.8.3 2.7.9 5.4 1.6 8 .5 1.8 1 3.6 1.7 5.4.5 1.4 1.1 2.9 1.6 4.4.8 2.6 1.8 6.2 0 8.6-1 1.4-2.8 1.9-4.4 2.1-2 .3-4 .1-5.8-.6-3.7-1.4-5.8-3.7-7.6-7.3-2-4-.6-23.2.4-28 .5-2.6.9-5.2 1.4-7.7.4-2.3 2.3-11.7 1.9-11.9-.5-.2-5 .7-7.4 1.6-1.9.7-3.4 1.9-5 3-1.5 1-3.2.7-4.9 0-3.8-1.4-6.8-4.9-7.6-9-.5-2.7 1.8-5.4 5.4-6.6 3.2-1.1 6.6-1.6 9.9-2 15.9-2.1 43.4.1 55.4 6.6m129.1 30.1c-4.9 4.4-18.2 7.5-25.1 6-.7-1.7 2.3-3.7 3.4-4.5 2.2-1.6 4.6-3 7.1-3.9 3.4-1.3 7.5-1.5 11-.8.9.2 5.5 1.5 3.6 3.2m4.8-8.3c1.3 1.4 2.2 3.2 2.1 5.2-.1 1.8-1 3.5-2.2 4.9-2.1 2.6-4.9 3.9-7.9 5.1-7.6 2.9-15.6 3.7-23.7 3.3 0 1.9.3 3.8 1.6 5.3 1.1 1.2 2.8 1.7 4.4 1.8 4.5.3 9.2-1.3 13.3-2.9 4.3-1.6 8.5-3.5 12.9-5.2 1.2-.4 2.5-1 3.8-1 1.5 0 1.1 2 .8 3-1 2.9-3.6 5.1-6 6.8-2.6 1.9-5.4 3.6-8.3 5.1-3.3 1.8-6.8 3.4-10.4 4.7-4.3 1.5-9.2 2.5-13.8 1.6-3.5-.8-6.5-2.9-8.1-6.2-1.5-3.1-1.6-6.7-.7-10 1.1-4.2 3.9-8 6.8-11.1 2.9-3.1 6.2-5.8 9.9-7.9 4.2-2.4 8.8-4.3 13.6-5.1 4-.7 9.1-.9 11.9 2.6"/></svg>