<svg xmlns="http://www.w3.org/2000/svg" xmlns:xlink="http://www.w3.org/1999/xlink" viewBox="0 0 285.19 285.19"><style><![CDATA[.A,.C{fill:#fff}.B,.D,.G{fill:none;stroke:#fff;stroke-miterlimit:3.86}.B{stroke-width:2.02px}.C,.H{fill-rule:evenodd}.D{stroke-width:0.12px}.E,.H{fill:#007550}]]></style><use xlink:href="#B" class="A"/><path class="B" d="M142.93 112.37L10.2 97c-1.5 0-2.8-.24-2.6 2.18l23.05 79.44c2.63 7.57 6.93 9.57 11.1 9.57h201.67c4.16 0 8.46-2 11.08-9.57l23.06-79.44c.2-2.43-1.1-2.2-2.6-2.2l-132.05 15.38z"/><use xlink:href="#C" class="A"/><path class="B" d="M142.58 116.88l126.6-14.82c1.4-.14 2.68-.92 2 1.37l-16.9 58.85c-1.9 6.15-4.7 5.38-9.07 5.4H40c-4.37 0-7.16.74-9.07-5.4L14 103.43c-.66-2.3.6-1.5 2-1.37l126.58 14.82z"/><use xlink:href="#D" class="C"/><use xlink:href="#E" class="D"/><use xlink:href="#F" class="C"/><use xlink:href="#G" class="D"/><use xlink:href="#H" class="C"/><use xlink:href="#I" class="D"/><use xlink:href="#J" class="A"/><use xlink:href="#K" class="D"/><path d="M143.86 176.22v-4.04h-2.73v10.48h2.73v-4.3h3.93v4.3h2.73v-10.48h-2.73v4.04h-3.93" class="C"/><path d="M143.86 176.22v-4.04h-2.73v10.48h2.73v-4.3h3.93v4.3h2.73v-10.48h-2.73v4.04h-3.93z" class="D"/><use xlink:href="#L" class="C"/><use xlink:href="#M" class="D"/><use xlink:href="#N" class="C"/><use xlink:href="#O" class="D"/><path d="M218.64 174.5h3.06v-2.3h-8.93v2.3h3.07v8.17h2.8v-8.17" class="A"/><path d="M218.64 174.5h3.06v-2.3h-8.93v2.3h3.07v8.17h2.8v-8.17z" class="D"/><use xlink:href="#P" class="C"/><use xlink:href="#Q" class="D"/><use xlink:href="#R" class="A"/><path class="B" d="M113.63 154.64c4.87-1.5 9-7.87 9.84-10 1.87-5 3.47-8.88 3.47-8.88h5.82l-6 15c-1.7 4.82 3.12.77 5.08-4.6l3.9-10.25h6l-7.73 19c2.26-.6 5.08 1.12 4.8 2-1 3-1.6-1.5-5.75-.2-2.28 5.55-7.38 10.4-11.37 9.8-5.18-.77-2.16-7.83 6.57-10.4l.76-2.1c-4.5 3.73-8.8 1.47-7.8-2.92a12.74 12.74 0 0 1-11 5 4.92 4.92 0 0 1-4.86-2l-3.4 8.57h-5.7l2.95-7.55a12.21 12.21 0 0 1-6.81 1.67 5.53 5.53 0 0 1-6.86-3.37c-4.27 5.66-9 3.63-9.63.15-1.82 1.9-3.82 3.32-5.63 3.25-4.4-.16-3.32-6.75-2.56-9 2-5.75 4.15-8 .12-8.17-.68 0-5.52 18.77-14.33 19.6-8.16.75-5-5.75-3.66-9.46 2.16-6 4.46-8.92 3.3-11.14-.9-1.72-5.85 1.84-7.36 5.64l-5.9 15.12-7.63.16 12.42-32c2-5.22-1-5.37-3.43-5.23-2 .1-1.2-1.63.24-1.74 7.34-.56 10-.45 10.88.13a3.12 3.12 0 0 1 1.17 3.48l-4.16 10.7c-1.07 3.14 1.15.13 1.8-.7s5.27-6 6.2-7.24 5.2-5.53 8-5.53h19.15a5.25 5.25 0 0 0 0 6.66h-21.8c-1.48 0-4.8 1.83-7.3 4.85-2.16 2.6.66 1.66.66 1.66 4.2-.4 8.12-1.35 1.4 13.34-6.43 14.06 3.16 7.48 8.77-9.53.2-.62-1.44-1.42-1.5-2.6-.08-1.5-.52-3.2 2.1-3.2s1.74 2.64 4 3.32c4.47 1.36 6.9 0 4.55 5.64-2.24 5.45-4.72 12.23-1.8 11.4a4.54 4.54 0 0 0 2.75-2.37l5.75-15h5.77l-6.3 15.88c-1.46 3.66 1.44 1.6 3.6-.75a3.11 3.11 0 0 1 2.13-2.73l9.6-13.65a.81.81 0 0 1 .09 1.15c-.63 1 .54 5.86 1 7.4.8 2.47 2.12 8.57-1.3 11.37a16.1 16.1 0 0 1-2 1.39 12.24 12.24 0 0 0 5.15-2.3l7-17.76h5.73s-.25.54-.57 1.38a6.53 6.53 0 0 1 5.26-1.51c1.6.42 6.9.83.94 13a16.18 16.18 0 0 1-4.59 6.13zm9.43 8.3a12.13 12.13 0 0 0 4.33-4.67 13.28 13.28 0 0 0-5 2.78c-1.68 1.53-.88 2.94.67 1.94zm-37.62-38.1a3.14 3.14 0 1 1 3.14 3.16 3.14 3.14 0 0 1-3.14-3.16zm106 21.7c2.94.06 6.48-1.72 7.26-3.06s.67-3.93-1.3-4c-1.67-.1-4.96 1.4-5.98 7.06zm58.47 4.94c-5.7 7.7-14.1 6.73-16.1-.37-1.4 2.8-3.4 5.58-7.1 5.9-4.43.4-4.9-4-4.4-6.44s1.25-3.42 3-8.48c1.26-3.56-2.45-1.74-4.56 1.7l-5 13.24s-1.77-.13-5.73-.18c.48-2.45 3.76-9.63 5.55-14.68 1.28-3.62-2.56-1.7-4.65 1.84a2.63 2.63 0 0 1-.2.33L205.68 157h-6l1.87-4.74a12.65 12.65 0 0 1-2.09 1.85c-7.68 5.43-11.33 1.5-12.52-2.35-2.2 2.7-4.86 5.14-7.22 5.05-4.4-.16-3.32-6.75-2.56-9 2-5.76 4.15-8 .1-8.18-.67 0-5.5 18.77-14.32 19.6-8.16.75-5-5.74-3.66-9.46 2.16-6 4.46-8.92 3.3-11.14-.9-1.72-5.85 1.84-7.37 5.64l-5.92 15.12-7.64.16 12.43-32c2-5.22-1.05-5.37-3.43-5.23-2 .1-1.2-1.63.24-1.74 7.34-.55 10-.44 10.88.13a3.14 3.14 0 0 1 1.21 3.6l-4.16 10.7c-1.07 3.14 1.15.13 1.8-.7s5.27-6 6.2-7.24 5.2-5.53 8-5.53h74.6a7.23 7.23 0 0 0 5.41-2c.6-.54 1.3-.52 1.27.1 0 .27-3.58 8.56-8.53 8.55h-75.44c-1.48 0-4.8 1.83-7.3 4.84-2.16 2.6.65 1.66.65 1.66 4.2-.4 8.13-1.35 1.42 13.34-6.43 14.06 3.16 7.48 8.77-9.53.2-.62-1.44-1.42-1.5-2.6-.08-1.5-.52-3.2 2.1-3.2s1.74 2.64 3.95 3.32c4.47 1.37 6.9 0 4.55 5.65-2.24 5.44-4.72 12.22-1.8 11.4 2.38-.66 3.06-3.14 3.5-4v-.65c.4-5.63 3.7-10.48 6.52-11.7 6.73-2.94 9.32.8 9.1 4.38-.27 4.38-5.18 7.32-10.73 7.48-.1-.08-.1 0 0 .8.87 6.3 8 2.86 11.85-1.37l4.9-12.4h6.17l-1.5 3.7c4.55-5.45 9.47-3.92 9.05.75l.18-.24c5.22-6.85 11.18-4.23 9.13 2l-3.26 9.34s-.92 2.83.87 2.83c1.55 0 3.67-2.73 4.6-5.3v-.22c-.28-5.6 3.18-10.42 6-11.64 6.7-2.92 9.56.8 9.54 4.36 0 4.36-4.86 7.28-10.5 7.44-.1-.08-.12 0 0 .8 1.5 7.47 9 2.56 10.08 1.22 2.8-3.44 2.7-.98 1.4.78zm-11.6-4.93c3 .06 6.5-1.7 7.22-3s.47-3.9-1.54-4c-1.7-.13-5 1.38-5.7 7zM92.63 121.53H140a7.19 7.19 0 0 0 5.41-2c.6-.53 1.3-.5 1.27.12 0 .27-3.58 8.56-8.53 8.54H92.6a5.25 5.25 0 0 0 0-6.66zm18 19.7c-.4.78-3.4 8.25-3.4 8.25-.8 2.07.38 3.12 1.25 3.34 1.94.5 3.82-.94 5.84-6.26 3.22-8.45-2.7-7.28-3.7-5.33zm-21.27 6.92c2.88 1.28 1.72 5.3-.3 5.77-.93.73 3 2.64 4.67-1.28s-.48-7.88-.74-8.82a34.86 34.86 0 0 0-3.64 4.33z"/><use xlink:href="#B" class="E"/><use xlink:href="#C" class="A"/><use xlink:href="#R" fill="#ce1041"/><path class="C" d="M248 173.94a2.57 2.57 0 0 1 .92.12.85.85 0 0 1 .53.86.75.75 0 0 1-.33.67 1.34 1.34 0 0 1-.49.16.79.79 0 0 1 .58.33.91.91 0 0 1 .19.53v.24a2.35 2.35 0 0 0 0 .26.29.29 0 0 0 0 .17v.05h-.56a0 0 0 0 0 0 0v-.38a.83.83 0 0 0-.32-.78 1.35 1.35 0 0 0-.66-.11h-.47v1.33h-.6V174h1.2m.64.53a1.61 1.61 0 0 0-.72-.12h-.5v1.23h.53a1.69 1.69 0 0 0 .57-.07.52.52 0 0 0 .35-.53.55.55 0 0 0-.26-.58zm1.6 3.36a3.09 3.09 0 1 1-2.19-5.27 3 3 0 0 1 2.18.91 2.92 2.92 0 0 1 .91 2.17 3 3 0 0 1-.94 2.12zm-4.07-4.07a2.7 2.7 0 0 0 0 3.77 2.64 2.64 0 0 0 3.75 0 2.68 2.68 0 0 0 0-3.76A2.54 2.54 0 0 0 248 173a2.57 2.57 0 0 0-1.86.76z"/><path class="G" d="M248 173.94a2.57 2.57 0 0 1 .92.12.85.85 0 0 1 .53.86.75.75 0 0 1-.33.67 1.34 1.34 0 0 1-.49.16.79.79 0 0 1 .58.33.91.91 0 0 1 .19.53v.24a2.35 2.35 0 0 0 0 .26.29.29 0 0 0 0 .17v.05h-.56a0 0 0 0 0 0 0v-.38a.83.83 0 0 0-.32-.78 1.35 1.35 0 0 0-.66-.11h-.47v1.33h-.6V174zm.64.53a1.61 1.61 0 0 0-.72-.12h-.5v1.23h.53a1.69 1.69 0 0 0 .57-.07.52.52 0 0 0 .35-.53.55.55 0 0 0-.26-.51zm1.6 3.36a3.09 3.09 0 1 1-2.19-5.27 3 3 0 0 1 2.18.91 2.92 2.92 0 0 1 .91 2.17 3 3 0 0 1-.94 2.19zm-4.07-4.07a2.7 2.7 0 0 0 0 3.77 2.64 2.64 0 0 0 3.75 0 2.68 2.68 0 0 0 0-3.76A2.54 2.54 0 0 0 248 173a2.57 2.57 0 0 0-1.86.76z" stroke-width="0"/><use xlink:href="#J" class="A"/><use xlink:href="#K" class="D"/><path d="M218.64 174.5h3.06v-2.3h-8.93v2.3h3.07v8.17h2.8v-8.17" class="A"/><path d="M218.64 174.5h3.06v-2.3h-8.93v2.3h3.07v8.17h2.8v-8.17z" class="D"/><use xlink:href="#D" class="C"/><use xlink:href="#E" class="D"/><use xlink:href="#F" class="C"/><use xlink:href="#G" class="D"/><use xlink:href="#H" class="C"/><use xlink:href="#I" class="D"/><path d="M143.86 176.22v-4.04h-2.73v10.48h2.73v-4.3h3.93v4.3h2.73v-10.48h-2.73v4.04h-3.93" class="C"/><path d="M143.86 176.22v-4.04h-2.73v10.48h2.73v-4.3h3.93v4.3h2.73v-10.48h-2.73v4.04h-3.93z" class="D"/><use xlink:href="#L" class="C"/><use xlink:href="#M" class="D"/><use xlink:href="#N" class="C"/><use xlink:href="#O" class="D"/><use xlink:href="#P" class="C"/><use xlink:href="#Q" class="D"/><path d="M258.14 177.62h.63l.43-2.43 1.17 2.62 1.18-2.62.4 2.43h.62l-.76-4.33-1.43 3.13-1.38-3.13-.85 4.33" class="E"/><path class="H" d="M266.4 173.8a1.93 1.93 0 0 0-1.09-.3 2.12 2.12 0 0 0-2.09 2.08 2.07 2.07 0 0 0 2.09 2.11 2.19 2.19 0 0 0 1.09-.3v-.73a1.61 1.61 0 0 1-1.07.45 1.48 1.48 0 0 1-1.5-1.51 1.49 1.49 0 0 1 1.47-1.53 1.6 1.6 0 0 1 1.1.45v-.72"/><defs ><path id="B" d="M142.93 112.37L10.2 97c-1.5 0-2.8-.24-2.6 2.18l23.05 79.44c2.63 7.57 6.93 9.57 11.1 9.57h201.67c4.16 0 8.46-2 11.08-9.57l23.06-79.44c.2-2.43-1.1-2.2-2.6-2.2l-132 15.37"/><path id="C" d="M142.58 116.88l126.6-14.82c1.4-.14 2.68-.92 2 1.37l-16.9 58.85c-1.9 6.15-4.7 5.38-9.07 5.4H40c-4.37 0-7.16.74-9.07-5.4L14 103.43c-.66-2.3.6-1.5 2-1.37l126.57 14.82"/><path id="D" d="M46.4 174.48h.6a2.94 2.94 0 1 1 0 5.87h-.6v-5.87m-2.72 8.18h3.86a5.24 5.24 0 1 0 0-10.48h-3.86z"/><path id="E" d="M46.4 174.48h.6a2.94 2.94 0 1 1 0 5.87h-.6zm-2.72 8.18h3.86a5.24 5.24 0 1 0 0-10.48h-3.86z"/><path id="F" d="M72.36 174.47a2.93 2.93 0 0 1 3 2.77 3 3 0 1 1-5.93 0 2.94 2.94 0 0 1 3-2.77m0-2.64a5.59 5.59 0 1 0 5.79 5.39 5.6 5.6 0 0 0-5.86-5.39z"/><path id="G" d="M72.36 174.47a2.93 2.93 0 0 1 3 2.77 3 3 0 1 1-5.93 0 2.94 2.94 0 0 1 2.93-2.77zm0-2.64a5.59 5.59 0 1 0 5.79 5.39 5.6 5.6 0 0 0-5.79-5.39z"/><path id="H" d="M98.9 172v5.52c0 1.37-.1 2.86-1.85 2.86s-1.85-1.5-1.85-2.86V172h-2.73v5.9a4.76 4.76 0 0 0 1.1 3.7 5.79 5.79 0 0 0 7 0 4.76 4.76 0 0 0 1.1-3.7V172H98.9"/><path id="I" d="M98.9 172v5.52c0 1.37-.1 2.86-1.85 2.86s-1.85-1.5-1.85-2.86V172h-2.73v5.9a4.76 4.76 0 0 0 1.1 3.7 5.79 5.79 0 0 0 7 0 4.76 4.76 0 0 0 1.1-3.7V172z"/><path id="J" d="M121.68 176.8v2.2h2a2 2 0 0 1-2.2 1.82c-1.8 0-2.76-1.65-2.76-3.28s.93-3.3 2.72-3.3a2.37 2.37 0 0 1 2.27 1.67l2.58-1.1a4.86 4.86 0 0 0-4.72-2.93 5.36 5.36 0 0 0-5.69 5.65 5.3 5.3 0 0 0 5.59 5.53 5.06 5.06 0 0 0 4.32-2.06 6.62 6.62 0 0 0 1.07-4.14h-5.16"/><path id="K" d="M121.68 176.8v2.2h2a2 2 0 0 1-2.2 1.82c-1.8 0-2.76-1.65-2.76-3.28s.93-3.3 2.72-3.3a2.37 2.37 0 0 1 2.27 1.67l2.58-1.1a4.86 4.86 0 0 0-4.72-2.93 5.36 5.36 0 0 0-5.69 5.65 5.3 5.3 0 0 0 5.59 5.53 5.06 5.06 0 0 0 4.32-2.06 6.62 6.62 0 0 0 1.07-4.14z"/><path id="L" d="M165.33 182.66h2.73v-6.42h.03l5 6.42h2.72v-10.48h-2.72v6.4h-.03l-5-6.4h-2.73v10.48"/><path id="M" d="M165.33 182.66h2.73v-6.42h.03l5 6.42h2.72v-10.48h-2.72v6.4h-.03l-5-6.4h-2.73v10.48z"/><path id="N" d="M197 172.18v5.52c0 1.36-.1 2.85-1.84 2.85s-1.85-1.5-1.85-2.85v-5.52h-2.73v5.9c0 1.35.06 2.7 1.1 3.7a5.75 5.75 0 0 0 7 0c1-1 1.1-2.35 1.1-3.7v-5.9H197"/><path id="O" d="M197 172.18v5.52c0 1.36-.1 2.85-1.84 2.85s-1.85-1.5-1.85-2.85v-5.52h-2.73v5.9c0 1.35.06 2.7 1.1 3.7a5.75 5.75 0 0 0 7 0c1-1 1.1-2.35 1.1-3.7v-5.9z"/><path id="P" d="M241.75 172.76a7.09 7.09 0 0 0-3.27-.86 3.4 3.4 0 0 0-3.62 3.52c0 2 1.13 2.47 2.84 3 .58.17 1.65.43 1.65 1.2s-.68 1-1.32 1a3.72 3.72 0 0 1-2.42-1.08l-1.17 2.2a6.42 6.42 0 0 0 3.69 1.2 4.55 4.55 0 0 0 3-1 3.53 3.53 0 0 0 1.09-2.82c0-1.7-1.13-2.43-2.6-2.86l-.7-.2c-.48-.16-1.2-.4-1.2-1s.66-.88 1.16-.88a2.86 2.86 0 0 1 1.81.7l1.08-2.12"/><path id="Q" d="M241.75 172.76a7.09 7.09 0 0 0-3.27-.86 3.4 3.4 0 0 0-3.62 3.52c0 2 1.13 2.47 2.84 3 .58.17 1.65.43 1.65 1.2s-.68 1-1.32 1a3.72 3.72 0 0 1-2.42-1.08l-1.17 2.2a6.42 6.42 0 0 0 3.69 1.2 4.55 4.55 0 0 0 3-1 3.53 3.53 0 0 0 1.09-2.82c0-1.7-1.13-2.43-2.6-2.86l-.7-.2c-.48-.16-1.2-.4-1.2-1s.66-.88 1.16-.88a2.86 2.86 0 0 1 1.81.7z"/><path id="R" d="M92.63 121.53H140a7.19 7.19 0 0 0 5.41-2c.6-.53 1.3-.5 1.27.12 0 .27-3.58 8.56-8.53 8.54H92.6a5.25 5.25 0 0 0 0-6.66m18 19.7c-.4.78-3.4 8.25-3.4 8.25-.8 2.07.38 3.12 1.25 3.34 1.94.5 3.82-.94 5.84-6.26 3.26-8.45-2.67-7.28-3.65-5.33zm-21.27 6.92c2.88 1.28 1.72 5.3-.3 5.77-.93.73 3 2.64 4.67-1.28s-.48-7.88-.74-8.82a34.86 34.86 0 0 0-3.6 4.33zm24.27 6.5c4.87-1.5 9-7.87 9.84-10 1.87-5 3.47-8.88 3.47-8.88h5.82l-6 15c-1.7 4.82 3.12.77 5.08-4.6l3.9-10.25h6l-7.73 19c2.26-.6 5.08 1.12 4.8 2-1 3-1.6-1.5-5.75-.2-2.28 5.55-7.38 10.4-11.37 9.8-5.18-.77-2.16-7.83 6.57-10.4l.76-2.1c-4.5 3.73-8.8 1.47-7.8-2.92a12.74 12.74 0 0 1-11 5 4.92 4.92 0 0 1-4.86-2l-3.4 8.57H96.3l2.95-7.55a12.21 12.21 0 0 1-6.81 1.67 5.53 5.53 0 0 1-6.86-3.37c-4.27 5.66-9 3.63-9.63.15-1.82 1.9-3.82 3.32-5.63 3.25-4.4-.16-3.32-6.75-2.56-9 2-5.75 4.15-8 .12-8.17-.68 0-5.52 18.77-14.33 19.6-8.16.75-5-5.75-3.66-9.46 2.16-6 4.46-8.92 3.3-11.14-.9-1.72-5.85 1.84-7.36 5.64L39.9 159.4l-7.63.16 12.42-32c2-5.22-1-5.37-3.43-5.23-2 .1-1.2-1.63.24-1.74 7.34-.56 10-.45 10.88.13a3.12 3.12 0 0 1 1.17 3.48l-4.16 10.7c-1.07 3.14 1.15.13 1.8-.7s5.27-6 6.2-7.24 5.2-5.53 8-5.53h19.15a5.25 5.25 0 0 0 0 6.66h-21.8c-1.48 0-4.8 1.83-7.3 4.85-2.16 2.6.66 1.66.66 1.66 4.2-.4 8.12-1.35 1.4 13.34-6.43 14.06 3.16 7.48 8.77-9.53.2-.62-1.44-1.42-1.5-2.6-.08-1.5-.52-3.2 2.1-3.2s1.74 2.64 4 3.32c4.47 1.36 6.9 0 4.55 5.64-2.24 5.45-4.72 12.23-1.8 11.4a4.54 4.54 0 0 0 2.75-2.37l5.75-15h5.77l-6.3 15.88c-1.46 3.66 1.44 1.6 3.6-.75a3.11 3.11 0 0 1 2.13-2.73l9.6-13.65a.81.81 0 0 1 .09 1.15c-.63 1 .54 5.86 1 7.4.8 2.47 2.12 8.57-1.3 11.37a16.1 16.1 0 0 1-2 1.39 12.24 12.24 0 0 0 5.15-2.3l7-17.76h5.73s-.25.54-.57 1.38a6.53 6.53 0 0 1 5.26-1.51c1.6.42 6.9.83.94 13a16.18 16.18 0 0 1-4.59 6.13zm9.43 8.3a12.13 12.13 0 0 0 4.33-4.67 13.28 13.28 0 0 0-5 2.78c-1.64 1.53-.84 2.94.7 1.94zm-37.58-38.1a3.14 3.14 0 1 1 3.14 3.16 3.14 3.14 0 0 1-3.14-3.16zm106 21.7c2.94.06 6.48-1.72 7.26-3.06s.67-3.93-1.3-4c-1.67-.1-4.96 1.4-5.98 7.06zm58.47 4.94c-5.7 7.7-14.1 6.73-16.1-.37-1.4 2.8-3.4 5.58-7.1 5.9-4.43.4-4.9-4-4.4-6.44s1.25-3.42 3-8.48c1.26-3.56-2.45-1.74-4.56 1.7l-5 13.24s-1.77-.13-5.73-.18c.48-2.45 3.76-9.63 5.55-14.68 1.28-3.62-2.56-1.7-4.65 1.84a2.63 2.63 0 0 1-.2.33L205.68 157h-6l1.87-4.74a12.65 12.65 0 0 1-2.09 1.85c-7.68 5.43-11.33 1.5-12.52-2.35-2.2 2.7-4.86 5.14-7.22 5.05-4.4-.16-3.32-6.75-2.56-9 2-5.76 4.15-8 .1-8.18-.67 0-5.5 18.77-14.32 19.6-8.16.75-5-5.74-3.66-9.46 2.16-6 4.46-8.92 3.3-11.14-.9-1.72-5.85 1.84-7.37 5.64-2 4.9-5.92 15.12-5.92 15.12l-7.64.16 12.43-32c2-5.22-1.05-5.37-3.43-5.23-2 .1-1.2-1.63.24-1.74 7.34-.55 10-.44 10.88.13a3.14 3.14 0 0 1 1.21 3.6l-4.16 10.7c-1.07 3.14 1.15.13 1.8-.7s5.27-6 6.2-7.24 5.2-5.53 8-5.53h74.6a7.23 7.23 0 0 0 5.41-2c.6-.54 1.3-.52 1.27.1 0 .27-3.58 8.56-8.53 8.55h-75.44c-1.48 0-4.8 1.83-7.3 4.84-2.16 2.6.65 1.66.65 1.66 4.2-.4 8.13-1.35 1.42 13.34-6.43 14.06 3.16 7.48 8.77-9.53.2-.62-1.44-1.42-1.5-2.6-.08-1.5-.52-3.2 2.1-3.2s1.74 2.64 3.95 3.32c4.47 1.37 6.9 0 4.55 5.65-2.24 5.44-4.72 12.22-1.8 11.4 2.38-.66 3.06-3.14 3.5-4v-.65c.4-5.63 3.7-10.48 6.52-11.7 6.73-2.94 9.32.8 9.1 4.38-.27 4.38-5.18 7.32-10.73 7.48-.1-.08-.1 0 0 .8.87 6.3 8 2.86 11.85-1.37l4.9-12.4h6.17l-1.5 3.7c4.55-5.45 9.47-3.92 9.05.75l.18-.24c5.22-6.85 11.18-4.23 9.13 2-.3.9-3.26 9.34-3.26 9.34s-.92 2.83.87 2.83c1.55 0 3.67-2.73 4.6-5.3v-.22c-.28-5.6 3.18-10.42 6-11.64 6.7-2.92 9.56.8 9.54 4.36 0 4.36-4.86 7.28-10.5 7.44-.1-.08-.12 0 0 .8 1.5 7.47 9 2.56 10.08 1.22 2.8-3.44 2.7-.98 1.4.78zm-11.6-4.93c3 .06 6.5-1.7 7.22-3s.47-3.9-1.54-4c-1.7-.13-5 1.38-5.7 7z"/></defs></svg>