<svg xmlns="http://www.w3.org/2000/svg" viewBox="0 0 285.19 285.19"><style>.B{fill:#fff}</style><path d="M16.5 192h38.8l-38.8-38.84zm252.12-97h-38.8l38.8 38.8zM70.8 168.7L94 192h38.8l-23.25-23.26zM16.5 95v19.38l23.25 23.26v-19.38h19.38L35.87 95zm252.12 77.6l-23.26-23.25v19.38H226L249.24 192h19.38v-19.4zm-54.3-54.34L191.06 95h-38.8l23.26 23.25zm-77.6 0L113.46 95h-38.8l23.25 23.26zm11.62 50.44L171.6 192h38.8l-23.25-23.26z" fill="#d9003d"/><path class="B" d="M110.87 135.64a4.91 4.91 0 0 0-3.29-1.07h-4.1V143h4.1a4.6 4.6 0 0 0 3.29-1.12 4 4 0 0 0 1.17-3.08v-.1a3.52 3.52 0 0 0-1.17-3.08m62.63 11.56h6l-3-9.45z"/><path class="B" d="M218.43 159a18.66 18.66 0 0 1-6.21-3.61l4.4-6.06a20.54 20.54 0 0 0 4.19 2.66 10.79 10.79 0 0 0 4.57 1 4 4 0 0 0 2.49-.64 2 2 0 0 0 .85-1.7 1.83 1.83 0 0 0-.21-.9 2.47 2.47 0 0 0-.74-.8 8.42 8.42 0 0 0-1.44-.8l-2.33-.9a44.94 44.94 0 0 1-4.2-1.65 14.59 14.59 0 0 1-3.29-2 8.66 8.66 0 0 1-2.12-2.71 8.24 8.24 0 0 1-.75-3.77v-.16a10 10 0 0 1 .8-4 9.07 9.07 0 0 1 2.28-3.13 11.18 11.18 0 0 1 3.67-2.07 14.94 14.94 0 0 1 4.78-.74 21.16 21.16 0 0 1 6.15.9 16.1 16.1 0 0 1 5.42 3l-4.2 6.2a15.56 15.56 0 0 0-3.61-2.12 10.15 10.15 0 0 0-3.93-.85 3.57 3.57 0 0 0-2.18.58 1.81 1.81 0 0 0-.74 1.54v.05a1.84 1.84 0 0 0 .21 1 3.78 3.78 0 0 0 .8.85 10.41 10.41 0 0 0 1.59.9 25.7 25.7 0 0 0 2.49 1 31.48 31.48 0 0 1 4.14 1.59 12.58 12.58 0 0 1 3.14 2.07 8 8 0 0 1 2 2.71 8.4 8.4 0 0 1 .69 3.61v.1a10 10 0 0 1-.9 4.24 8.49 8.49 0 0 1-2.44 3.19 10.59 10.59 0 0 1-3.72 2 15 15 0 0 1-4.78.69 23.92 23.92 0 0 1-6.85-1.22m-14-11.52v12.2h-8.34v-12.2l-10.4-20.23h9.18l5.37 11.67 5.46-11.68h9zm-21 12.2l-1.92-5.84H171.4l-1.86 5.84H161l11.36-32.5h8.4l11.4 32.5zm-30.27-1.17a20.47 20.47 0 0 1-7 1.17H135.7V127.3h10.6a19.68 19.68 0 0 1 6.91 1.12 14.62 14.62 0 0 1 5.15 3.18 13.86 13.86 0 0 1 3.18 5 18.14 18.14 0 0 1 1.06 6.48v.53a19.57 19.57 0 0 1-1.06 6.53 13.72 13.72 0 0 1-8.39 8.34m-21.5 1.17h-8.34V127.3h8.34zm-19.7 0l-5.47-10h-3v10h-8.25V127.3H108c4.35 0 7.6 1.12 9.7 3.3a8.93 8.93 0 0 1 2.07 3.18 12.19 12.19 0 0 1 .75 4.35v.22a10.09 10.09 0 0 1-1.6 5.89 10.66 10.66 0 0 1-4.19 3.61l6.64 11.73H112v.06zm-19.22-24.86H79.12v5.73h12.26v7.17H79.12v11.95h-8.34V127.3h22v7.5zm-35.67 13h-.32c-4.83 0-8.23-3.35-8.23-7.8a8.31 8.31 0 0 1 2-5.57l3.2 2.33a4.6 4.6 0 0 0-1.37 3.23c0 2.07 1.8 3.6 4.46 3.6h.2c3 0 4.62-1.6 4.62-3.66a3.08 3.08 0 0 0-.48-1.86h-2.36v2.55h-3.23v-6.48h7.7a10 10 0 0 1 2 6c0 4.4-3.13 7.75-8.17 7.75m7.93 8.2H52.57v4H48.8V147.9h3.77v4H65v4.2zm-16.2-28.78H65v4.14H48.8zm196.5 41.36V149.3l23.25 23.26v-38.8L229.8 95H191l23.26 23.25h-38.73L152.28 95h-38.76l23.26 23.25H98L74.7 95H35.9l23.26 23.25H39.78v19.38l-23.26-23.25v38.8l38.8 38.8h38.8L70.9 168.75h38.8L133 192h38.8l-23.25-23.25h38.8l23.2 23.25h38.8l-23.47-23.3z"/><path class="B" d="M146.4 134.77H144v17.46h2.4a7.62 7.62 0 0 0 5.58-2.07c1.43-1.38 2.12-3.5 2.12-6.42v-.43c0-2.92-.7-5.1-2.12-6.47a7.54 7.54 0 0 0-5.58-2.07"/><path d="M70.8 159.63h8.33V147.7H91.4v-7.17H79.12v-5.73h13.65v-7.5h-22zm41.32-20.77a4.08 4.08 0 0 1-1.16 3.08 4.71 4.71 0 0 1-3.3 1.11h-4.08v-8.44h4.08a4.93 4.93 0 0 1 3.3 1.06 4 4 0 0 1 1.22 3.13v.06zm6.75 5.46a10.14 10.14 0 0 0 1.59-5.89v-.2a12.18 12.18 0 0 0-.74-4.35 8.23 8.23 0 0 0-2.08-3.19c-2.12-2.18-5.36-3.3-9.7-3.3h-12.7v32.33h8.28v-10h3l5.46 10h9.4L114.72 148a11.58 11.58 0 0 0 4.15-3.67m4.5 15.3h8.34V127.3h-8.34zm30.78-15.92c0 2.92-.7 5-2.12 6.42a7.73 7.73 0 0 1-5.58 2.07h-2.4v-17.47h2.4a7.65 7.65 0 0 1 5.58 2.07c1.43 1.38 2.12 3.56 2.12 6.48zm8.5-.06v-.53a19.31 19.31 0 0 0-1.06-6.48 13.23 13.23 0 0 0-3.18-5 13.62 13.62 0 0 0-5.15-3.18 19.91 19.91 0 0 0-6.91-1.12h-10.6v32.35h10.45a19.52 19.52 0 0 0 7-1.17 13.73 13.73 0 0 0 5.15-3.24 14.09 14.09 0 0 0 3.19-5 19 19 0 0 0 1.11-6.59m10.85 3.5l3-9.45 3 9.45zm-1.1-20L161 159.66h8.55l1.86-5.84h10.14l1.9 5.84h8.7l-11.42-32.5zm33.35.17L200.3 139l-5.42-11.68h-9.2l10.4 20.22v12.1h8.34v-12.18l10.4-20.12zm28.1 30.04a10.2 10.2 0 0 0 2.45-3.19 9.83 9.83 0 0 0 .9-4.24v-.1a8.4 8.4 0 0 0-.69-3.61 8.93 8.93 0 0 0-2-2.71 12.7 12.7 0 0 0-3.13-2.07 31.48 31.48 0 0 0-4.14-1.59 26 26 0 0 1-2.5-1 11.26 11.26 0 0 1-1.59-.9 2.45 2.45 0 0 1-.8-.85 1.94 1.94 0 0 1-.21-1 2 2 0 0 1 .75-1.54 3.34 3.34 0 0 1 2.17-.58 9.25 9.25 0 0 1 3.93.85 16.21 16.21 0 0 1 3.61 2.12l4.14-6.16a17.26 17.26 0 0 0-5.41-3 19.4 19.4 0 0 0-6.16-.9 15.26 15.26 0 0 0-4.78.74 10.26 10.26 0 0 0-3.66 2.08 8.81 8.81 0 0 0-2.29 3.13 10 10 0 0 0-.79 4v.12a8.79 8.79 0 0 0 .74 3.77 8.17 8.17 0 0 0 2.12 2.71 15.57 15.57 0 0 0 3.3 2c1.27.58 2.65 1.1 4.2 1.64a23.75 23.75 0 0 1 2.34.91 5.87 5.87 0 0 1 1.43.79 2.57 2.57 0 0 1 .74.8 1.72 1.72 0 0 1 .22.9v.05a2 2 0 0 1-.85 1.7 4.22 4.22 0 0 1-2.5.64 10.56 10.56 0 0 1-4.56-1 18.74 18.74 0 0 1-4.2-2.65l-4.4 6.05a18.46 18.46 0 0 0 6.22 3.61 22 22 0 0 0 6.95 1.11 15.48 15.48 0 0 0 4.78-.69 9.36 9.36 0 0 0 3.66-2M52.55 148h-3.77v12.16h3.77v-4H65V152H52.55zm2.98-13.9v6.47h3.23V138h2.4a3.23 3.23 0 0 1 .48 1.86c0 2.07-1.64 3.67-4.62 3.67h-.2c-2.7 0-4.46-1.6-4.46-3.6a4.6 4.6 0 0 1 1.33-3.19l-3.2-2.34a8.34 8.34 0 0 0-2 5.58c0 4.46 3.4 7.8 8.23 7.8h.32c5 0 8.17-3.34 8.17-7.75a9.94 9.94 0 0 0-2-5.94zm9.47-6.74H48.82v4.14H65z" fill="#282828"/></svg>