<svg xmlns="http://www.w3.org/2000/svg" viewBox="0 0 285.19 285.19"><style>.A{fill:#fff}.B{fill:#ce2540}</style><path d="M177.66 195.72a3.87 3.87 0 0 0-5.2 2.06 4 4 0 0 0 3.21 5.44c2.64.13 3.5-1.47 4.8-3.47l6.65 3.33c-1.4 2.45-2.63 4.5-5.07 6a11.5 11.5 0 0 1-17.43-9.8c.18-4.95 2.64-8.4 7-10.57a11.73 11.73 0 0 1 9.39.29c2.82 1.3 4.2 3.4 5.94 5.85l-6.74 3.34c-.64-.8-1.47-2-2.53-2.42zm-116.92-7.64a11.6 11.6 0 0 1 7.2 4.84 12.28 12.28 0 0 1 2 6.38 11.59 11.59 0 0 1-5.09 9.49 11.45 11.45 0 1 1-6.37-21h1.16l1.13.2zm24 0a11.6 11.6 0 0 1 7.2 4.84 12.37 12.37 0 0 1 2 6.38 11.59 11.59 0 0 1-5.09 9.49 11.45 11.45 0 1 1-6.37-21h1.16l1.13.2zm69.68 0a11.44 11.44 0 1 1-8.67 20.71 11.42 11.42 0 0 1-4.87-11.79 11.56 11.56 0 0 1 7.8-8.64 12.64 12.64 0 0 1 5.71-.28zm55.66 1.24l-5.87 7.1 7.4 14.13h-8.86l-4.22-8-2.52 2.7v5.1h-7.8v-35.2h7.8v19.38l4.33-5.2zm15.75 11.54l5.3 3.28c-1.83 2.63-3.4 4.6-6.42 5.82a11.46 11.46 0 1 1-4.17-22.13 11.22 11.22 0 0 1 7.41 2.71c2.62 2.3 3.44 4.83 4.18 8.07l-6.3 2.25zM131.06 191c.1 3.6.07 7.36.07 11 0 .32 0 .46.35.53h8.9v7.8H129.5c-3.85-.27-6-2.47-6.28-6.35v-28.82H131l.07 15.9zm-89.24-7.75v6.26h4.65v7.8h-4.7v13H34v-28.63c.48-3.35 2.38-6 5.82-6.53h9.36v7.75h-7c-.12 0-.2.07-.3.1v.3zM241 205.88c-.08-2.27-.08-4.8-.08-7.07.14-1.5.2-1.56 1.68-1.67h4.6v-7.8c-4.37 0-8.82-.9-11.95 2.66a8.32 8.32 0 0 0-2.06 5.23v13.1h7.8v-4.47zm-142-16.3h-3.67v7.8h3.74c0 3.08-.48 6.36.5 9.3 1.65 3.3 3.6 3.74 7.3 3.67h3.76v-7.8H107v-.07c-.16-1.62-.07-3.46-.07-5.1h3.74v-7.8h-3.74v-7.06h-7.8v7.06zm148.66 15.3a3.2 3.2 0 1 1-.61 0h.6zm-123.02-39.35c.85-2.87.1-6.64-.23-12.1-1.6.36-2.55.43-3.85-.57a42.76 42.76 0 0 0-8.74-5.35 51.12 51.12 0 0 1-19.06-15.85c-1.47-2-1-5 .76-7.43a31.34 31.34 0 0 1 8.33-8.39 1.28 1.28 0 0 1 1-1.49c1-.5 1.6-2.23 2.7-2.16.85.07.6 1.6.5 2.4-.07.55.18 1.28.78.7s1-2.13 2.4-2.25a3.61 3.61 0 0 0 3.39-3c.44-1.44 2.36-2.55 3.65-3.38.7-.43 1.68.07 2.25-.4 1.83-1.56 1.88-1.15 2.68-1.9.46-.44 1-2.34.34-2.16-1.76.5-2.8 1.52-4.28 1.88-2.1.55-1.63 2.86-5.32 4.45-1.77.75-3 2.62-4.77 3.88-.2.14-.46-.44-.46-.7a1.86 1.86 0 0 1 .62-1.54c.25-.25 1 0 1.2-.27a28.12 28.12 0 0 1 10.37-7.51c2-.78 4.68-2.54 5.5-2.2s-2.55 1.12-1.24 4.8c.83 2.32-.1 5-.45 7.4-.2 1.47.87 4.72 0 5.23s-1.07-2.64-1.83-2.85c-1.33-.36-4.57 2.23-4.57 4.6 0 .85-.92.6-2.68 1.44-1.33.62-1.38 2-2.1 3.3-.14.27.4 1.28.55 1.07 1.17-1.42 1.6-1 3-1.5.76-.25 1.3-2.1 2.62-2.53 1-.3.78-3.67 1.35-2.84s1.3-.55 1.88-1.08c.87-.75.87 4.1 1.62 3.26.23-.25.9-.67 1.27.2a13 13 0 0 1 1.12 4.9c.1 5.07.94 10.28.23 15.5a23.48 23.48 0 0 0 2.15 12.63c1 2.1.44 3.45 0 5-.5 1.86-.2 4.16.28 6.68a11.26 11.26 0 0 1-3 .07zm3.58-15.8c.07.3-1.13-.16-1.26-.46-1.86-4 0-7.56-.7-12.38-.7-5.2.8-11.42-.8-16.95-1.26-4.38-2.86-8-.82-14.52.48-1.58.55-3.4 1.6-4.9.83-1.12 2.68.14 3.7-1 1.2-1.26 2.25-1.2 3.14-1.67 1.72-.72.25-3.9 2.18-3.42.5-1.75.2-3.35-2-5.2-1.72-1.45-3.53-2.78-3.44-6.82-1.93-4.4-3.5-9.14.28-12.3 1.56-.35 0-4.3 4.63-4.38 3.62-4.68 4.93-1.44 7-2.2a6 6 0 0 1 7.34.91c6.7-1.53 3.94 4.1 3 6.4.27.62.16 1.6.53 2.14.53.78.94.8 1.28 1.7.67.43.2 1.58.12 1.58.07 2.4 1.65 2.7 2.68 3.94.46.57.16.9-.14 1.3s-1 .75-1.14 1.4.3 1 .34 1.57a1.16 1.16 0 0 1-.49 1.07c.26.26.6.42.6.87.1.8-1.45.63-.73 2.34 1.56 2.53-1.24 3.5-3.26 3.8-2.13.87-1.3 2.07.27 2.44 2.57 1.5 3.8 4.17 5.72 3.3.18 3.1 2.93 4.3 3.25 6.83a22.06 22.06 0 0 0 1.38 9c.14 4.56-1 9.35-.55 13.8.57 6.17 1.36 11.2-.25 16.15-1.72 5.3 1.12 5.43.66 7.66-.87 4.2.32 6 .95 8.07.53 1.73-.08 3.56.55 5.46a9.88 9.88 0 0 1-2.43-.27 34 34 0 0 1-2-10c-.2-2.34 1.7-4.24.94-6.44a13.07 13.07 0 0 1 0-8.77c1.05-3 .64-6.53-.28-9.56-.25-.8-2.1.1-2.2 1.33-.46 5.05 0 9.73-.25 14.8-.4 6.75 1.24 12.25.83 18.33a12.94 12.94 0 0 1-3.26.55c-.8-11.54-.64-22.57-1.24-33.67 0-1.12-2.47-2-2.57-1.07-1.16 11.67 1.52 22.84 1.06 34.47a22.06 22.06 0 0 0-3.81.27c-1.94-20.85-.3-41.65-1.07-62.36 0-1.23-2.4-.74-2.45.28-1.27 20.94.64 41.58-.28 62.1-1.67.13-2.57-.37-4.35 1 .38-9 1-18.24.55-27.5-.55-11.76 0-23.87.66-35.68 0-1.08-3 .45-3.12 1.5-1.17 9.95-.6 20-.8 30.07-.2 10.3 0 20.66-.55 30.92a11.56 11.56 0 0 1-2.73.27c-.9-6-.07-12.27 0-18.32v-19.3c.07-7.8-.2-15.55.53-23.65.05-.62-1.08 1.88-1.35 1.36-.5-1 .53-2.23.27-3.3s-1.56-.46-1.65.83c-.77 8.7-.1 13.2-1.2 19.57-1.28 7.54 1.36 12.75.4 19s.8 8 .53 11.2c-.36 4.6-.75 7.57.14 12.08-1.24.55-1.53.35-3.12.26-.1-2.85.8-5.46.14-8.08-1.08-4.3 1.2-4.08.66-5.87-1.62-5.38-1.28-10.46-.94-15.6.85-12-1.42-24.27.94-32.82.7-2.57-3.73 4.23-4.1 6.83-.53 3.6 1 7.7 1.24 11.33a125.75 125.75 0 0 1 .41 13.28c-.23 4.77-.46 9.52.85 15zM164.66 165l-1-8.14c-.32-3.12.53-3.8.16-8.33-.32-4.15 0-8.2-.16-12.57-.17-3.7 1.24-7.7 0-11.17-.85-2.4-.2-4.72.34-7.1a20.36 20.36 0 0 0-.53-9c-.85-3.28-1.1-6.42-2.48-9.93 5.43 1.2 10.2 2.84 14.3 5.66 3.08 2.1 5.05 3.93 7.4 5.66 6.12 4.5 13.14 8.36 16 15.23a4.41 4.41 0 0 1-.71 4.27c-6.84 7.38-15 13.3-22.73 18.24-1 .62-1.8.43-2.64.7-1.88.63-2.9 2.94-4.43 3.35-.94.26-2.22-.55-2.45.55-.48 2.34.14 4.84 0 7.25-.07 1.8.26 3.67.32 5.5l-1.4-.17z"/><path class="A" d="M59.53 188.8a19.37 19.37 0 0 1 3 .77c4 2 6.27 5.2 6.45 9.73a10.54 10.54 0 0 1-20.87 2.11 10.53 10.53 0 0 1 4.45-10.85 11.13 11.13 0 0 1 7-1.76zm24 0a19.37 19.37 0 0 1 3 .77c4 2 6.27 5.2 6.45 9.73a10.54 10.54 0 0 1-20.87 2.11 10.53 10.53 0 0 1 4.45-10.85 11.13 11.13 0 0 1 7-1.76zM42.1 182c-1 .2-1.15.67-1.24 1.67v6.84h4.66v6h-4.66v13h-6v-27.76c.37-2.82 2.07-5.23 5-5.68h8.37V182H42.1zm67.6 21.5a10.63 10.63 0 0 1-3.3-.11 2.19 2.19 0 0 1-.4-1.39v-5.5h3.73v-6H106v-7.06h-6v7.06h-3.75v6H100c0 2.75-.32 6.2.14 8.9a5.09 5.09 0 0 0 4.36 4h5.23z"/><path class="B" d="M58.45 189.66a9.64 9.64 0 1 1-9.63 9.64 9.66 9.66 0 0 1 9.63-9.64zm24 0a9.64 9.64 0 1 1-9.64 9.64 9.66 9.66 0 0 1 9.61-9.64zm18.48 14.57a4.19 4.19 0 0 0 4.13 4.29h3.76v-4.13h-2.24c-1-.23-1.47-1-1.5-2.37v-6.46h3.74v-4.13H105v-7.07h-4.13v7.07h-3.7v4.13h3.74zm-53.6-23.16V177h-7.4a5.19 5.19 0 0 0-4.13 5.44v26.1h4.13v-13h4.66v-4.13h-4.66v-7.8c0-1.54.7-2.38 2.06-2.55z"/><path class="A" d="M58.45 193.52a5.78 5.78 0 1 1-5.78 5.78 5.81 5.81 0 0 1 5.78-5.78zm24 0a5.78 5.78 0 1 1-5.78 5.78 5.82 5.82 0 0 1 5.75-5.78zm96.76 2.07a5.22 5.22 0 0 0-2.82-1.16 4.86 4.86 0 1 0 3.79 7.53l.64-1 5 2.53c-1.67 2.93-3.53 5-6.85 6a10.61 10.61 0 0 1-13-7 11.51 11.51 0 0 1-.25-5.25 10.5 10.5 0 0 1 18.8-4.11l1 1.38-5.07 2.5c-.4-.5-.83-1-1.27-1.42zm-26-6.8a10.79 10.79 0 0 1 7.66 4.63 10.58 10.58 0 0 1-1.28 13.32 10.8 10.8 0 0 1-9.57 2.87A10.53 10.53 0 0 1 150 189a14.79 14.79 0 0 1 3.19-.18zm47.64 1.44h7.3l-5 6.07 7 13.33h-6.8L198.7 201l-3.58 4v4.5h-6v-33.44h6v21zm28.3 2.94A15.67 15.67 0 0 1 231 198l-13.72 4.9a4.85 4.85 0 0 0 7-.58l.7-.9 4.8 3c-1.83 2.64-4 4.64-7.27 5.23a10.64 10.64 0 0 1-9.45-2.91 10.49 10.49 0 0 1-1.83-12.48 10.61 10.61 0 0 1 8.21-5.46c3.7-.16 6.72.85 9.1 3.72zm-99-17.1l.13 26c0 .92.28 1.24 1.17 1.42h8.07v6h-9.9c-3.83-.32-5.33-2.4-5.44-6.12v-27.3zm110 33.36l-.07-10.66c.23-2 .57-2.4 2.57-2.55h3.7v-6c-3.94 0-7.54-.75-10.34 2.34a7.5 7.5 0 0 0-1.84 4.66v12.15z"/><path d="M58 194.46a4.86 4.86 0 1 0 5.36 4.84 4.87 4.87 0 0 0-5.36-4.84zm24 0a4.86 4.86 0 1 0 5.36 4.84 4.86 4.86 0 0 0-5.45-4.84z"/><path class="A" d="M57.67 195.42a4 4 0 0 0 .36 7.8 4.24 4.24 0 0 0 1.93-.3 3.94 3.94 0 0 0-1.96-7.54h-.36zm24 0a4 4 0 0 0 .36 7.8 4.24 4.24 0 0 0 1.93-.3 3.94 3.94 0 0 0-1.96-7.54h-.36z"/><path class="B" d="M184.18 194.12l-3.48 1.74a5.76 5.76 0 1 0 .41 6.29l3.44 1.72a9.64 9.64 0 1 1-.37-9.75zm-32.1-4.46a9.64 9.64 0 1 1-9.63 9.64 9.67 9.67 0 0 1 9.63-9.64zm42.1 9.9l7-8.42h4.9l-4.17 5 6.56 12.53h-4.73l-4.9-9.36-4.7 5.2v4h-4.13V177h4.13zm40.87 9h4.13l-.07-9.8c.07-2.7 1.4-3.42 3.47-3.42h2.8v-4.16H241a6.22 6.22 0 0 0-5.92 6.12v11.22zm-14.54-18.86a9.64 9.64 0 1 0 8 15l-3.28-2a5.71 5.71 0 0 1-9.47-.13l14.2-5.07a9.54 9.54 0 0 0-9.43-7.76zm-95.5 13V177h4.13l.14 25.07a2.09 2.09 0 0 0 2 2.32h7.27v4.13h-8.18c-4.33.13-5.5-2.32-5.4-5.9z"/><path class="A" d="M223.72 201.6l-4.22 1.5a3.88 3.88 0 0 0 4.22-1.49zm-71.63-8.07a5.78 5.78 0 1 1-5.78 5.78 5.81 5.81 0 0 1 5.78-5.78zm72.4 1.58a5.74 5.74 0 0 0-4-1.58 5.81 5.81 0 0 0-5.71 4.93l9.68-3.35z"/><path d="M216.27 197l6.2-2.15a4.81 4.81 0 0 0-6 1.79l-.25.36zm-64.68-2.52a4.86 4.86 0 1 0 5.41 4.82 4.87 4.87 0 0 0-5.41-4.84z"/><path class="A" d="M151.3 195.42a3.94 3.94 0 1 0 1.56 0 6.78 6.78 0 0 0-1.56 0zm95.8 10a2.52 2.52 0 1 1-2.54 2.5 2.51 2.51 0 0 1 2.54-2.55z"/><path d="M246 209.53v-3.3h1.28a1.64 1.64 0 0 1 .63.12.59.59 0 0 1 .32.3 1.11 1.11 0 0 1 .14.51.81.81 0 0 1-.21.57.9.9 0 0 1-.63.3c.12 0 .17.16.2.16a4.88 4.88 0 0 1 .37.45l.46.88h-.46l-.4-.67c-.1-.2-.2-.3-.25-.4a1.73 1.73 0 0 0-.21-.25.33.33 0 0 0-.21 0c0-.07-.1-.07-.2-.07h-.42v1.44h-.4z"/><path class="A" d="M246.4 207.74h.83c.16 0 .3-.07.4-.07a.6.6 0 0 0 .21-.21.62.62 0 0 0 .09-.3.56.56 0 0 0-.14-.41.69.69 0 0 0-.48-.14h-.92zm-144.26-90.87c-3 1.95-5.94 5.43-8.26 8.6a5.24 5.24 0 0 0 .23 6.33 60.92 60.92 0 0 0 22 16.56c4.07 1.9 4.25 3.5 6.87 3.32.34 0 2.06-.66 1.9-1.08-.76-1.8-.35-4.15-1.06-6-1.07 0-3 1.58-4.24 2.36-1 .62-2.2.4-3-1.74-9.47-5.76-17.18-12.4-19.26-21.33 2.6 0 5.25-1.75 6.9-3.72a5.18 5.18 0 0 0-2.06-3.32zM108 118c.13 1.7 1.2 2.55 2.45 3.72 2.36-1.74.85-3.76 5.5-6.06.1-3.48 3.2-2.5 4.68-4.28-.07-1.2.57-2.27.46-3.53-2.08-.3-.92 1.85-5.1 1.8.1 3.28-5.37 3.37-6.52 7A4.68 4.68 0 0 0 108 118zm35.76-17.2c-2.1-1.26-3.77-3-6.17-3.58-1.25-.82-.65-2.15-.83-3.36l1.27-9.5c-.76-.4-3.47-3.54-1.38-5.7.92-1 3-.3 3.46 1.8l2.44-.42a1.52 1.52 0 0 1 .73-1c-.57-1.26-.07-2.13 1.56-2.64 2.06-.46 1-3.23 2.23-3.26l2.82.32c.7.4.7 1.4-.12 1.3-3.82 1.45-2 1.54-2.72 2.27l-.95.94c-.5.46-.5.94 0 1 1.5-.4 1.9.46 3.17.12 1.28.13.48 1 .3 1.26-1.95 1.1-2.9 2.36-3.14 3.78 1.12 2 1.7-.64 2.93-.6 1.63.2 2.18-1.17 2.52-2.12a2.68 2.68 0 0 1 1.27-2.84 9.16 9.16 0 0 1 1.68 1.79 3.38 3.38 0 0 1-1.68 1.15c-1 1.16.4.85.94 1a1.32 1.32 0 0 1 0 .85 53.01 53.01 0 0 1-1.58 1.47c-1.06.66-.76 1.17.23.85.27-.1.55-.2.82-.32 1-.16.87.58.32.85-.48.7-1.2.34-1.67 1 .24.76 1 1 1 1.87.4 2-2 1.2-3.32.9s-2.16-1-3.47-.9c-1.56.3-1.56 2-2.9 1.6a3.16 3.16 0 0 0-2.93 1.9c0 1.17 1.42 1 2.1 1.47 1.3.46-.1 1.67.3 3 .43 1.72 2.36 2.9.7 3.78zm7.43 16.4c1.12 0 2.24-.1 3.37-.18-.65-4.5-.14-12-3.93-13.7.44 4.56-.22 9.12.56 13.87zm.43 2l-.07 1.42c3.4.23 6-.07 9-.1 0-.44 0-.88.1-1.3-4.3.4-5.72-.4-9.03-.08zm.07 2.13c0 .55.4.53.26 1.17a121.78 121.78 0 0 1 8.69-.36c-.07-.4.16-.32.1-.7-2.85-.3-6.14.22-9.06-.1zm4.4-19.08c1.2 4 .92 8.5 1.63 12.4-.43 1.1 0 1.4-.37 2.08.85.76 1.52.78 2.16.3a4 4 0 0 0-.18-3.59c.76-4.87-.44-8.54-3.24-11.18zm-2.72-1c-.28.85-.92 2-2.37 1.15-1.2-.7-.75-1.83.2-1.7.66.1.8.78 1.23 1.22.28.27.7-.26 1-.67zm16.23 41.12a44 44 0 0 0 13.76-15.59c1.2.54 2.87.6 3.7 1.58 1.9 2.18 1.12 4.84-.7 6.38a13.26 13.26 0 0 1-8.3 3.18c-1.3 0-2.1 2.18-2.82 2.66-1.93 1.33-3.54 2.2-5.65 1.8zm-5.75-41.3c1.76.1 2.6 2.22 3.2 1.24 3.33-.57 3.48 1.62 5.66 2.8.67 1 1.36 1.68 2.48 1.6 1.72 1.67 3.46 3.5 4.8 3.44 1.77 1 1.8 1.95 1 3-.5.85-1.06.74-1.68-.32-2.8-2.36-5.62-5-8.62-6.42a3.87 3.87 0 0 0-3.19-1.86c-3-.46-3.8-1.8-3.7-3.46zm.57 5.48l.55 3.37a6.26 6.26 0 0 0 3.6.55c.25 1.54.94 2.2 2.07 2 3 1.56 4.84 4.1 7.52 5.7a2.94 2.94 0 0 0 .71-3c-3.56-1.67-5.1-4.45-8-5.22a8.23 8.23 0 0 0-2.31-2.74 32.74 32.74 0 0 1-4.15-.65zm3.12 11.63c0 1-1.28 1-1-.07l-.9-4c.16-1.38.78-1.53 1.77-.57 2.34 3 6.45 4 9 6.77 1.14 1-.28 2.47-.65 2.15-2.9.16-4.8-2.1-6.46-4.1-.38-1.36-1.5-1.8-1.84-.16zm-44.16 8.94c1.58 4.2 1.15 10.1.6 15.74-1.23 1.88-2.6 2-4.2.5-4.36-3-8.26-8-11.9-14.33 1.77-1.38 3.3-.85 5.8-2 .3-.4.2-.78.3-1.2a4.08 4.08 0 0 1 3.09-1.9c1 1.46 1-1.54 3.7-1.6-.6 5.62 1.8 9.43 3 13.15.46-2.33-.57-5-.4-8.34zM165.53 142c1.15.86 2.25.63 3.54-.34 5.1-3.78 9.4-9 13.2-15.06a3.51 3.51 0 0 0-2.64-1.59c-1.13.9-2.25-.7-3.35-1.05-2.18 1.88-4.36-1.54-6.52-2.32-.82 2.85-.4 5.42-1.6 7.8-1 2-.35 4-.7 5.66-.46 2.3-1.3 4.62-1.95 6.9zm.2-6.2c.1-4.54.6-8.7.18-13.46-.07-2.66 1.8-2.32 1.6-.2a102.89 102.89 0 0 1-1.77 13.65zM143 105c.27 0 .34.18.34.53a.58.58 0 0 1-.5.62c-.28 0-.5-.1-.5-.46a.76.76 0 0 1 .65-.69zm-.23 6a.44.44 0 1 1 0 .87.44.44 0 1 1 0-.87z"/><path d="M137.2 81.4c.48-.4.82-1.45 1.48-1.2-.36-1.36-1.07-1.3-2.24.13.66.4.92.74.76 1.06zm.66 1.2c.28-.73.46-1.65 1.2-1.58s1 .75 1 1.42-1.3.62-1.33-.2l-.83.37z"/></svg>