<svg xmlns="http://www.w3.org/2000/svg" viewBox="0 0 66 45"><path d="M33 .1H.1V11H11v22.4h11.1V10.9H33V.1zm10.9 0h22V11h-22V.1zm0 21.8v-11H33v22.4h32.9V21.9h-22zm-39.2 16v6.8H2.8v-6.8H.1v-1.4h6.8v1.4H4.7zm7.3 4H8.2c.1.9.7 1.3 1.3 1.3.5 0 .8-.1 1.1-.4l1.2 1c-.5.6-1.4 1-2.3 1-1.8 0-3-1.3-3-3.3 0-1.9 1.2-3.3 2.8-3.3 1.7 0 2.7 1.4 2.7 3.2v.5zm-2.7-2c-.6 0-1 .2-1 1.1h2.2c-.1-.9-.5-1.1-1.2-1.1zm6.7 5c-1.6 0-3-1.3-3-3.3 0-1.9 1.3-3.3 3-3.3 1.2 0 2 .6 2.5 1.4l-1.1 1.1c-.3-.5-.7-.8-1.4-.8-.8 0-1.3.7-1.3 1.7s.5 1.7 1.3 1.7c.6 0 1.1-.3 1.5-.8l1.1 1c-.6.7-1.4 1.3-2.6 1.3zm7.5-.3v-3.2c0-1.1-.2-1.5-.9-1.5s-.9.3-.9 1.4v3.3h-1.8v-7.7l1.8-.8V39c0-.3.7-.6 1.4-.6 1.6 0 2.2 1.1 2.2 2.9v3.4c0-.1-1.8-.1-1.8-.1zm8.4-5.7c-.3-.6-.8-.9-1.5-.9-1.3 0-2 1.1-2 2.7 0 1.5.7 2.7 2 2.7.8 0 1.2-.3 1.6-1.1l1.4.8c-.6 1.2-1.6 1.9-3.1 1.9-2.2 0-3.7-1.7-3.7-4.3 0-2.6 1.5-4.3 3.7-4.3 1.6 0 2.5.8 3.1 1.9l-1.5.6zm6.2 1.5c-.3-.2-.5-.4-.9-.4-.6 0-1 .3-1 1.4v3.2h-1.8v-6.3h1.8v.6c.5-.3.7-.5 1.2-.5s.9.2 1.1.4c.1 0-.4 1.6-.4 1.6zm5.3 4.2v-.2c-.5.3-.7.6-1.4.6-1.6 0-2.2-1.1-2.2-2.9v-3.8h1.4v3.6c0 1.1.4 1.5 1.1 1.5.7 0 1.1-.3 1.1-1.4v-3.6h1.8v6.3l-1.8-.1zm6.6 0v-3.2c0-1.1-.1-1.5-.8-1.5-.7 0-.8.3-.8 1.4v3.3h-1.8v-6.3h1.8v.6c0-.3.6-.6 1.3-.6 1.6 0 2.1 1.1 2.1 2.9v3.4H50zm6.2.3c-1.6 0-3-1.3-3-3.3 0-1.9 1.3-3.3 3-3.3 1.2 0 2 .6 2.5 1.4l-1.1 1.1c-.4-.5-.8-.9-1.4-.9-.8 0-1.3.7-1.3 1.7s.5 1.7 1.3 1.7c.6 0 1.1-.3 1.5-.8l1.1 1c-.6.8-1.3 1.4-2.6 1.4zm7.4-.1v-3.4c0-1.1-.2-1.5-.9-1.5s-.9.3-.9 1.4v3.3H60v-7.7l1.8-.8V39c0-.3.7-.6 1.4-.6 1.6 0 2.2 1.1 2.2 2.9v3.4h-1.8v.1z" fill="#464646"/></svg>