<svg xmlns="http://www.w3.org/2000/svg" id="Layer_1" x="0" y="0" viewBox="0 0 502.5 163" xml:space="preserve"><style>.st0{fill:#464646}</style><g transform="matrix(.5 0 0 .5 630.62 -139.69)"><path class="st0" d="M-272.8 286.7c7.7 1.3 12.8 6 12.8 14 0 2.7-1.1 6.4-1.8 9.6-5.1 22.6-25.2 102.6-33.6 156l-7.8-7.8 24.7-164.2 5.7-7.6zm-499.6 21.7c-10.3 2.5-20.5 2.4-30.5 0l15.9 16.5 14.6-16.5zm-158.5 0c10.3 2.5 20.5 2.4 30.5 0l-15.9 16.5-14.6-16.5zm-89.5 0c23.4 59.2 60.2 148.8 78.5 183L-969 483l-67.2-168 15.8-6.6z"/><path class="st0" d="M-1041.7 308.4c7.5 2.5 13.7 2.7 21.3 0l-15.1 9.3-6.2-9.3z"/><path class="st0" d="M-1031 314.8l68.4 167.9c-4 4.4-5.9 6.7-9.8 8.7-19.8-51.1-41.1-102.2-59.2-152.6l-8.9-15.1 9.5-8.9z"/><path class="st0" d="M-1089.8 491.3l-20.2-7.2 71.1-166.9 7.9-2.5v24.7c-11 32-39.1 102.1-58.8 151.9zm-16.8-207.3l6.7 15.2 17.1-7.9 6.9-7.3c-11 2.5-20.9 2.6-30.7 0z"/><path class="st0" d="M-1154.8 417l-11.6 4.3-7.3-12.8 72.6-115.9 5.2-1.8c7.2-1.6 15-3.4 20.1-6.8-11.6 15.6-53.6 88.4-79 133z"/><path class="st0" d="M-1170.6 415.1l3-3 71.8-121.3-10.8-6.7c-8.7 16.1-40.6 68.4-61 101.9l-9.8 18.3 6.8 10.8z"/><path class="st0" d="M-1228.5 284c15.9 28.2 40.3 67.7 61 101.9v26.2l-4.9 4.9-71.4-126.9 15.3-6.1z"/><path class="st0" d="M-1240.3 291.7l11.8-7.7c-12.6 2.7-17.9 2.9-30.5 0l4.9 5.5 13.8 2.2z"/><path class="st0" d="M-1167.6 412.1l-5.5 7.9-7.3-3c-13.6-23.5-53.7-95.3-78.7-132.9 5.1 3.7 11.9 5.7 19.8 7l71.7 121zm14.7 103.1l-20.7-9.8 1.8-86.6 4.3-6.7 12.8 4.9 1.8 98.2z"/><path class="st0" d="M-1167.6 508.5l-14.6 6.7 1.8-98.2 12.8-4.9v96.4zm47.6-17.1c25.4-51.9 53.7-121.4 78.3-183l10.7 6.5-69.5 169.9-14.1 4.8-5.4 1.8zm156.8-9l21.4 9c-8.2-2.1-19.3-2.9-30.4.1l4.2-10.3 4.8 1.2zm-115.3-51l15-6.4c21.6.8 43.2.7 64.9 0l15.2 6.6-14.2 3.1h-70.2l-10.7-3.3z"/><path class="st0" d="M-1068.5 437.7l-10.1-6.3c31.7-.5 63.4-.4 95.2.2l-10.1 6.1c-25-.8-50-.7-75 0zm168.1 53.7l-21.3-7.3V320l6.1-3 15.2-8.5c-3.2 60.8-3.3 121.8 0 182.9z"/><path class="st0" d="M-915.7 482.8v4.3l-15.2 4.3c2.4-60.9 2.7-121.9 0-183l15.2 8.5v165.9zm112.8 8.6l21.3-7.3V320l-6.1-3-15.2-8.5c3.1 60.8 3.2 121.8 0 182.9z"/><path class="st0" d="M-915.6 399.5l12.8-5.7c34.1.9 68.2.8 102.3 0l12.9 5.7-15.9 3.8h-99.3l-12.8-3.8zm250.8-91.1c-59.9 0-89.8 37.4-89.8 91.9 0 68.2 45.2 91.8 89 91.8 52 0 89.2-29.2 89.2-91.6.1-60.1-35.2-92.1-88.4-92.1zm-1.8 8.6h1.7c39.6 0 68.6 26.9 68.6 83.2 0 56.2-29 83.2-68.5 83.2-43.1 0-68.5-30.9-68.5-83 0-58.9 31.3-82.6 66.7-83.4z"/><path class="st0" d="M-665 306c-64.7 0-98.6 41-98.6 94.2 0 58.2 37 93.7 98.5 93.7 66.5 0 98.9-40 98.9-93.1 0-59.2-38.7-94.8-98.8-94.8zm.2 6c51.1 0 84.9 30.7 84.9 88.4 0 59.9-35.8 88-85.7 88-42 0-85.5-22.7-85.5-88.2.1-52.2 28.8-88.2 86.3-88.2zm223.5-13c-60.8 0-102.4 34.4-102.4 101.4 0 65.7 38.7 102.4 102.7 102.4 48.4 0 101.5-24.9 101.5-101.5 0-82.7-58-102.3-101.8-102.3zm-.3 7.3c48.4 0 84 29.4 84 94.2 0 70.5-43.1 93.3-83.9 93.3-43.6 0-83.4-25.6-83.4-94.7 0-71.6 44.1-92.8 83.3-92.8z"/><path class="st0" d="M-441.7 294.9c-64.4 0-113.7 36.6-113.7 104.6 0 56 32.8 105.4 114.2 105.4 68.9 0 114-37.9 114-104.4 0-62.7-42-105.6-114.5-105.6zm.4 6.9c42.6 0 99 19.1 99 99.5 0 74.5-51.6 98.7-98.7 98.7-62.2 0-99.9-35.7-99.9-99.6 0-65.2 40.5-98.6 99.6-98.6zm119.1 200c0-7.9 4.8-15.2 14.4-15.2 9.2 0 16.1 5.5 16.1 14.3 0 10.9-7.2 15-13.9 15-9.2 0-16.6-4.8-16.6-14.1zm15.3-37.2c7.4-52.6 12-107.8 16.3-162.9 0-11 7.3-15.3 14.6-15.3 1.3 0 3.2.3 3.2.3l-2 13.2-26.1 163.2-6 1.5zm-875.3 50.6l14.7-10.7 14.6 10.7s-8.1-1.5-14.6-1.5c-5.9 0-14.7 1.5-14.7 1.5zm62.2-23.8l20.5-8.8c3.1 3.7 5.9 6.9 9.7 8.8-7.4-2-18.5-2.9-30.2 0zm189.1 0c9.9-2.4 20-2.5 30.5 0l-15.2-8.5-15.3 8.5zm28.1-85.1l-12.8-6.8c42.7.4 85.3.5 128 0l-12.8 6.7c-34.2-.4-68.3-.4-102.4.1z"/><path class="st0" d="M-787.7 482.8v4.3l15.2 4.3c-2.4-60.9-2.7-121.9 0-183l-15.2 8.5v165.9z"/><path class="st0" d="M-772.4 491.4c-9.9-2.4-20-2.5-30.5 0l15.2-8.5 15.3 8.5zm472.2-33l-6.8 6.2c4.5-.8 8 .4 11.4 1.8l-4.6-8z"/><ellipse class="st0" cx="-275.3" cy="299.8" rx="14.9" ry="13"/></g><path class="st0" d="M281 142.5v-19.3h4.4v31.3c-1.8.6-3 .2-4.3-1.3-5.3-6.1-10.7-12.2-16-18.2-.6-.6-1.2-1.2-2.3-2.4v21.6h-4.5v-30.8c2.9-.7 4.9-.1 6.9 2.3 4.9 5.8 10.1 11.4 15.2 17 .1-.1.4-.2.6-.2zm-68.9.1v-19.3h4.2v31.2c-1.8.6-3.1.1-4.3-1.4-5.3-6.1-10.7-12.2-16-18.2l-1.5-1.8c-.2.1-.4.1-.6.2V154c-1 .1-1.6.2-2.2.2-1.9.3-2.5-.5-2.5-2.4.1-8.2 0-16.3 0-24.5v-4.1c2.7-.5 4.8-.3 6.8 2 5 5.9 10.3 11.6 15.5 17.4.1.1.4 0 .6 0zM325 130.7c-1 .7-1.9 1.3-2.8 2-1.1-1.2-2-2.3-3-3.2-3.1-3-6.8-4.4-11.1-2.9-4.5 1.5-6.8 5-7.3 9.4-.3 2.8-.1 6 .9 8.6 2.8 7.4 11.6 9.1 17.2 3.5 1.1-1 2-2.2 3.1-3.4.9.7 1.8 1.3 2.7 1.9-3.1 6.3-10.9 9.6-18.3 8.1-8.3-1.7-13.7-7.3-14.1-14.5-.5-8 3.7-14.2 11.3-16.7 8.8-2.9 16.6-.3 21.4 7.2zM253.6 154c-.4.1-.5.2-.5.2-6.6.4-6.7.5-9.3-5.7-.9-2.3-2.2-3.3-4.6-2.9h-.7c-2.8 0-6.1-.8-8.2.4-2 1.1-2.7 4.4-3.9 6.8-1.2 2.6-3.4.6-5.5 1.8.5-1.3.7-1.9 1-2.5 4.4-9.3 8.9-18.6 13.3-27.9.6-1.2 1.1-2.3 2.6-1.8.9.3 2 1 2.3 1.8 4.4 9.3 8.6 18.7 12.9 28 .2.7.3 1.2.6 1.8zm-17.3-21.6c-1.8 3.8-3.3 7-5 10.4h9.8c-1.6-3.5-3.1-6.7-4.8-10.4zm118.6 19v2.7H332v-30.9h22.7c.7 1.5.2 2.2-1.6 2.2h-13.9c0 3.4-.1 6.6.1 9.7 0 .4 1.2 1.1 1.9 1.1 3.1.1 6.2.1 9.3 0 1.5 0 2.1.5 1.4 2.2h-12.5v12.9c5.1.1 10.2.1 15.5.1zm-210.6 2.9v-31h21.8c.6 1.6 0 2.2-1.6 2.2-3.6 0-7.3.1-10.9 0-1.6 0-2.3.5-2.2 2.2.1 2.2.1 4.4 0 6.7-.1 1.6.6 2.1 2.1 2 3.1-.1 6.2 0 9.3 0 1.5 0 2.1.5 1.5 2.2h-12.9v6.3c0 2.4-.1 4.8 0 7.1.1 1.9-.7 2.5-2.5 2.4-1.5-.2-3-.1-4.6-.1zm29.1-31.1c.8 0 1.5-.1 2.2-.1h4.9v31h-7.1v-30.9z"/></svg>