<svg xmlns="http://www.w3.org/2000/svg" viewBox="0 0 219 224"><style><![CDATA[.A{fill:#fff}]]></style><path class="A" d="M192.92 127.6l-10.38-14.08-10.36 14.08h-4.27l12.47-17L169 95.1h4.27l9.28 12.6 9.3-12.6h4.26l-11.38 15.46 12.48 17zm-80.86 0l-12.5-17L111 95.1h-4.27l-9.28 12.6-9.32-12.6h-4.26l11.4 15.46-12.5 17h4.28L97.4 113.5l10.38 14.07zm23.74-15.8a9.29 9.29 0 0 0-2.13-1.36 7.35 7.35 0 0 0 3.91-6.5c0-2.08-.77-8.84-10.56-8.84h-13.2v14h-4.4a83.28 83.28 0 0 0-2.36 3.26h6.75v15.2H127c7.15 0 11.6-3.63 11.6-9.5a8 8 0 0 0-2.81-6.3m-18.3-13.3h9.5c2.6 0 6.9.65 6.9 5.16 0 3.42-2.52 5.46-6.9 5.46h-9.54V98.5zm9.52 25.7h-9.55v-11.83H127c3.62 0 8 1 8 5.66 0 5.37-5 6.17-8 6.17m28.75-29.84c-9.13 0-15.5 7-15.5 17s6.38 17 15.5 17 15.47-7 15.47-17-6.36-17-15.47-17m0 30.5c-7 0-11.83-5.57-11.83-13.54s4.87-13.54 11.83-13.54 11.78 5.57 11.78 13.54-4.84 13.54-11.78 13.54M27.08 91.63a27.07 27.07 0 0 0-2.52 35.66.13.13 0 0 0 .15.05.11.11 0 0 0 0-.14c-2.06-6.4 8.5-21.86 13.94-28.34a.12.12 0 0 0 0-.08.13.13 0 0 0 0-.09c-9.17-9.13-11.62-7-11.6-7.07m38 0a27.07 27.07 0 0 1 2.52 35.66.13.13 0 0 1-.15.05.12.12 0 0 1 0-.14c2.06-6.4-8.48-21.87-13.93-28.36a.1.1 0 0 1 0-.07.13.13 0 0 1 .05-.09c9.18-9.13 11.6-7 11.58-7.06m-19-7.8a26.64 26.64 0 0 1 14.1 4 .1.1 0 0 1 0 .13.11.11 0 0 1-.13 0c-5.25-1.14-13.2 3.4-14 3.84a.05.05 0 0 1-.05 0 .06.06 0 0 1-.06 0c-2-1.14-9.37-5-14-3.82h-.13a.11.11 0 0 1 0-.14 26.7 26.7 0 0 1 14.15-4m0 21.72h.08c8.1 6.16 22 21.4 17.74 25.7a27.06 27.06 0 0 1-35.65 0C24 127 37.9 111.76 46 105.6h.1"/></svg>