<svg xmlns="http://www.w3.org/2000/svg" viewBox="0 0 219 224"><path d="M178 110.52c0-4.82-3.44-9-8.27-9-5.17 0-8.27 4-8.27 8.62v.17c0 4.65 3.45 8.8 8.27 8.8 5.34 0 8.27-4 8.27-8.62m-25.33 0c0-9.3 7.4-16.7 17.23-16.7s17.1 7.28 17.1 16.4v.17c0 9.14-7.4 16.55-17.23 16.55s-17.06-7.4-17.06-16.38m-31.54 0a17.17 17.17 0 0 1 24.3-15.16c3.8 1.72 6.2 5.5 2.93 8.62a4.29 4.29 0 0 1-2.76 1.37c-1.2-1.72-2.75-4-7.75-4-4.48 0-7.76 4.3-7.76 9 0 4.83 3.1 8.8 8.1 8.8a12 12 0 0 0 9-4l4.5 5.68a17.91 17.91 0 0 1-13.79 6 16.34 16.34 0 0 1-16.72-16.38m-18.78 4v-12.36h-3.87v-7.76h3.8V87.1h9v7.23H118v7.76h-6.72v12.06a4.19 4.19 0 0 0 4 4.31 18.07 18.07 0 0 0 3.28-.17V126a15.25 15.25 0 0 1-4 .35c-6 0-12.23-3.28-12.23-11.9m-14.63-8.6c-.34-2.76-2.07-5.17-5.34-5.17-2.93 0-6 2.24-6.38 5.17zm-21 4.65c0-9.13 6.37-16.7 15.68-16.7 10.68 0 13.78 8.27 13.78 13.44 0 4.65-5.86 5-7.58 5H75.64c.86 4.13 3.8 7.06 7.75 7.06a13.78 13.78 0 0 0 9.14-4l3.8 6.2a17.8 17.8 0 0 1-13.1 5.35c-9.65 0-16.54-6.73-16.54-16.38m-12.24.18c0-5.35-2.76-9.14-7.07-9.14s-7.06 3.8-7.06 9.14 3.27 8.8 7.06 8.8c3.8-.18 7.07-3.62 7.07-8.8m8.8-.52c0 8.1-4.3 16.54-14.13 16.54-4.83 0-6.38-1.38-8.45-3.27v7.75c0 6.38-8.6 5.7-8.6 5.7V94.32H40v3.62c2.2-2.94 5.65-4.13 10.3-4.13 8.1 0 12.93 8.27 12.93 16.37" fill="#fff"/></svg>