<svg xmlns="http://www.w3.org/2000/svg" viewBox="0 0 219 224"><style><![CDATA[.A{fill:#fff}]]></style><path class="A" d="M29.3 106H18.85v-3.25a14.25 14.25 0 0 0-.3-3.84 1.34 1.34 0 0 0-1.42-.78 1.37 1.37 0 0 0-1.32.67 9.74 9.74 0 0 0-.34 3.4v17.17a9 9 0 0 0 .35 3.17 1.36 1.36 0 0 0 1.39.76 1.56 1.56 0 0 0 1.55-.86 9.08 9.08 0 0 0 .41-3.36v-4.24h-2.1v-5.44H29.3v19.2h-6.58l-1-2.56a7.05 7.05 0 0 1-2.7 2.49 8.42 8.42 0 0 1-3.84.83 11 11 0 0 1-4.94-1.14 9.19 9.19 0 0 1-3.49-2.82 8.41 8.41 0 0 1-1.49-3.52 37.55 37.55 0 0 1-.3-5.54v-10.6a32 32 0 0 1 .62-7.44 7.81 7.81 0 0 1 3.57-4.26 13.63 13.63 0 0 1 7.62-1.93 15.58 15.58 0 0 1 7.63 1.68 8.35 8.35 0 0 1 4 4 19 19 0 0 1 .92 6.7v1.5zm11.9 4.64h-9.42v-2a12.44 12.44 0 0 1 .88-5.24 7.73 7.73 0 0 1 3.54-3.26 14.6 14.6 0 0 1 6.91-1.42c3.4 0 6.4.54 8.12 1.6a6.32 6.32 0 0 1 3.11 3.94 54.66 54.66 0 0 1 .52 9.6v14.72h-10.2V126a6.08 6.08 0 0 1-2.37 2.35 7.26 7.26 0 0 1-3.47.78 9.17 9.17 0 0 1-4.81-1.27q-2.2-1.32-2.2-5.76v-2.4c0-2.2.4-3.7 1.16-4.5s2.7-1.72 5.8-2.78c3.3-1.15 5.06-1.93 5.3-2.32a5.57 5.57 0 0 0 .35-2.43 7.53 7.53 0 0 0-.38-3 1.36 1.36 0 0 0-1.29-.69c-.67 0-1.1.2-1.26.58a10.42 10.42 0 0 0-.25 3v3.07zm3.18 4c-1.6 1-2.54 1.92-2.8 2.63a9.56 9.56 0 0 0-.38 3 8.07 8.07 0 0 0 .33 2.94 1.36 1.36 0 0 0 1.33.66c.63 0 1-.17 1.23-.52a7.21 7.21 0 0 0 .29-2.73v-6zM67.8 99.32l-.17 2.8a7.55 7.55 0 0 1 2.78-2.49 8 8 0 0 1 3.68-.83 7.33 7.33 0 0 1 6.34 3.32 8.55 8.55 0 0 1 2.86-2.49 8.31 8.31 0 0 1 7.77.28 4.89 4.89 0 0 1 2.15 2.7 20.65 20.65 0 0 1 .47 5.21v20.83h-9.75v-19.1a21.68 21.68 0 0 0-.28-4.65 1.25 1.25 0 0 0-1.33-.9 1.31 1.31 0 0 0-1.38.89 19.58 19.58 0 0 0-.31 4.66v19.1h-9.75V110a31.48 31.48 0 0 0-.23-5.17 1.19 1.19 0 0 0-1.31-.87 1.55 1.55 0 0 0-1.14.46 1.61 1.61 0 0 0-.52 1.1l-.05 2.77v20.33H57.55v-29.3zm52.1 15.18h-13v6.34a6.3 6.3 0 0 0 .32 2.57 1.3 1.3 0 0 0 1.24.57 1.53 1.53 0 0 0 1.53-.76 7.4 7.4 0 0 0 .39-3v-3.82h9.52v2.17a17 17 0 0 1-.39 4.17 8 8 0 0 1-1.8 3.12 8.7 8.7 0 0 1-3.59 2.49 15.53 15.53 0 0 1-5.46.83 17.83 17.83 0 0 1-5.62-.82 9.36 9.36 0 0 1-3.79-2.24 8 8 0 0 1-1.88-3.12 18.48 18.48 0 0 1-.52-5v-8.55a13.11 13.11 0 0 1 1.14-6.07 7.68 7.68 0 0 1 3.83-3.41 17.1 17.1 0 0 1 13.09.25 8.21 8.21 0 0 1 3.88 3.78 15.86 15.86 0 0 1 1.11 6.61v3.9zm-10.07-4.77v-2.14a9.75 9.75 0 0 0-.27-2.94 1.09 1.09 0 0 0-1.12-.66c-.7 0-1.13.18-1.3.56a10.28 10.28 0 0 0-.25 3v2.14zm35.87-6.85H136v-2.65a4.7 4.7 0 0 0-.37-2.37 1.45 1.45 0 0 0-1.25-.51 1.61 1.61 0 0 0-1.42.69 3.57 3.57 0 0 0-.49 2.08 5.22 5.22 0 0 0 .55 2.69 7.72 7.72 0 0 0 3 2.19q7 3.7 8.8 6 1.8 2.3 1.8 7.63a12 12 0 0 1-1 5.63 7.61 7.61 0 0 1-3.89 3 17 17 0 0 1-6.71 1.23 16.61 16.61 0 0 1-7.17-1.42 7.33 7.33 0 0 1-3.89-3.6 16.44 16.44 0 0 1-.92-6.21V115h9.72v4.35a5.25 5.25 0 0 0 .41 2.59 1.67 1.67 0 0 0 1.45.57 1.77 1.77 0 0 0 1.56-.73 3.76 3.76 0 0 0 .51-2.16c0-2.1-.33-3.5-1-4.14a31.61 31.61 0 0 0-4.9-3.24l-5.5-3.34a7.9 7.9 0 0 1-2.1-2.87 11.52 11.52 0 0 1-.83-4.69c0-2.74.4-5.18 1.18-6.44a7.69 7.69 0 0 1 3.82-3 18.54 18.54 0 0 1 6.63-1.04 18.23 18.23 0 0 1 7 1.14 7 7 0 0 1 3.8 2.95c.62 1.18.93 3.63.93 6.47v1.42zm14.9-8.3v3.53h2.8v4.64h-2.8v16.78c0 1.93.1 3 .33 3.22s.72.34 2.36.34v4.72h-4a32.63 32.63 0 0 1-4.9-.25 5.45 5.45 0 0 1-2.58-1.17 3.85 3.85 0 0 1-1.4-2.1 33.57 33.57 0 0 1-.27-5.56v-16h-2.16V98.1h2.16v-3.5zm28 14.2v7.2a26.84 26.84 0 0 1-.45 5.8 7.93 7.93 0 0 1-1.91 3.45 8.74 8.74 0 0 1-3.77 2.36 16.69 16.69 0 0 1-5.28.76 20.9 20.9 0 0 1-5.65-.65 7.87 7.87 0 0 1-3.59-2 7.62 7.62 0 0 1-1.83-3.19 21.58 21.58 0 0 1-.54-5.6v-7.5a16.6 16.6 0 0 1 1-6.39 7.68 7.68 0 0 1 3.58-3.69 14 14 0 0 1 6.57-1.34 16.73 16.73 0 0 1 5.81.9 9.26 9.26 0 0 1 3.74 2.33 7.85 7.85 0 0 1 1.8 3 16.15 16.15 0 0 1 .49 4.64zm-10-2.2a8.83 8.83 0 0 0-.27-2.84 1.15 1.15 0 0 0-1.17-.59 1.21 1.21 0 0 0-1.19.59 8 8 0 0 0-.3 2.84v13.24a7.6 7.6 0 0 0 .3 2.7 1.17 1.17 0 0 0 1.17.63 1.19 1.19 0 0 0 1.18-.57 6.81 6.81 0 0 0 .28-2.48v-13.5zm23-8.1l-.17 2.6a9 9 0 0 1 3-2.35 8.14 8.14 0 0 1 3.53-.77c6-.2 8 3 8.1 8.64V119a21.34 21.34 0 0 1-.53 5.69c-2 3.94-7.38 4.56-11.16 2.93a9 9 0 0 1-2.91-2.3V132h-10V98.5zm2.86 8.53a13.31 13.31 0 0 0-.22-3.29c-.15-.38-.56-.58-1.24-.58a1.24 1.24 0 0 0-1.28.67 10.52 10.52 0 0 0-.29 3.2v12.15a10.68 10.68 0 0 0 .3 3.32 1.27 1.27 0 0 0 1.29.66c.65 0 1-.2 1.2-.6a11.15 11.15 0 0 0 .23-3z"/></svg>