<svg xmlns="http://www.w3.org/2000/svg" viewBox="0 0 219 224"><style><![CDATA[.A{fill:#fff}]]></style><path class="A" d="M127.9 132c-8.9 6.55-21.77 10-32.86 10a59.43 59.43 0 0 1-40.13-15.32c-.83-.75-.1-1.77.9-1.2A80.78 80.78 0 0 0 96 136.14a79.8 79.8 0 0 0 30.63-6.26c1.5-.64 2.76 1 1.3 2.08m3.67-4.23c-1.13-1.45-7.5-.7-10.37-.35-.87.1-1-.65-.22-1.2 5.08-3.58 13.4-2.55 14.38-1.35s-.25 9.56-5 13.55c-.73.6-1.43.28-1.1-.53 1.08-2.68 3.48-8.67 2.34-10.13M121.43 101v-3.52a.86.86 0 0 1 .88-.88h15.55a.87.87 0 0 1 .9.88v3a4.77 4.77 0 0 1-1.17 2.19l-8.06 11.5a17.08 17.08 0 0 1 8.87 1.9 1.57 1.57 0 0 1 .83 1.35v3.7c0 .5-.56 1.1-1.15.8a17.91 17.91 0 0 0-16.43 0c-.54.3-1.1-.3-1.1-.8v-3.52a4.16 4.16 0 0 1 .57-2.39l9.34-13.4h-8.13a.87.87 0 0 1-.9-.88m-56.73 21.7H60a.88.88 0 0 1-.85-.8v-24.3a.89.89 0 0 1 .91-.87h4.42a.88.88 0 0 1 .85.81v3.17h.1a6.26 6.26 0 0 1 6.23-4.5c3 0 4.8 1.44 6.14 4.5a7 7 0 0 1 12-1.84c1.5 2 1.2 5 1.2 7.6v15.33a.89.89 0 0 1-.91.88h-4.75a.9.9 0 0 1-.86-.88v-12.87a29.9 29.9 0 0 0-.13-4.55 2.46 2.46 0 0 0-2.78-2.09 3.14 3.14 0 0 0-2.83 2 14.55 14.55 0 0 0-.44 4.65v12.87a.89.89 0 0 1-.91.88h-4.73a.89.89 0 0 1-.85-.88v-12.88c0-2.7.45-6.7-2.9-6.7s-3.27 3.9-3.27 6.7v12.87a.89.89 0 0 1-.91.88m87.42-26.46c7 0 10.83 6 10.83 13.7 0 7.4-4.2 13.3-10.83 13.3-6.9 0-10.65-6-10.65-13.55s3.8-13.44 10.65-13.44m0 5c-3.48 0-3.7 4.76-3.7 7.72s-.05 9.3 3.66 9.3 3.9-5.17 3.9-8.26a22.49 22.49 0 0 0-.7-6.45 3 3 0 0 0-3.1-2.35m19.87 21.5h-4.7a.9.9 0 0 1-.85-.88v-24.3a.89.89 0 0 1 .91-.79h4.4a.9.9 0 0 1 .84.68v3.7h.1c1.33-3.32 3.18-4.9 6.45-4.9a6.2 6.2 0 0 1 5.51 2.85c1.3 2 1.3 5.23 1.3 7.58v15.3a.9.9 0 0 1-.91.76h-4.8a.88.88 0 0 1-.84-.76v-13.2c0-2.65.3-6.54-3-6.54a3.09 3.09 0 0 0-2.73 1.94 10.72 10.72 0 0 0-.75 4.6v13.08a.91.91 0 0 1-.93.88M109 111v-1c-3.42 0-7 .73-7 4.76 0 2 1 3.43 2.87 3.43a3.86 3.86 0 0 0 3.28-2.15c.93-1.64.88-3.18.88-5m4.77 11.53a1 1 0 0 1-1.12.12 11.55 11.55 0 0 1-2.71-3.16c-2.6 2.65-4.43 3.44-7.8 3.44-4 0-7.08-2.45-7.08-7.37a8 8 0 0 1 5-7.73c2.57-1.14 6.16-1.34 8.9-1.65v-.6a6.08 6.08 0 0 0-.57-3.43 3.18 3.18 0 0 0-2.66-1.23 3.6 3.6 0 0 0-3.8 2.84 1 1 0 0 1-.82.87l-4.6-.5a.83.83 0 0 1-.7-1c1.06-5.56 6.08-7.24 10.58-7.24 2.3 0 5.3.6 7.13 2.36 2.3 2.15 2.08 5 2.08 8.14v7.37c0 2.22.92 3.2 1.8 4.4a.89.89 0 0 1 0 1.26c-1 .8-2.68 2.3-3.62 3.14M47 111v-1c-3.42 0-7 .73-7 4.76 0 2 1 3.43 2.87 3.43a3.86 3.86 0 0 0 3.28-2.15c.93-1.64.88-3.18.88-5m4.77 11.53a1 1 0 0 1-1.11.12 11.44 11.44 0 0 1-2.72-3.16c-2.6 2.65-4.43 3.44-7.8 3.44-4 0-7.08-2.45-7.08-7.37a8 8 0 0 1 5-7.73c2.57-1.14 6.16-1.34 8.9-1.65v-.6a6.08 6.08 0 0 0-.57-3.43 3.18 3.18 0 0 0-2.66-1.23 3.6 3.6 0 0 0-3.8 2.84 1 1 0 0 1-.82.87l-4.6-.5a.83.83 0 0 1-.7-1c1.06-5.56 6.08-7.24 10.58-7.24 2.3 0 5.3.6 7.13 2.36 2.3 2.15 2.08 5 2.08 8.14v7.37c0 2.22.92 3.2 1.8 4.4a.89.89 0 0 1 0 1.26c-1 .8-2.68 2.3-3.62 3.14"/></svg>