<svg xmlns="http://www.w3.org/2000/svg" viewBox="0 0 219 224"><style><![CDATA[.A{fill:#fff;fill-rule:evenodd}]]></style><path class="A" d="M185.2 114.18a2.91 2.91 0 0 0-1.1-1.1 3 3 0 0 0-1.49-.4 3.06 3.06 0 0 0-1.5.4 2.91 2.91 0 0 0-1.1 1.1 3 3 0 0 0 1.12 4.11 3 3 0 0 0 4.47-2.61 2.91 2.91 0 0 0-.4-1.5zm-.4 2.8a2.55 2.55 0 0 1-3.45.92 2.42 2.42 0 0 1-.93-.92 2.46 2.46 0 0 1-.36-1.29 2.54 2.54 0 0 1 .34-1.27 2.5 2.5 0 0 1 .94-.94 2.59 2.59 0 0 1 2.53 0 2.5 2.5 0 0 1 .94.94 2.53 2.53 0 0 1 .33 1.27 2.44 2.44 0 0 1-.34 1.29zM78.4 82a39 39 0 0 0-17 2c-8.26 3-19.4 10-24.65 27.53-.88 3 0 7 6.13 6.4H65.8a4.66 4.66 0 0 0 0-9.32h-18c6.82-14.55 18.95-17.16 25.25-17.48v22.33a4.66 4.66 0 0 0 9.32 0V86.63A4.65 4.65 0 0 0 78.4 82zm47.08 0c-.06 0-.3 0 0 0h.06zm0 0c-5.85.13-9.63 2-12.4 5a16.17 16.17 0 0 0-12.4-5c-6.38-.45-17.4 5.3-16.6 15.63v15.85a4.66 4.66 0 1 0 9.32 0v-15.8c0-5.48 5.93-6.34 7.27-6.37a7 7 0 0 1 7.64 6.37v15.8a4.76 4.76 0 0 0 9.51 0v-15.8c.27-5.85 5.8-6.47 7.64-6.37 1.1.1 6.94.4 7.27 6.37v15.8a4.66 4.66 0 1 0 9.32 0V97.62c.2-.9-.5-15.15-16.6-15.63zm53.5 21a4.66 4.66 0 0 0-6.26 2 9.93 9.93 0 1 1 .24-9 4.66 4.66 0 0 0 8.55-3.7 19.5 19.5 0 1 0-31.54 21.88 19.43 19.43 0 0 0 31.04-4.97 4.67 4.67 0 0 0-2.05-6.27z"/><path class="A" d="M183.44 116.4a1.52 1.52 0 0 0-.41-.52 1.15 1.15 0 0 0 .54-.45 1.11 1.11 0 0 0 .18-.6 1 1 0 0 0-.13-.5.81.81 0 0 0-.35-.36 1.22 1.22 0 0 0-.64-.13h-1.18v3.7h.55V116h.43c.06 0 .16.13.3.37l.12.22.5 1h.67l-.6-1.14zm-1-.86H182v-1.25h.44a.88.88 0 0 1 .43.08.64.64 0 0 1 .19.21.71.71 0 0 1 .06.28.72.72 0 0 1-.16.47.64.64 0 0 1-.55.21zm-142 23.1h-2.96v-11.46h-4.2v-2.46H44.6v2.46h-4.2zm15.74-6.24v6.24h-2.96V124.7h2.9v5.3h5.42v-5.27h2.9v13.92h-2.9v-6.24zm28.42-5.22h-7.44v2.93H84v2.46h-6.84v3.6h7.72v2.46H74.3V124.7h10.24v2.46zm16.92-2.46h-3.4l-5 13.92h3.06l1-2.87h5.14l.9 2.87h3.16l-4.9-13.92zM98 133.36l1.8-5.5 1.72 5.5zm23.2 5.27h-2.9v-11.46H114v-2.46h11.32v2.46h-4.2zm24-3.14c0-2.6-.62-3-1.76-3.53a3.32 3.32 0 0 0 2.15-3.31c0-1.2-.68-3.94-4.38-3.94h-7v13.92h2.85v-5.45h3c2.15 0 2.26.74 2.26 2.64a9.42 9.42 0 0 0 .31 2.81h3.22v-.37c-.62-.23-.62-.74-.62-2.77zm-4.77-4.65H137v-3.72h3.62c1.7 0 2 1.08 2 1.82 0 1.37-.74 1.9-2.25 1.9zm25-3.67h-7.38v2.93h6.78v2.46h-6.78v3.6h7.7v2.46h-10.67V124.7h10.23v2.46zm11.77 7.18c0 .77.4 2.25 2.95 2.25 1.38 0 2.9-.33 2.9-1.8 0-1.08-1.05-1.37-2.52-1.72l-1.5-.35c-2.24-.52-4.42-1-4.42-4.1 0-1.55.84-4.3 5.36-4.3 4.26 0 5.4 2.8 5.42 4.5h-2.8c-.08-.62-.3-2.1-2.85-2.1-1.1 0-2.42.4-2.42 1.67 0 1.08.9 1.3 1.47 1.45l3.4.83c1.9.47 3.65 1.24 3.65 3.74 0 4.2-4.27 4.56-5.5 4.56-5.08 0-6-2.93-6-4.65z"/></svg>