<svg xmlns="http://www.w3.org/2000/svg" viewBox="0 0 219 224"><style><![CDATA[.A{fill:#fff}]]></style><path class="A" d="M135.87 112.87l.25 7.85v6.9h-4.47v-27h4.44l2.57 9.62 1 4.3q-.2-4.3-.18-8.63v-5.28h4.33v27.05h-4l-2.93-10a41.71 41.71 0 0 1-1.06-4.76m24.3 1.27c0 11.66-1.9 14.06-6.34 14.06-4.12 0-6.34-1.8-6.34-14.06 0-11.87 1.72-14 6.34-14s6.34 2.12 6.34 14zm-5 0c0-4.26 0-6.87-.18-8.8s-.46-2.36-1.16-2.36-1.1.4-1.27 2.36-.1 4.58-.1 8.8l.1 8.74c.18 2.07.46 2.3 1.27 2.3s1-.18 1.16-2.3c.14-1.94.18-3.8.18-8.74m21.5 5.8c0 5.6-2.5 7.65-6.73 7.65h-6.06v-27h6.1c4.68 0 5.92 2.82 5.92 7.43 0 3.3-1.2 5.1-3.35 5.22 2.32-.08 4.12 2.28 4.12 6.7zm-8.1-5.07v9.55h1.23c1.44 0 1.83-.88 1.83-5 0-3-.36-4.54-1.9-4.54h-1.16zm0-11.16v7.78h1.2c1.28 0 1.52-1.13 1.52-3.45 0-3.17-.32-4.33-1.87-4.33h-.84m16.48 19.8h5.74v4h-10.67v-27H185v23m13.12 0H204v4h-10.64v-27h9.9v4h-5.14V112h4.54v3.78h-4.54v7.85M25.8 120c0 5.6-2.5 7.65-6.73 7.65H13v-27h6.1c4.7 0 5.92 2.82 5.92 7.43 0 3.3-1.2 5.1-3.34 5.22 2.33-.08 4.12 2.28 4.12 6.7zm-8.1-5.07v9.55h1.24c1.44 0 1.83-.88 1.83-5 0-3-.36-4.54-1.9-4.54h-1.17zm0-11.16v7.78h1.2c1.27 0 1.52-1.13 1.52-3.45 0-3.17-.32-4.33-1.87-4.33h-.85m34.94 10c3 .9 3.38 4.5 3.38 7.76a29.07 29.07 0 0 0 .42 6.12H51.5a19 19 0 0 1-.35-4v-3.48c0-2.15-.73-3.77-2.27-4.17h-.34v11.66h-4.86v-27h7.22c3.38 0 5.67 2 5.67 6.87 0 4.26-1.84 6.1-3.94 6.3zm-4.1-9.83v7.93H50c1.27 0 1.66-.8 1.66-3.35 0-3.94-.74-4.58-2.22-4.58h-.92m16.3 9a99.87 99.87 0 0 1 .25 7.85v6.9h-4.46v-27h4.44l2.57 9.62c.46 1.7.8 3.13 1 4.3q-.2-4.3-.18-8.63v-5.28h4.34v27.05h-4l-2.93-10a41.71 41.71 0 0 1-1.06-4.76m17 10.7h5.88v4H77.14v-27H87v4h-5.1v7.3h4.55v3.78H81.9v7.85m13-2.2c0 3 .64 3.5 1.73 3.5.84 0 1.5-.5 1.5-3.5 0-2.68-1.8-4.6-3.82-7-1.83-2.2-3.88-5.22-3.88-7.78 0-4 1.83-6.4 5.67-6.4s5.74 2.08 5.74 6.06a6.73 6.73 0 0 1-.35 2.18h-4a13.12 13.12 0 0 0 .1-1.91c0-2.57-.27-3.34-1.4-3.34s-1.23 1-1.23 3c0 2.44 2 4.38 3.52 6.4 2.3 3 4.15 5.3 4.15 8 0 4.4-1.86 7.65-6 7.65-3.7 0-6.13-2-6.13-6.7a9.91 9.91 0 0 1 .32-2.93h4.33a18.64 18.64 0 0 0-.22 2.86m-67.32 6.15l3.95-27.24h4.64l4.65 27.24h-5l-.5-4.36h-3l-.5 4.36zm5-7.36h2.47l-.6-5.18c-.14-1.26-.64-5.2-.78-7.82-.07 2.67-.5 6.6-.6 7.82l-.5 5.18"/><path class="A" d="M125.9 113.5a4.67 4.67 0 0 0-4.11 3l-2.4 5.34a65 65 0 0 1-4.64-8.94 35.39 35.39 0 0 0 6-3.75 7.58 7.58 0 0 0 2.66-4.43c.52-3-1.22-5.7-5-5.7a8.26 8.26 0 0 0-7.81 6.74 15.47 15.47 0 0 0 .89 7.19c-2.9 2-5.43 4.13-6.1 7.54-.93 5.6 2.58 8.18 6.55 8.18a8.25 8.25 0 0 0 6.42-3.08c1.25 1.43 2.84 3.08 4.8 3.08a6.17 6.17 0 0 0 4.58-2.71l-.56-.8c-1.22 1.17-2.15 1.64-2.85 1.64-1.26 0-2.57-1.13-3.7-2.9-.14-.3-.33-.57-.47-.85.75-1.45 1.3-3 2-4.44 1.22-2.7 2-3.6 3.1-3.6 1.87 0 .37 3.13 2.38 3.13a1.66 1.66 0 0 0 1.54-1.54c.2-1.13-.6-3.1-3.27-3.1zm-12.1-8.5a4.68 4.68 0 0 1 4.49-4c2 0 3.27 1.5 2.85 3.8a5.42 5.42 0 0 1-1.27 2.78c-.88 1.1-4.07 3.08-5.6 3.9a13.31 13.31 0 0 1-.48-6.46zm-.66 21.84a4.63 4.63 0 0 1-4.72-5.61 10.54 10.54 0 0 1 3.7-6.43 48.51 48.51 0 0 0 5.43 9.9 5.25 5.25 0 0 1-4.41 2.14"/><path class="A" d="M112.92 104s-2.57 3.9 1 11.84A39.22 39.22 0 0 0 120.4 126a58.83 58.83 0 0 1-6-10.69c-2.93-7.07-1.5-11.3-1.5-11.3"/></svg>