<svg xmlns="http://www.w3.org/2000/svg" viewBox="0 0 219 224"><style><![CDATA[.A{fill:#fff}]]></style><path class="A" d="M63 115.25a39.06 39.06 0 0 1-3.48 6.49c-2.25 3.43-5.44 7.7-9.38 7.75-3.5 0-4.4-2.28-9.16-2.26s-5.75 2.3-9.25 2.27c-3.94 0-7-3.9-9.22-7.34-6.3-9.6-7-20.88-3.08-26.88 2.77-4.26 7.13-6.75 11.24-6.75s6.8 2.3 10.26 2.3 5.4-2.3 10.23-2.3A13.67 13.67 0 0 1 61.42 94c-9 5-7.57 17.85 1.56 21.3zM47.47 84.68A11.7 11.7 0 0 0 50.08 76a12.65 12.65 0 0 0-8.18 4.4c-1.78 2.16-3.25 5.36-2.68 8.47a10.67 10.67 0 0 0 8.25-4.19zM79 100a3.53 3.53 0 0 1-3.8 3.53 3.55 3.55 0 1 1 0-7.1A3.53 3.53 0 0 1 79 100zm-7.28 29v-22.7h7V129zm19-25.35H82.3V97.7h24v5.94h-8.5V129h-7.1zm38.06 18.06l.18 7.3h-6.12l-.33-3.2h-.14a8.08 8.08 0 0 1-7.1 3.72c-4.6 0-8-2.88-8-9.9V106.3h7.1v12.2c0 3.3 1.06 5.3 3.52 5.3a3.8 3.8 0 0 0 3.53-2.46 4 4 0 0 0 .23-1.53v-13.5h7.1v15.4zm5.66-8.17a141.93 141.93 0 0 0-.19-7.24h6.13l.33 3.1h.14a8.28 8.28 0 0 1 7-3.62c4.64 0 8.12 3.06 8.12 9.74V129h-7.07v-12.6c0-2.93-1-4.92-3.57-4.92a3.75 3.75 0 0 0-3.57 2.64 4.89 4.89 0 0 0-.28 1.76V129h-7.06v-15.47zm32.63 6.36c.23 2.92 3.1 4.3 6.4 4.3a20.08 20.08 0 0 0 6.27-.92l.93 4.78a22.35 22.35 0 0 1-8.22 1.43c-7.7 0-12.1-4.5-12.1-11.6 0-5.76 3.57-12.1 11.46-12.1 7.34 0 10.12 5.7 10.12 11.32a17.17 17.17 0 0 1-.23 2.79zm8.3-4.83c0-1.72-.75-4.6-4-4.6-3 0-4.17 2.7-4.36 4.6zm10.72 7.75a13.77 13.77 0 0 0 6.08 1.72c2.13 0 3-.75 3-1.9s-.7-1.7-3.35-2.6c-4.7-1.57-6.5-4.13-6.45-6.77 0-4.27 3.62-7.48 9.24-7.48a15.19 15.19 0 0 1 6.41 1.31l-1.26 4.9a11.09 11.09 0 0 0-4.92-1.3c-1.7 0-2.7.7-2.7 1.85s.88 1.63 3.67 2.6c4.3 1.5 6.12 3.67 6.17 7 0 4.23-3.34 7.38-9.84 7.38a16.11 16.11 0 0 1-7.33-1.62l1.25-5.06z"/></svg>