<svg xmlns="http://www.w3.org/2000/svg" viewBox="0 0 219 224"><path d="M159.66 107.6h15.85c-.5-4.14-3.6-7.2-7.6-7.2-4.53 0-7.26 2.8-8.24 7.2m-24.28 13.44c5.75-.06 7.17-5.83 7.17-10 0-5.33-2.35-9.78-7.17-9.84-5.28-.07-7.25 4.7-7.25 9.84 0 4.65 1.74 10 7.25 10M197 97.86a9.48 9.48 0 0 0-9.48-9.49 9.37 9.37 0 0 0-6.87 3 24.75 24.75 0 0 0-28.39.09 10.16 10.16 0 0 0-12.26-1.2 21.68 21.68 0 0 0-36.77-1.69 18 18 0 0 0-22-2.93 11.66 11.66 0 0 0-23.31.11v.45a25.13 25.13 0 0 0-14.44 2A12.83 12.83 0 0 0 28.69 109c-.07.78-.1 1.56-.1 2.34a25.45 25.45 0 0 0 40.12 20.8 20.46 20.46 0 0 0 16.55 8.44h.5a14.27 14.27 0 0 0 27-.21 12.9 12.9 0 0 0 24-3.29 22.32 22.32 0 0 0 2.72.19 19.6 19.6 0 0 0 13.12-5 24.78 24.78 0 0 0 38.7-20.52 24.35 24.35 0 0 0-.49-4.94 9.5 9.5 0 0 0 6.21-8.95m-12.94 11c0 3.1-.93 3.9-4 3.9h-20.4c0 4.77 3.1 8.25 8.35 8.25 6.82 0 6.82-4.46 10.47-4.46a3.74 3.74 0 0 1 3.72 3.53c0 5.45-8.74 8-14.2 8-10.28 0-15.35-5.65-16.88-12-1.37 6.65-5.72 12-13.47 12-4.14 0-7.23-1.67-8.9-4.58h-.13v12.1a4.52 4.52 0 1 1-9 0v-33.7l-10.16 28.8c-2.16 6.2-4.65 9.42-10.34 9.42-4 0-5.7-2-5.7-4.16 0-2.42 1.74-3.65 4.16-3.65h.92c1.17 0 2.47-.06 3.15-2.85l-9.4-26.8-.77-2.32a10.34 10.34 0 0 1-.73.83l-6.68 7 9.4 12.63a4.88 4.88 0 0 1 .93 2.91 4.38 4.38 0 0 1-4.27 4.39A4.64 4.64 0 0 1 86 126l-8.55-12.1-3.16 2.8v6.88a4.13 4.13 0 0 1-4.51 4.51c-2.74 0-4.53-1.55-4.53-4.5v-3.34c-1.62 5.34-7.67 7.85-13.5 7.85-8.17 0-15-3.65-15-8.1a3.46 3.46 0 0 1 3.65-3.77c3.9 0 4.28 5.58 11 5.58 3.2 0 5.26-1.44 5.26-3.28 0-2.3-2-2.67-5.2-3.48l-5.33-1.3c-5.26-1.3-9.35-3.48-9.35-9.55 0-7.36 7.3-10.1 13.56-10.1 6.87 0 13.8 2.74 13.8 6.88a3.76 3.76 0 0 1-3.78 4c-3.54 0-3.66-4.14-9.35-4.14-3.16 0-5.2.86-5.2 2.78 0 2.1 2 2.6 4.84 3.22l3.77.88c4.34 1 9.38 2.7 10.84 7v-28.3c0-3 1.8-4.5 4.53-4.5a4.13 4.13 0 0 1 4.51 4.51v20.58l10-11.14a4.86 4.86 0 0 1 3.49-1.76 4.58 4.58 0 0 1 3.8 2.34 4.34 4.34 0 0 1 3.89-2.34 4.51 4.51 0 0 1 4.63 3.41l5.88 21.13h.1l5.52-20.5c.62-2.3 1.86-4 4.34-4a4.43 4.43 0 0 1 4 2.15c.54-1.4 1.75-2.15 3.7-2.15 2.67 0 4.1 1.5 4.1 4.28v1.38h.14c1.5-3.84 5.14-5.7 9.52-5.7 6.46 0 12.22 4.05 13.78 12.5 1.75-7.65 7.63-12.5 16.52-12.5 10.4 0 16.35 7.37 16.35 14.8m2.8-14.16h1.77l1.36 3.92 1.26-3.92H193v5.7h-1.17v-4l-1.4 4h-1l-1.4-4v4h-1.2v-5.7zm-5.3 1v-1h4.66v1h-1.7v4.65h-1.26v-4.6z" fill="#fff"/></svg>