<svg xmlns="http://www.w3.org/2000/svg" viewBox="0 0 145 99"><style><![CDATA[.B{fill:none;stroke:#303030;stroke-width:4;stroke-miterlimit:10}]]></style><path d="M49,11l36,81h32c11,0,20-8.9,20-20V28.3c0-9.6-7.8-17.3-17.3-17.3H49z" fill="#FF5757"/><path class="B" d="M117.4 91.5H26.6c-11.1 0-20.1-9-20.1-20.1V29.2C6.5 18 15.5 9 26.6 9h90.7c11.1 0 20.1 9 20.1 20.1v42.2c.1 11.2-8.9 20.2-20 20.2z"/><path class="B" d="M7 33h8.1C24.4 33 32 25.4 32 16.1V11m104 58h-8.7c-8.5 0-15.3 6.9-15.3 15.3V90"/><circle cx="70" cy="49" r="16" fill="#fff" stroke="#303030" stroke-width="4"/></svg>