<?xml version="1.0" encoding="UTF-8"?> <!-- Generator: Adobe Illustrator 23.0.0, SVG Export Plug-In . SVG Version: 6.00 Build 0) --> <svg xmlns="http://www.w3.org/2000/svg" xmlns:xlink="http://www.w3.org/1999/xlink" id="Layer_1" x="0px" y="0px" viewBox="0 0 150 18" style="enable-background:new 0 0 150 18;" xml:space="preserve"> <style type="text/css"> .st0{fill:#464646;} </style> <g> <path class="st0" d="M19.5,17.3H25l2.9-16.7h-5.5l-1.1,6h-4.7l1.1-6h-5.5L9.3,17.3h5.5l1.1-6.2h4.7L19.5,17.3z M31,0.6l-1.7,9.3 c-0.1,0.7-0.2,1.4-0.2,2.1c0,4.9,4.3,5.7,6.9,5.7c5.4,0,7.8-1.8,8.6-6.7l1.8-10.4H41l-1.6,8.7c-0.5,2.7-0.8,4.2-2.9,4.2 c-1.3,0-2-0.7-2-2.2c0-0.6,0.1-1.2,0.2-2.1l1.6-8.6L31,0.6L31,0.6L31,0.6z M75.3,17.3h5.5l0.8-4.3h2.6c4.8,0,7.4-2.6,7.4-7.2 c0-3.3-2.3-5.2-6.3-5.2h-7C78.3,0.6,75.3,17.3,75.3,17.3z M83.8,8.9h-1.6L83,4.9h1.5c1.2,0,1.8,0.6,1.8,1.7 C86.3,8,85.4,8.9,83.8,8.9L83.8,8.9z M102.1,0.2c-5.9,0-9.5,3.8-9.5,10.3c0,4.5,2.8,7.2,7.6,7.2c5.9,0,9.5-3.8,9.5-10.3 C109.7,2.9,106.9,0.2,102.1,0.2L102.1,0.2z M100.5,13.3c-1.4,0-2.2-1-2.2-2.7c0-0.6,0.1-1.2,0.2-1.8c0.4-2.2,1.1-4.2,3.3-4.2 c1.4,0,2.2,1,2.2,2.7c0,0.6-0.1,1.2-0.2,1.8C103.4,11.3,102.7,13.3,100.5,13.3z M128.7,17.3h5.5L136.3,5h4.1l0.8-4.5h-14L126.4,5 h4.4L128.7,17.3z M119.6,6.7c-1.7-0.5-2.4-0.8-2.4-1.6c0-0.5,0.4-1.2,1.4-1.2c0.8,0,1.4,0.4,1.7,1.1l4.8-1.3 c-0.6-2.4-2.6-3.6-6.1-3.6c-6.6,0-7.1,4.4-7.1,5.8c0,2.7,1.5,4.4,4.6,5.3c0.8,0.2,1.8,0.5,1.8,1.4c0,0.7-0.5,1.2-1.5,1.2 c-0.8,0-1.8-0.5-2.1-1.4l-4.8,1.3c0.5,2.5,2.9,3.9,6.5,3.9c2.8,0,7.5-0.7,7.5-5.8C124,9.3,122.5,7.6,119.6,6.7L119.6,6.7z"></path> <path class="st0" d="M6.3,17.3L9.2,0.6h-9v16.7L6.3,17.3z M143.5,0.6l-2.9,16.7h9V0.6L143.5,0.6L143.5,0.6z"></path> <path class="st0" d="M53,12.4h4.6l0.7-4.2h-4.6L54.3,5h6.4l0.8-4.5H49.6l-2.9,16.7h5.5L53,12.4z M67.3,12.4h4.6l0.7-4.2h-4.6 L68.6,5H75l0.8-4.5H63.9L61,17.3h5.5L67.3,12.4z"></path> </g> </svg> 