<?xml version="1.0" encoding="UTF-8"?> <!-- Generator: Adobe Illustrator 23.0.0, SVG Export Plug-In . SVG Version: 6.00 Build 0) --> <svg xmlns="http://www.w3.org/2000/svg" xmlns:xlink="http://www.w3.org/1999/xlink" id="Layer_1" x="0px" y="0px" viewBox="0 0 93.8 56.1" style="enable-background:new 0 0 93.8 56.1;" xml:space="preserve"> <style type="text/css"> .st0{fill:#464646;} </style> <g> <path class="st0" d="M18.5,52.2c-5.3,0-10.7,0-16,0c0-15.7,0-31.3,0-47c4.8,0,14.6,0,14.6,0s8.3,12.2,12.9,18.1 c4.7-5.9,13-18.1,13-18.1l41.6,0l0.2-1.6c0,0,5.8,6.5,8.1,8.7c-2.8,2.8-8.6,8.6-8.6,8.6l0-1.7l-33.6,0L29.7,51 c0,0-6.7-10.7-11.3-16.5C18.5,40.9,18.5,46.5,18.5,52.2z"></path> <path class="st0" d="M43.5,52.2c0-5.2,0-10.3,0-15.5c3.1-4.7,6.3-9.4,9.5-14.4c10.1,0,20.5,0,31.2,0c0,4.4,0,9,0,13.8 c-9.1,0-26.9,0-26.9,0l-0.1,2.1c0,0,18,0,27.3,0c0,4.8,0,9.4,0,14C70.8,52.2,57.1,52.2,43.5,52.2z"></path> </g> </svg> 