<?xml version="1.0" encoding="UTF-8"?> <!-- Generator: Adobe Illustrator 23.0.0, SVG Export Plug-In . SVG Version: 6.00 Build 0) --> <svg xmlns:svg="http://www.w3.org/2000/svg" xmlns="http://www.w3.org/2000/svg" xmlns:xlink="http://www.w3.org/1999/xlink" id="Layer_1" x="0px" y="0px" viewBox="0 0 200 72" style="enable-background:new 0 0 200 72;" xml:space="preserve"> <style type="text/css"> .st0{fill:#232323;} </style> <path class="st0" d="M23.9,70.9c-5.8-0.2-10.6-1.8-14.4-4.8c-0.7-0.6-2.4-2.3-3-3C5,61.2,4,59.4,3.3,57.3c-2.1-6.3-1-14.6,3.1-23.8 C10,25.7,15.4,18,25,7.3c1.4-1.6,5.6-6.2,5.6-6.2c0,0-0.2,0.4-0.5,0.9c-2.5,4.2-4.6,9-5.8,13.3C22.5,22,22.7,27.9,25,32.4 c1.6,3.1,4.3,5.8,7.3,7.3c5.3,2.6,13.1,2.8,22.7,0.6c0.7-0.2,33.2-8.8,72.2-19.2c39.1-10.4,71-18.9,71.1-18.9 c0,0-90.8,38.9-137.9,59c-7.5,3.2-9.5,4-13,5.2C38.4,69.7,30.4,71.2,23.9,70.9z"></path> </svg> 