<svg xmlns="http://www.w3.org/2000/svg" viewBox="0 0 285.19 285.19"><style><![CDATA[.A{fill:#3d9ae0}]]></style><path class="A" d="M146 130.8c-13.45-3.2-16.64-4.6-19.47-7.8-2.48-2.84-2.84-5-.7-8.15 2.13-3.54 7.44-5.66 14.52-6 10.27-.7 14.87 1.77 20.9 11.33 4.6 7.08 9.2 8.85 15.23 6 7.8-3.9 7.08-16.64-1.42-24.07-8.15-6.73-17-9.56-31.87-9.56-15.58 0-26.2 3.18-33.28 10.26-5.67 5.67-6.73 8.86-6.73 17.7 0 9.2 1.06 12 7.08 17.35 6.37 6 11.68 8.14 30.8 12.75 13.46 3.18 17 5 20.18 8.5a8.63 8.63 0 0 1 2.13 6.38c0 3.54-.35 4.25-3.18 7.08-4.25 4.25-10.63 6-18.77 5.67-9.56-.7-13.8-3.54-18.76-13.46-3.55-6.73-6.38-9.2-11-9.2-10.27 0-13.8 8.5-8.5 19.48 4.6 9.56 13.8 15.93 25.5 18.4 7.08 1.42 22.67 1.42 29.4 0h-.35c11.7-2.48 22-9.56 25.85-18.06 5-10.27 3.54-22.3-3.2-29.74-5.67-6.38-14.17-9.92-34.33-14.87zm31.44 94.2a46.26 46.26 0 0 1-10.69-1.12h-3.65v-.95l-.32-.1a44.5 44.5 0 0 1-4.39-1.36l-.28-.12c-1.25-.63-3.6-.63-10.53-.32a83.59 83.59 0 0 1-17.32-.74h-.15c-29.8-5.2-53.6-26.86-62.1-56.5-1.54-5.75-1.92-8.9-1.92-21.93s-.3-14.1-1.92-19.32a45.65 45.65 0 0 1 5.53-42.36 46.86 46.86 0 0 1 38.41-20 49.2 49.2 0 0 1 19.39 4.29c2 1 3.3 1.37 13.9 1.37 10.4 0 14.48.4 19.8 1.92 23.24 5.9 42.34 21.36 52.3 42.38 6.24 12.85 8.56 26.48 7.07 41.65-.67 7.46-.65 7.53.83 11.37l.05.14a47 47 0 0 1-14.63 51.24c-4.78 4-13.84 8.07-19.5 9.58h-.23a51.31 51.31 0 0 1-9.65.87zm-10-8.68h.24l.48.13c4.43 1.18 12.16 1.32 17.3.32 4.8-1.3 12.7-4.9 16.5-8.07a39.43 39.43 0 0 0 12.32-42.91c-2.05-5.34-2-6.83-1.28-14.73 1.37-13.95-.65-25.9-6.36-37.66-9-19-26.3-33-47.45-38.35-4.63-1.32-8.27-1.66-17.84-1.66-11 0-13.58-.32-17.26-2.16a41.06 41.06 0 0 0-16-3.5 38.81 38.81 0 0 0-32.2 16.77A38.25 38.25 0 0 0 71.3 120l.06.18c1.93 6.2 2.3 7.8 2.3 21.66 0 12.4.34 15 1.64 19.9 7.7 26.75 29.18 46.33 56.06 51.06a76.64 76.64 0 0 0 15.89.67c7.72-.35 11.05-.44 14.1 1 .83.32 2.17.68 3.46 1 .9.33 1.85.58 2.7.85z"/></svg>