<?xml version="1.0" encoding="UTF-8"?> <!-- Generator: Adobe Illustrator 23.0.0, SVG Export Plug-In . SVG Version: 6.00 Build 0) --> <svg xmlns="http://www.w3.org/2000/svg" xmlns:xlink="http://www.w3.org/1999/xlink" id="Layer_1" x="0px" y="0px" viewBox="0 0 66 45" style="enable-background:new 0 0 66 45;" xml:space="preserve"> <style type="text/css"> .st0{fill:#464646;} </style> <g> <path class="st0" d="M33,0.1H0.1v10.9H11v22.4h11.1V10.9H33V0.1L33,0.1z M43.9,0.1h22v10.9h-22V0.1L43.9,0.1z M43.9,21.9v-11H33 v22.4h32.9V21.9L43.9,21.9z M4.7,37.9v6.8H2.8v-6.8H0.1v-1.4h6.8v1.4H4.7L4.7,37.9z M12,41.9H8.2c0.1,0.9,0.7,1.3,1.3,1.3 c0.5,0,0.8-0.1,1.1-0.4l1.2,1c-0.5,0.6-1.4,1-2.3,1c-1.8,0-3-1.3-3-3.3c0-1.9,1.2-3.3,2.8-3.3c1.7,0,2.7,1.4,2.7,3.2 C12,41.8,12,41.9,12,41.9z M9.3,39.9c-0.6,0-1,0.2-1,1.1h2.2C10.4,40.1,10,39.9,9.3,39.9z M16,44.9c-1.6,0-3-1.3-3-3.3 c0-1.9,1.3-3.3,3-3.3c1.2,0,2,0.6,2.5,1.4l-1.1,1.1C17.1,40.3,16.7,40,16,40c-0.8,0-1.3,0.7-1.3,1.7c0,1,0.5,1.7,1.3,1.7 c0.6,0,1.1-0.3,1.5-0.8l1.1,1C18,44.3,17.2,44.9,16,44.9z M23.5,44.6v-3.2c0-1.1-0.2-1.5-0.9-1.5s-0.9,0.3-0.9,1.4v3.3h-1.8v-7.7 l1.8-0.8v2.9c0-0.3,0.7-0.6,1.4-0.6c1.6,0,2.2,1.1,2.2,2.9v3.4C25.3,44.6,23.5,44.6,23.5,44.6z"></path> <path class="st0" d="M31.9,38.9c-0.3-0.6-0.8-0.9-1.5-0.9c-1.3,0-2,1.1-2,2.7c0,1.5,0.7,2.7,2,2.7c0.8,0,1.2-0.3,1.6-1.1l1.4,0.8 c-0.6,1.2-1.6,1.9-3.1,1.9c-2.2,0-3.7-1.7-3.7-4.3c0-2.6,1.5-4.3,3.7-4.3c1.6,0,2.5,0.8,3.1,1.9L31.9,38.9L31.9,38.9z M38.1,40.4 c-0.3-0.2-0.5-0.4-0.9-0.4c-0.6,0-1,0.3-1,1.4v3.2h-1.8v-6.3h1.8v0.6c0.5-0.3,0.7-0.5,1.2-0.5c0.5,0,0.9,0.2,1.1,0.4 C38.6,38.8,38.1,40.4,38.1,40.4z M43.4,44.6v-0.2c-0.5,0.3-0.7,0.6-1.4,0.6c-1.6,0-2.2-1.1-2.2-2.9v-3.8h1.4v3.6 c0,1.1,0.4,1.5,1.1,1.5c0.7,0,1.1-0.3,1.1-1.4v-3.6h1.8v6.3L43.4,44.6C43.4,44.6,43.4,44.6,43.4,44.6z M50,44.6v-3.2 c0-1.1-0.1-1.5-0.8-1.5c-0.7,0-0.8,0.3-0.8,1.4v3.3h-1.8v-6.3h1.8v0.6c0-0.3,0.6-0.6,1.3-0.6c1.6,0,2.1,1.1,2.1,2.9v3.4 C51.8,44.6,50,44.6,50,44.6z M56.2,44.9c-1.6,0-3-1.3-3-3.3c0-1.9,1.3-3.3,3-3.3c1.2,0,2,0.6,2.5,1.4l-1.1,1.1 c-0.4-0.5-0.8-0.9-1.4-0.9c-0.8,0-1.3,0.7-1.3,1.7c0,1,0.5,1.7,1.3,1.7c0.6,0,1.1-0.3,1.5-0.8l1.1,1C58.2,44.3,57.5,44.9,56.2,44.9 z M63.6,44.8v-3.4c0-1.1-0.2-1.5-0.9-1.5c-0.7,0-0.9,0.3-0.9,1.4v3.3H60v-7.7l1.8-0.8v2.9c0-0.3,0.7-0.6,1.4-0.6 c1.6,0,2.2,1.1,2.2,2.9v3.4h-1.8L63.6,44.8z"></path> </g> </svg> 