<?xml version="1.0" encoding="UTF-8"?> <!-- Generator: Adobe Illustrator 23.0.0, SVG Export Plug-In . SVG Version: 6.00 Build 0) --> <svg xmlns="http://www.w3.org/2000/svg" xmlns:xlink="http://www.w3.org/1999/xlink" id="Layer_1" x="0px" y="0px" viewBox="0 0 502.5 163" style="enable-background:new 0 0 502.5 163;" xml:space="preserve"> <style type="text/css"> .st0{fill:#464646;} </style> <g transform="translate(1009.8 -337.49)"> <g transform="matrix(.5 0 0 .5 -379.18 197.8)"> <path class="st0" d="M-272.8,286.7c7.7,1.3,12.8,6,12.8,14c0,2.7-1.1,6.4-1.8,9.6c-5.1,22.6-25.2,102.6-33.6,156l-7.8-7.8 l24.7-164.2L-272.8,286.7L-272.8,286.7z"></path> <path class="st0" d="M-772.4,308.4c-10.3,2.5-20.5,2.4-30.5,0l15.9,16.5L-772.4,308.4z"></path> <path class="st0" d="M-930.9,308.4c10.3,2.5,20.5,2.4,30.5,0l-15.9,16.5L-930.9,308.4z"></path> <path class="st0" d="M-1020.4,308.4c23.4,59.2,60.2,148.8,78.5,183L-969,483l-67.2-168L-1020.4,308.4L-1020.4,308.4z"></path> <path class="st0" d="M-1041.7,308.4c7.5,2.5,13.7,2.7,21.3,0l-15.1,9.3L-1041.7,308.4z"></path> <path class="st0" d="M-1031,314.8l68.4,167.9c-4,4.4-5.9,6.7-9.8,8.7c-19.8-51.1-41.1-102.2-59.2-152.6l-8.9-15.1L-1031,314.8z"></path> <path class="st0" d="M-1089.8,491.3l-20.2-7.2l71.1-166.9l7.9-2.5v24.7C-1042,371.4-1070.1,441.5-1089.8,491.3z"></path> <path class="st0" d="M-1106.6,284l6.7,15.2l17.1-7.9l6.9-7.3C-1086.9,286.5-1096.8,286.6-1106.6,284L-1106.6,284z"></path> <path class="st0" d="M-1154.8,417l-11.6,4.3l-7.3-12.8l72.6-115.9l5.2-1.8c7.2-1.6,15-3.4,20.1-6.8 C-1087.4,299.6-1129.4,372.4-1154.8,417L-1154.8,417z"></path> <path class="st0" d="M-1170.6,415.1l3-3l71.8-121.3l-10.8-6.7c-8.7,16.1-40.6,68.4-61,101.9l-9.8,18.3L-1170.6,415.1 L-1170.6,415.1z"></path> <path class="st0" d="M-1228.5,284c15.9,28.2,40.3,67.7,61,101.9v26.2l-4.9,4.9l-71.4-126.9L-1228.5,284z"></path> <path class="st0" d="M-1240.3,291.7l11.8-7.7c-12.6,2.7-17.9,2.9-30.5,0l4.9,5.5L-1240.3,291.7L-1240.3,291.7z"></path> <path class="st0" d="M-1167.6,412.1l-5.5,7.9l-7.3-3c-13.6-23.5-53.7-95.3-78.7-132.9c5.1,3.7,11.9,5.7,19.8,7L-1167.6,412.1z"></path> <path class="st0" d="M-1152.9,515.2l-20.7-9.8l1.8-86.6l4.3-6.7l12.8,4.9L-1152.9,515.2L-1152.9,515.2z"></path> <path class="st0" d="M-1167.6,508.5l-14.6,6.7l1.8-98.2l12.8-4.9L-1167.6,508.5L-1167.6,508.5z"></path> <path class="st0" d="M-1120,491.4c25.4-51.9,53.7-121.4,78.3-183l10.7,6.5l-69.5,169.9l-14.1,4.8L-1120,491.4L-1120,491.4z"></path> <path class="st0" d="M-963.2,482.4l21.4,9c-8.2-2.1-19.3-2.9-30.4,0.1l4.2-10.3L-963.2,482.4L-963.2,482.4z"></path> <path class="st0" d="M-1078.5,431.4l15-6.4c21.6,0.8,43.2,0.7,64.9,0l15.2,6.6l-14.2,3.1h-70.2L-1078.5,431.4L-1078.5,431.4z"></path> <path class="st0" d="M-1068.5,437.7l-10.1-6.3c31.7-0.5,63.4-0.4,95.2,0.2l-10.1,6.1C-1018.5,436.9-1043.5,437-1068.5,437.7 L-1068.5,437.7z"></path> <path class="st0" d="M-900.4,491.4l-21.3-7.3V320l6.1-3l15.2-8.5C-903.6,369.3-903.7,430.3-900.4,491.4z"></path> <path class="st0" d="M-915.7,482.8v4.3l-15.2,4.3c2.4-60.9,2.7-121.9,0-183l15.2,8.5V482.8L-915.7,482.8z"></path> <path class="st0" d="M-802.9,491.4l21.3-7.3V320l-6.1-3l-15.2-8.5C-799.8,369.3-799.7,430.3-802.9,491.4z"></path> <path class="st0" d="M-915.6,399.5l12.8-5.7c34.1,0.9,68.2,0.8,102.3,0l12.9,5.7l-15.9,3.8h-99.3L-915.6,399.5z"></path> <path class="st0" d="M-664.8,308.4c-59.9,0-89.8,37.4-89.8,91.9c0,68.2,45.2,91.8,89,91.8c52,0,89.2-29.2,89.2-91.6 C-576.3,340.4-611.6,308.4-664.8,308.4L-664.8,308.4z M-666.6,317h1.7c39.6,0,68.6,26.9,68.6,83.2c0,56.2-29,83.2-68.5,83.2 c-43.1,0-68.5-30.9-68.5-83C-733.3,341.5-702,317.8-666.6,317L-666.6,317z"></path> <path class="st0" d="M-665,306c-64.7,0-98.6,41-98.6,94.2c0,58.2,37,93.7,98.5,93.7c66.5,0,98.9-40,98.9-93.1 C-566.2,341.6-604.9,306-665,306L-665,306z M-664.8,312c51.1,0,84.9,30.7,84.9,88.4c0,59.9-35.8,88-85.7,88 c-42,0-85.5-22.7-85.5-88.2C-751,348-722.3,312-664.8,312z"></path> <path class="st0" d="M-441.3,299c-60.8,0-102.4,34.4-102.4,101.4c0,65.7,38.7,102.4,102.7,102.4c48.4,0,101.5-24.9,101.5-101.5 C-339.5,318.6-397.5,299-441.3,299z M-441.6,306.3c48.4,0,84,29.4,84,94.2c0,70.5-43.1,93.3-83.9,93.3 c-43.6,0-83.4-25.6-83.4-94.7C-524.9,327.5-480.8,306.3-441.6,306.3z"></path> <path class="st0" d="M-441.7,294.9c-64.4,0-113.7,36.6-113.7,104.6c0,56,32.8,105.4,114.2,105.4c68.9,0,114-37.9,114-104.4 C-327.2,337.8-369.2,294.9-441.7,294.9z M-441.3,301.8c42.6,0,99,19.1,99,99.5c0,74.5-51.6,98.7-98.7,98.7 c-62.2,0-99.9-35.7-99.9-99.6C-540.9,335.2-500.4,301.8-441.3,301.8z"></path> <path class="st0" d="M-322.2,501.8c0-7.9,4.8-15.2,14.4-15.2c9.2,0,16.1,5.5,16.1,14.3c0,10.9-7.2,15-13.9,15 C-314.8,515.9-322.2,511.1-322.2,501.8L-322.2,501.8z"></path> <path class="st0" d="M-306.9,464.6c7.4-52.6,12-107.8,16.3-162.9c0-11,7.3-15.3,14.6-15.3c1.3,0,3.2,0.3,3.2,0.3l-2,13.2 l-26.1,163.2L-306.9,464.6L-306.9,464.6z"></path> <path class="st0" d="M-1182.2,515.2l14.7-10.7l14.6,10.7c0,0-8.1-1.5-14.6-1.5C-1173.4,513.7-1182.2,515.2-1182.2,515.2z"></path> <path class="st0" d="M-1120,491.4l20.5-8.8c3.1,3.7,5.9,6.9,9.7,8.8C-1097.2,489.4-1108.3,488.5-1120,491.4z"></path> <path class="st0" d="M-930.9,491.4c9.9-2.4,20-2.5,30.5,0l-15.2-8.5L-930.9,491.4z"></path> <path class="st0" d="M-902.8,406.3l-12.8-6.8c42.7,0.4,85.3,0.5,128,0l-12.8,6.7C-834.6,405.8-868.7,405.8-902.8,406.3 L-902.8,406.3z"></path> <path class="st0" d="M-787.7,482.8v4.3l15.2,4.3c-2.4-60.9-2.7-121.9,0-183l-15.2,8.5V482.8L-787.7,482.8z"></path> <path class="st0" d="M-772.4,491.4c-9.9-2.4-20-2.5-30.5,0l15.2-8.5L-772.4,491.4z"></path> <path class="st0" d="M-300.2,458.4l-6.8,6.2c4.5-0.8,8,0.4,11.4,1.8L-300.2,458.4z"></path> <ellipse class="st0" cx="-275.3" cy="299.8" rx="14.9" ry="13"></ellipse> </g> </g> <path class="st0" d="M281,142.5v-19.3h4.4v31.3c-1.8,0.6-3,0.2-4.3-1.3c-5.3-6.1-10.7-12.2-16-18.2c-0.6-0.6-1.2-1.2-2.3-2.4v21.6 h-4.5v-30.8c2.9-0.7,4.9-0.1,6.9,2.3c4.9,5.8,10.1,11.4,15.2,17C280.5,142.6,280.8,142.5,281,142.5L281,142.5z"></path> <path class="st0" d="M212.1,142.6v-19.3h4.2v31.2c-1.8,0.6-3.1,0.1-4.3-1.4c-5.3-6.1-10.7-12.2-16-18.2l-1.5-1.8 c-0.2,0.1-0.4,0.1-0.6,0.2V154c-1,0.1-1.6,0.2-2.2,0.2c-1.9,0.3-2.5-0.5-2.5-2.4c0.1-8.2,0-16.3,0-24.5v-4.1c2.7-0.5,4.8-0.3,6.8,2 c5,5.9,10.3,11.6,15.5,17.4C211.6,142.7,211.9,142.6,212.1,142.6z"></path> <path class="st0" d="M325,130.7c-1,0.7-1.9,1.3-2.8,2c-1.1-1.2-2-2.3-3-3.2c-3.1-3-6.8-4.4-11.1-2.9c-4.5,1.5-6.8,5-7.3,9.4 c-0.3,2.8-0.1,6,0.9,8.6c2.8,7.4,11.6,9.1,17.2,3.5c1.1-1,2-2.2,3.1-3.4c0.9,0.7,1.8,1.3,2.7,1.9c-3.1,6.3-10.9,9.6-18.3,8.1 c-8.3-1.7-13.7-7.3-14.1-14.5c-0.5-8,3.7-14.2,11.3-16.7C312.4,120.6,320.2,123.2,325,130.7L325,130.7z"></path> <path class="st0" d="M253.6,154c-0.4,0.1-0.5,0.2-0.5,0.2c-6.6,0.4-6.7,0.5-9.3-5.7c-0.9-2.3-2.2-3.3-4.6-2.9h-0.7 c-2.8,0-6.1-0.8-8.2,0.4c-2,1.1-2.7,4.4-3.9,6.8c-1.2,2.6-3.4,0.6-5.5,1.8c0.5-1.3,0.7-1.9,1-2.5c4.4-9.3,8.9-18.6,13.3-27.9 c0.6-1.2,1.1-2.3,2.6-1.8c0.9,0.3,2,1,2.3,1.8c4.4,9.3,8.6,18.7,12.9,28C253.2,152.9,253.3,153.4,253.6,154L253.6,154z M236.3,132.4 c-1.8,3.8-3.3,7-5,10.4h9.8C239.5,139.3,238,136.1,236.3,132.4z"></path> <path class="st0" d="M354.9,151.4v2.7H332v-30.9h22.7c0.7,1.5,0.2,2.2-1.6,2.2h-13.9c0,3.4-0.1,6.6,0.1,9.7c0,0.4,1.2,1.1,1.9,1.1 c3.1,0.1,6.2,0.1,9.3,0c1.5,0,2.1,0.5,1.4,2.2h-12.5v12.9C344.5,151.4,349.6,151.4,354.9,151.4z"></path> <path class="st0" d="M144.3,154.3v-31h21.8c0.6,1.6,0,2.2-1.6,2.2c-3.6,0-7.3,0.1-10.9,0c-1.6,0-2.3,0.5-2.2,2.2 c0.1,2.2,0.1,4.4,0,6.7c-0.1,1.6,0.6,2.1,2.1,2c3.1-0.1,6.2,0,9.3,0c1.5,0,2.1,0.5,1.5,2.2h-12.9v6.3c0,2.4-0.1,4.8,0,7.1 c0.1,1.9-0.7,2.5-2.5,2.4C147.4,154.2,145.9,154.3,144.3,154.3L144.3,154.3z"></path> <path class="st0" d="M173.4,123.2c0.8,0,1.5-0.1,2.2-0.1h4.9v31h-7.1L173.4,123.2L173.4,123.2z"></path> </svg> 